<svg id="Layer_1" xmlns="http://www.w3.org/2000/svg" viewBox="0 0 109.35 21"><defs><style>.cls-1{fill:#18723c;}</style></defs><path class="cls-1" d="M19.78,10.67c0-3.01-.04-5.8,.04-7.21h-.04c-.72,1.77-4.42,10.03-6.42,14.45h-.53C10.69,13.04,7.32,5.36,6.57,3.45h-.02c.04,.9,.02,5.28,.02,7.8v6.64h-.42V3.09h.67c2.4,5.53,5.66,12.89,6.29,14.33h.02c.53-1.22,4.12-9.17,6.4-14.33h.67v14.81h-.42v-7.23h0Z"/><path class="cls-1" d="M33.6,14.54c0-3.09-1.26-3.85-2.86-4.12,2.25-.38,3.09-1.79,3.09-3.53,0-2.59-1.88-3.79-4.48-3.79h-4.88v14.81h.44V3.47h4.43c2.59,0,4.04,1.28,4.04,3.43,0,2.61-2,3.35-4.36,3.35h-2.33c.05,.09,.07,.19,.05,.29,0,.04-.03,.08-.05,.11h2.5c3.3,0,3.98,1.37,3.98,3.98v.19c0,1.49-.02,2.42,.15,3.09h.46c-.15-.4-.19-1.14-.19-3.09v-.27h0Z"/><path class="cls-1" d="M46.1,17.91l-5.7-14.81h.44l3.2,8.22c.93,2.4,1.94,5.05,2.31,6.12h.04c.32-.96,1.52-3.87,2.4-6.06l3.3-8.29h.46l-5.93,14.81h-.53Z"/><path class="cls-1" d="M63.54,10.25h-8.05v7.27h8.77l-.09,.38h-9.11V3.09h8.9v.38h-8.47v6.4h8.05v.39h0Z"/><path class="cls-1" d="M78.26,17.91h-.38c-.02-.42-.02-.99-.04-3.47-.84,2.52-2.59,3.68-5.32,3.68-4.37,0-6.31-3.45-6.31-7.47s2.1-7.77,6.5-7.77c3.26,0,5.03,1.7,5.53,4h-.42c-.59-2.23-2.27-3.62-5.14-3.62-4.04,0-6.04,3.35-6.04,7.32,0,3.74,1.73,7.15,5.91,7.15,3.58,0,5.28-2.38,5.28-5.77v-1.1h-5.3v-.38h5.72v7.41h0Z"/><path class="cls-1" d="M86.84,3.09h-.44l-5.68,14.81h.44l2.21-5.77h5.59c-.06-.11-.07-.25-.03-.38h-5.42c1.47-3.85,2.93-7.68,3.07-8.22h.02c.3,.74,1.35,3.53,3.22,8.22,0,0,.15,.36,.16,.38h0l2.3,5.77h.46l-5.91-14.81Z"/><path class="cls-1" d="M95.11,14.06c.44,2.4,2.16,3.68,4.69,3.68s4.33-1.32,4.33-3.51-.9-3.07-4.33-4c-2.99-.8-4.4-1.67-4.4-3.85s1.67-3.49,4.33-3.49c3.24,0,4.33,1.94,4.57,3.58h-.42c-.38-1.95-1.7-3.2-4.16-3.2-2.3,0-3.87,1.03-3.87,3.07,0,1.91,1.14,2.73,4,3.47,3.94,1.01,4.73,2.31,4.73,4.37,0,2.42-1.81,3.94-4.79,3.94s-4.69-1.62-5.11-4.06h.45Z"/><path class="cls-1" d="M100.41,10.03c-2.67-1.1-3.67-2.08-3.41-3.95,.28-2.02,1.98-2.83,4.25-2.52,.26,.04,.51,.09,.74,.14,.02-.12,.04-.25,.05-.38-.23-.05-.46-.11-.72-.14-2.65-.37-4.47,.72-4.77,2.87-.28,2.02,.82,3.08,3.3,4.18,.19-.04,.38-.12,.55-.2Z"/><path class="cls-1" d="M98.93,9.46c-.26,.09-.53,.16-.79,.22,.09,.03,.18,.05,.27,.07,3.43,.93,4.33,1.91,4.33,4,0,2.19-1.68,3.51-4.33,3.51-.46,0-.89-.04-1.29-.12,.12,.15,.25,.3,.37,.46,.29,.04,.59,.05,.9,.05,2.99,0,4.79-1.52,4.79-3.94,0-1.98-.74-3.26-4.26-4.25Z"/><rect class="cls-1" x="26.54" y="3.36" width=".44" height="14.54"/><rect class="cls-1" x="8.18" y="7.27" width=".44" height="10.61"/><rect class="cls-1" x="17.72" y="7.15" width=".44" height="10.74"/><polyline class="cls-1" points="42.12 3.12 47.22 16.14 46.81 16.31 41.64 3.11"/><rect class="cls-1" x="53.87" y="3.25" width=".44" height="14.54"/><rect class="cls-1" x="59.29" y="4.88" width=".44" height="8.1" transform="translate(50.34 68.4) rotate(-89.76)"/><path class="cls-1" d="M70.4,3.48h-.05c-.05,.08-.15,.14-.28,.14h-.03v13.85c.07,0,.12,.04,.17,.08,.04,0,.07,.02,.1,.04,.07,0,.13,.02,.18,.04V3.47s-.05,0-.09,0Z"/><path class="cls-1" d="M91.43,17.89l-5.28-13.38-.19,.08c-.02,.1-.07,.18-.16,.23l5.16,13.08"/></svg>