<?xml version="1.0" encoding="utf-8"?>
<!-- Generator: Adobe Illustrator 27.5.0, SVG Export Plug-In . SVG Version: 6.00 Build 0)  -->
<svg version="1.1" xmlns="http://www.w3.org/2000/svg" xmlns:xlink="http://www.w3.org/1999/xlink" x="0px" y="0px" width="3500px"
	 height="2700px" viewBox="0 0 3500 2700" style="enable-background:new 0 0 3500 2700;" xml:space="preserve">
<style type="text/css">
	.st0{fill:#E0E0E0;}
	.st1{fill:#D8D8D8;}
	.st2{fill:#CECECE;}
	.st3{fill:#EDEDED;}
	.st4{clip-path:url(#SVGID_00000165941709736272833160000012463485064807058348_);fill:#3F3F3F;}
	.st5{fill:#FF2B33;}
	.st6{fill:#3B3C3C;}
	.st7{fill:#00101A;}
	.st8{opacity:0.1;}
	.st9{fill:#FFFFFF;}
	.st10{fill:none;stroke:#FFFFFF;stroke-width:6.5669;stroke-miterlimit:10;}
</style>
<g id="BACKGROUND">
</g>
<g id="OBJECTS">
	<path class="st0" d="M1889,1838l-306.5,41.8l-239.1-41.8c26.8,411.1-357,599.2-357,599.2h629.8H2246
		C2246,2437.1,1862.2,2249,1889,1838z"/>
	<path class="st1" d="M1582.5,1879.8l-239.1-41.8c7.4,113.4-16.6,209.8-55,290l709,90.4c-67.1-94.5-118.9-220.5-108.5-380.5
		L1582.5,1879.8z"/>
	<path class="st2" d="M2310.6,2458.9c0,37.1-30.1,67.1-67.1,67.1h-1236c-37.1,0-67.1-30.1-67.1-67.1l0,0c0-37,30-67.1,67.1-67.1
		h1236C2280.6,2391.8,2310.6,2421.9,2310.6,2458.9L2310.6,2458.9z"/>
	<path class="st3" d="M3101.5,2084.3c-14.4,113-117.7,192.9-230.7,178.5L398.2,1947.5c-113-14.4-192.9-117.7-178.5-230.7
		L390.5,377.8c14.4-113,117.7-192.9,230.7-178.5l2472.5,315.3c113,14.4,192.9,117.7,178.5,230.7L3101.5,2084.3z"/>
	<path class="st1" d="M3093.7,514.6L621.2,199.3c-113-14.4-216.3,65.5-230.7,178.5L219.7,1716.7c-0.4,2.9-0.4,5.7-0.7,8.6
		L3100,2092.8c0.5-2.9,1.1-5.6,1.5-8.5l170.8-1338.9C3286.7,632.3,3206.7,529,3093.7,514.6z"/>
	<g>
		<defs>
			
				<rect id="SVGID_1_" x="1113.2" y="-171.7" transform="matrix(0.1265 -0.992 0.992 0.1265 367.2212 2764.4011)" width="1280.2" height="2690.7"/>
		</defs>
		<use xlink:href="#SVGID_1_"  style="overflow:visible;fill:#3C3A3A;"/>
		<clipPath id="SVGID_00000122721809788680794740000006645292650042553000_">
			<use xlink:href="#SVGID_1_"  style="overflow:visible;"/>
		</clipPath>
		<path style="clip-path:url(#SVGID_00000122721809788680794740000006645292650042553000_);fill:#3F3F3F;" d="M3683.5,1958
			l-82.2-120l-109.4,95.7l-82.1-120l-109.5,95.6l-82.1-120l-109.4,95.7l-82.1-120l-109.4,95.7l-82.1-120l-109.4,95.6l-82-120
			l-109.4,95.6l-82.1-120l-109.4,95.7l-82-120l-109.4,95.6l-82-119.9l-109.4,95.6l-82-119.9l-109.4,95.6l-82-119.9l-109.4,95.6
			l-82-120l-109.4,95.7l-82-120l-109.4,95.7l-82.1-120l-109.4,95.7l-82-120l-109.4,95.7l-82-119.9L620,1569l-82-120l-109.4,95.6
			l-82-119.9l-109.4,95.7l-82-120l-109.4,95.6l-82-119.9l-109.4,95.6l-82-119.9l-109.4,95.6l-82-119.9l-109.4,95.6l-82-119.9
			l-109.4,95.6l-82-119.9l-109.4,95.6l-64.7-94.7l-44.9,30.7l99.3,145.2l109.4-95.7l82,120l109.4-95.7l82,120l109.4-95.7l82,120
			L-238,1433l82,120l109.4-95.7l82,119.9l109.4-95.7l82,120l109.4-95.6l82,119.9l109.4-95.7l82,120l109.4-95.7l82,120l109.4-95.7
			l82,120l109.4-95.7l82,120l109.4-95.7l82,120l109.4-95.6l82,119.9l109.4-95.6l82,119.9l109.4-95.6l82,120l109.4-95.7l82,119.9
			l109.4-95.6l82,120l109.4-95.7l82.1,120l109.4-95.7l82.1,120l109.4-95.6l82.1,120l109.4-95.7l82.1,120l109.4-95.7l82.1,120
			l109.4-95.7l82.1,120l109.5-95.6l82.1,120l132.5-115.7l-35.7-40.9L3683.5,1958z M3705.6,1783.9l-82.2-120l-109.4,95.7l-82.1-120
			l-109.5,95.6l-82.1-119.9l-109.4,95.6l-82.1-120l-109.4,95.6l-82.1-119.9l-109.4,95.6l-82-120l-109.4,95.6l-82.1-120l-109.4,95.7
			l-82-120l-109.4,95.7l-82-120l-109.4,95.6l-82-119.9l-109.4,95.6l-82-119.9l-109.4,95.6l-82-119.9l-109.4,95.7l-82-120
			l-109.4,95.7l-82.1-120l-109.4,95.7l-82-120l-109.4,95.7l-82-120l-109.4,95.7l-82-120l-109.4,95.6l-82-119.9l-109.4,95.7l-82-120
			L67.9,1322l-82-120l-109.4,95.7l-82-119.9l-109.4,95.6l-82-120l-109.4,95.7l-82-119.9l-109.4,95.7l-82-120l-109.4,95.6l-64.7-94.7
			l-44.9,30.7l99.3,145.2l109.4-95.7l82,120l109.4-95.7l82,119.9l109.4-95.7l82,120l109.4-95.6l82,119.9l109.4-95.6l82,120
			l109.4-95.6l82,119.9l109.4-95.6l82,119.9l109.4-95.6l82,120l109.4-95.7l82,120l109.4-95.6l82,120l109.4-95.7l82,120l109.4-95.7
			l82,120l109.4-95.6l82,119.9l109.4-95.6l82,119.9l109.4-95.6l82,119.9l109.4-95.6l82,120l109.4-95.7l82,120l109.4-95.7l82.1,120
			l109.4-95.6l82.1,120l109.4-95.7l82.1,120l109.4-95.7l82.1,120l109.4-95.7l82.1,120l109.5-95.7l82.1,120l109.5-95.7l82.1,120
			l132.5-115.7l-35.7-40.9L3705.6,1783.9z M3727.7,1609.7l-82.1-119.9l-109.4,95.6l-82.1-119.9l-109.5,95.6l-82.1-120l-109.4,95.6
			l-82.1-119.9l-109.4,95.6l-82.1-120l-109.4,95.6l-82.1-119.9l-109.4,95.6l-82.1-120l-109.4,95.6l-82-120l-109.4,95.7l-82-120
			l-109.4,95.6l-82-119.9l-109.4,95.7l-82-120l-109.4,95.6l-82-119.9L1430,1318l-82-120l-109.4,95.7l-82-120l-109.4,95.7l-82-120
			L855.7,1245l-82-120l-109.4,95.7l-82-119.9l-109.4,95.6l-82-120l-109.4,95.7l-82-119.9L90,1147.8L8,1027.9l-109.4,95.6l-82-119.9
			l-109.4,95.6l-82-119.9l-109.4,95.6l-82-119.9l-109.4,95.6l-82-120l-109.4,95.7l-64.7-94.7l-44.9,30.7l99.3,145.2l109.4-95.7
			l82,120l109.4-95.7l82,119.9l109.4-95.7l82,119.9l109.4-95.6l82,120L-2.3,1109l82,120l109.4-95.7l82,119.9l109.4-95.6l82,120
			l109.4-95.7l82,119.9l109.4-95.6l82.1,120l109.4-95.6l82,119.9l109.4-95.6l82.1,119.9l109.4-95.6l82,119.9l109.4-95.6l82,120
			l109.4-95.7l82,120l109.4-95.7l82,120l109.4-95.7l82,119.9l109.4-95.6l82,119.9l109.4-95.6l82.1,120l109.4-95.6l82,119.9
			l109.4-95.6l82.1,120l109.4-95.6l82.1,119.9l109.4-95.6l82.1,120l109.5-95.6l82.1,119.9l109.5-95.6l82.1,119.9l132.5-115.7
			l-35.7-40.9L3727.7,1609.7z M3639.3,2306.3l-82.2-120l-109.4,95.7l-82.1-120l-109.4,95.6l-82.1-120l-109.4,95.7l-82.1-120
			l-109.4,95.7l-82.1-120l-109.4,95.7l-82.1-120l-109.4,95.7l-82-120l-109.4,95.7l-82-120l-109.4,95.7l-82-120l-109.4,95.7
			l-82-119.9l-109.4,95.7l-82-120l-109.4,95.7l-82-119.9l-109.4,95.7l-82-120l-109.4,95.7l-82.1-120l-109.4,95.7l-82-120
			l-109.4,95.7l-82-120l-109.4,95.7l-82-120L384.4,1893l-82-120L193,1868.7l-82-120L1.6,1844.4l-82-120l-109.4,95.7l-82-119.9
			l-109.4,95.7l-82-120l-109.4,95.7l-82-120l-109.4,95.7l-82-120l-109.4,95.6l-64.7-94.7l-44.9,30.7l99.3,145.2l109.4-95.7l82,119.9
			l109.4-95.7l82,120l109.4-95.7l82,120l109.4-95.7l82,119.9l109.4-95.6l82,120l109.4-95.7l82,119.9l109.4-95.6l82,119.9l109.4-95.7
			l82,120l109.4-95.7l82,120l109.4-95.6l82,119.9l109.4-95.7l82.1,120l109.4-95.7l82,119.9l109.4-95.6l82,119.9l109.4-95.6l82,119.9
			l109.4-95.6l82,119.9l109.4-95.6l82,119.9l109.4-95.7l82,120l109.4-95.7l82.1,120l109.4-95.6l82.1,120l109.4-95.7l82.1,120
			l109.4-95.7l82.1,120l109.4-95.7l82,120l109.5-95.7l82.1,120l109.5-95.7l82.1,120l132.5-115.7l-35.7-40.9L3639.3,2306.3z
			 M-635.3-33l82,120l109.4-95.7l82,119.9l109.4-95.6l82,119.9l109.4-95.6l82,120l109.4-95.6l82,120l109.4-95.7l82,120l109.4-95.6
			l82,119.9l109.4-95.7l82,120L896,161.4l82,120l109.4-95.6l82,120l109.4-95.6l82.1,120l109.4-95.7l82,120l109.4-95.6l82,119.9
			l109.4-95.6l82,119.9l109.4-95.6l82,120l109.4-95.7l82,119.9l109.4-95.6l82,119.9l109.4-95.6l82.1,120l109.4-95.6l82.1,120
			l109.4-95.6l82.1,119.9l109.4-95.6l82.1,119.9l109.4-95.6l82.1,120l109.5-95.7l82.1,120l109.5-95.7l82.1,120l132.5-115.7
			l-35.7-40.9l-86.5,75.5l-82.1-120l-109.4,95.7l-82.1-120l-109.5,95.6l-82.1-120l-109.4,95.6l-82.1-120l-109.4,95.7l-82.1-120
			l-109.4,95.6l-82.1-120L2711.2,419l-82.1-120l-109.4,95.6l-82-120l-109.4,95.6l-82-120L2136.9,346l-82-120l-109.4,95.6l-82-119.9
			l-109.4,95.7l-82-120l-109.4,95.7l-82-120l-109.4,95.6l-82-120l-109.4,95.7l-82-120l-109.4,95.6l-82-119.9l-109.4,95.6l-82-119.9
			l-109.4,95.6l-82-119.9l-109.4,95.6l-82-120L222.7,103L140.6-17L31.2,78.6l-82-119.9l-109.4,95.6l-82-119.9L-351.6,30l-82-119.9
			L-543,5.7l-82-120l-109.4,95.6l-64.7-94.7l-44.9,30.7l99.3,145.2L-635.3-33z M3661.4,2132.2l-82.2-120l-109.4,95.6l-82.1-119.9
			l-109.5,95.6l-82.1-120l-109.4,95.6l-82.1-119.9l-109.4,95.6l-82.1-120l-109.4,95.6l-82.1-120l-109.4,95.7l-82.1-120l-109.4,95.6
			l-82-120l-109.4,95.7l-82-119.9l-109.4,95.7l-82-120l-109.4,95.7l-82-120l-109.4,95.7l-82-120l-109.4,95.7l-82-120l-109.4,95.7
			l-82-120l-109.4,95.7l-82-120l-109.4,95.7l-82-120l-109.4,95.7l-82-119.9l-109.4,95.7l-82-120l-109.4,95.7l-82-120l-109.4,95.7
			l-82-120l-109.4,95.7l-82-120l-109.4,95.7l-82-119.9l-109.4,95.7l-82-120L-742,1573l-82-120l-109.4,95.7l-64.7-94.7l-44.9,30.7
			l99.3,145.2l109.4-95.7l82,120l109.4-95.7l82,120l109.4-95.7l82,119.9l109.4-95.6l82,120l109.4-95.7l82,120l109.4-95.7l82,119.9
			l109.4-95.6l82,120l109.4-95.7l82,119.9l109.4-95.6l82,119.9l109.4-95.6l82,120l109.4-95.6l82.1,119.9l109.4-95.6l82,119.9
			l109.4-95.6l82,120l109.4-95.7l82,119.9l109.4-95.7l82,120l109.4-95.7l82,119.9l109.4-95.6l82,120l109.4-95.6l82.1,119.9
			l109.4-95.6l82.1,120l109.4-95.6l82.1,120l109.4-95.7l82.1,120l109.4-95.6l82.1,120l109.4-95.6l82.1,119.9l109.5-95.6l82.1,119.9
			l132.5-115.7l-35.7-40.9L3661.4,2132.2z M3838.2,739l-82.2-120l-109.4,95.7l-82.1-120l-109.5,95.6l-82.1-120L3263.6,666l-82.1-120
			l-109.4,95.7l-82.1-120l-109.4,95.7l-82-120l-109.4,95.7l-82.1-120l-109.4,95.6l-82-120l-109.4,95.7l-82-120l-109.4,95.6l-82-120
			l-109.4,95.7l-82-120L1732,471.6l-82-119.9l-109.4,95.6l-82-120l-109.4,95.7l-82.1-120l-109.4,95.7l-82-120l-109.4,95.7l-82-120
			L774.8,350l-82-120l-109.4,95.6l-82-119.9L392,301.4l-82-120l-109.4,95.6l-82-119.9L9.1,252.8l-82-120l-109.4,95.6l-82-120
			l-109.4,95.6l-82-119.9l-109.4,95.6l-82-120l-109.4,95.6l-64.7-94.7l-44.9,30.7l99.3,145.2l109.4-95.7l82,120l109.4-95.7l82,120
			l109.4-95.7l82,120L-83.2,214l82,120l109.4-95.7l82,120l109.4-95.7l82,119.9l109.4-95.6l82,120l109.4-95.7l82,120l109.4-95.7
			l82,120l109.4-95.7l82,120l109.4-95.6l82,120l109.4-95.7l82,120l109.4-95.6l82,120l109.4-95.7l82,120l109.4-95.7l82,120
			l109.4-95.7l82,119.9l109.4-95.7l82,120l109.4-95.7l82.1,120l109.4-95.6l82.1,119.9l109.4-95.6l82.1,120l109.4-95.6l82.1,119.9
			l109.4-95.6l82.1,120l109.5-95.7l82.1,120l109.5-95.7l82.1,120l132.5-115.7l-35.7-40.9L3838.2,739z M3816.1,913.2l-82.2-120
			l-109.4,95.7l-82.1-120L3433,864.5l-82.1-120l-109.4,95.7l-82.1-120L3050,815.9l-82.1-120l-109.4,95.7l-82.1-120L2667,767.2
			l-82.1-120l-109.4,95.6l-82-119.9l-109.4,95.6l-82-120l-109.4,95.7l-82-119.9L1901.3,670l-82-120l-109.4,95.7l-82-120l-109.4,95.7
			l-82-120L1327,597.1l-82.1-120l-109.4,95.7l-82-120l-109.4,95.7l-82-120l-109.4,95.7l-82-120l-109.4,95.6l-82-120l-109.4,95.6
			l-82-119.9l-109.4,95.6l-82-120L-13,426.9l-82-120l-109.4,95.7l-82-120l-109.4,95.7l-82-120L-587.2,354l-82-120l-109.4,95.7
			l-64.7-94.7l-44.9,30.6l99.3,145.2l109.4-95.7l82,120l109.4-95.7l82,119.9l109.4-95.7l82,120l109.4-95.7l82,120l109.4-95.7l82,120
			l109.4-95.7l82,119.9l109.4-95.6l82,120l109.4-95.7l82,120l109.4-95.7l82,120l109.4-95.7l82,120l109.4-95.7l82,120l109.4-95.7
			l82,120l109.4-95.6l82,120l109.4-95.7l82,119.9l109.4-95.6l82,119.9l109.4-95.7l82,119.9l109.4-95.6l82,119.9l109.4-95.7l82.1,120
			l109.4-95.6l82.1,119.9l109.4-95.6l82.1,120l109.4-95.6l82.1,119.9l109.4-95.6l82.1,120l109.4-95.7l82.1,120l109.5-95.7l82.1,120
			l132.5-115.7l-35.7-40.9L3816.1,913.2z M3794,1087.3l-82.1-120l-109.5,95.6l-82.1-120l-109.5,95.6l-82.1-120l-109.4,95.7
			l-82.1-120L3027.9,990l-82.1-120l-109.4,95.7l-82.1-120l-109.4,95.7l-82.1-120l-109.4,95.7l-82-120L2262,892.8l-82-120
			l-109.4,95.7l-82-120l-109.4,95.7l-82-120l-109.4,95.7l-82-119.9l-109.4,95.7l-82-120l-109.4,95.7l-82-119.9l-109.4,95.7l-82-120
			L922,722.6l-82-120l-109.4,95.7l-82-120L539.2,674l-82-119.9l-109.4,95.7l-82-120l-109.4,95.7l-82-119.9l-109.4,95.6l-82-120
			l-109.4,95.7l-82-120l-109.4,95.7l-82-119.9l-109.4,95.7l-82-120l-109.4,95.6l-64.7-94.7l-44.9,30.7L-811,585l109.4-95.7l82,120
			l109.4-95.6l82,119.9l109.4-95.6l82,119.9l109.4-95.6l82,119.9L64,586.6l82,119.9l109.4-95.6l82,119.9l109.4-95.7l82,120
			l109.4-95.7l82,120l109.4-95.7l82,120l109.4-95.7l82,120l109.4-95.7l82.1,119.9l109.4-95.7l82,120l109.4-95.6l82,119.9l109.4-95.6
			l82,119.9l109.4-95.6l82,119.9l109.4-95.6l82,119.9l109.4-95.7l82,120l109.4-95.7l82.1,120l109.4-95.6l82.1,120l109.4-95.6
			l82.1,119.9l109.4-95.6l82.1,120l109.4-95.6l82,119.9l109.5-95.6l82.1,120l109.5-95.6l82.1,119.9l132.5-115.7l-35.7-40.9
			L3794,1087.3z M3771.9,1261.4l-82.2-120l-109.4,95.7l-82.1-120l-109.4,95.6l-82.1-120l-109.4,95.7l-82.1-120l-109.4,95.7
			l-82.1-120l-109.4,95.7l-82.1-120l-109.4,95.7l-82.1-120l-109.4,95.7l-82-120l-109.4,95.7l-82-120l-109.4,95.7l-82-120
			l-109.4,95.7l-82-119.9L1665.7,994l-82-120l-109.4,95.7l-82-120l-109.4,95.7l-82.1-120l-109.4,95.7l-82-120l-109.4,95.7l-82-120
			l-109.4,95.7l-82-120l-109.4,95.6l-82-119.9l-109.4,95.7l-82-120l-109.4,95.7l-82-119.9l-109.4,95.6l-82-120l-109.4,95.7
			l-82-119.9L-440,726.6l-82-120l-109.4,95.7l-82-120L-822.8,678l-64.7-94.7l-44.9,30.7l99.3,145.2l109.4-95.6l82,119.9l109.4-95.7
			l82,120l109.4-95.7l82,119.9l109.4-95.6l82,119.9l109.4-95.6l82,119.9l109.4-95.6l82,119.9l109.4-95.6l82,119.9l109.4-95.6
			l82,119.9L807.6,858l82,119.9L999,882.3l82,119.9l109.4-95.6l82,119.9l109.4-95.6l82,120l109.4-95.6l82,119.9l109.4-95.7l82,119.9
			l109.4-95.6l82,119.9l109.4-95.6l82,119.9l109.4-95.6l82,120l109.4-95.6l82.1,119.9l109.4-95.6l82.1,120l109.4-95.6l82.1,119.9
			l109.4-95.6l82.1,120l109.4-95.6l82,119.9l109.5-95.7l82.1,120l109.5-95.7l82.1,120l132.5-115.7l-35.7-40.9L3771.9,1261.4z
			 M3749.8,1435.6l-82.2-120l-109.4,95.6l-82.1-120l-109.5,95.6l-82-120l-109.4,95.6l-82.1-119.9l-109.4,95.6l-82.1-120l-109.4,95.6
			l-82.1-119.9l-109.4,95.6l-82.1-120l-109.4,95.6l-82-120l-109.4,95.6l-82-119.9l-109.4,95.6l-82-119.9l-109.4,95.6l-82-119.9
			l-109.4,95.6l-82-120l-109.4,95.7l-82-119.9l-109.4,95.7l-82.1-120l-109.4,95.7l-82-120l-109.4,95.7l-82-120l-109.4,95.7l-82-120
			l-109.4,95.6l-82-119.9L303.5,998l-82-120l-109.4,95.6l-82-119.9l-109.4,95.6l-82-119.9l-109.4,95.7l-82-120l-109.4,95.6
			l-82-119.9l-109.4,95.6l-82-119.9l-109.4,95.6l-64.7-94.7l-44.9,30.7l99.3,145.2l109.4-95.7l82,119.9l109.4-95.6l82,119.9
			l109.4-95.6l82,119.9l109.4-95.6l82,120l109.4-95.6l82,119.9l109.4-95.6l82,119.9l109.4-95.6l82,119.9l109.4-95.7l82,120
			l109.4-95.6l82,119.9l109.4-95.6l82,119.9l109.4-95.6l82,120l109.4-95.6l82,119.9l109.4-95.6l82,120l109.4-95.6l82,119.9
			L1934,1178l82,119.9l109.4-95.6l82,119.9l109.4-95.6l82,119.9l109.4-95.6l82.1,119.9l109.4-95.6l82,120l109.4-95.6l82.1,120
			l109.4-95.6l82.1,119.9l109.4-95.6l82.1,120l109.5-95.7l82.1,120l109.5-95.6l82.1,120L3872,1401l-35.7-40.9L3749.8,1435.6z"/>
	</g>
	<g>
		<g>
			<path class="st5" d="M887,1184c-25.5,19.7-62.2,15-81.9-10.5l0,0c-19.7-25.5-15-62.1,10.4-81.9l469.6-363.3
				c25.5-19.7,62.2-15.1,81.9,10.5l0,0c19.7,25.5,15.1,62.1-10.4,81.9L887,1184z"/>
			<path class="st5" d="M1313.9,1155.2c19.7,25.5,15,62.2-10.5,81.9l0,0c-25.5,19.7-62.1,15-81.9-10.4L858.2,757
				c-19.7-25.5-15-62.1,10.4-81.9l0,0c25.5-19.7,62.2-15.1,81.9,10.4L1313.9,1155.2z"/>
		</g>
		<g>
			<path class="st5" d="M2254.7,1358.4c-25.5,19.7-62.1,15-81.9-10.5l0,0c-19.7-25.5-15.1-62.1,10.4-81.9l469.6-363.3
				c25.5-19.7,62.2-15.1,81.9,10.4l0,0c19.7,25.5,15.1,62.2-10.5,81.9L2254.7,1358.4z"/>
			<path class="st5" d="M2681.6,1329.6c19.7,25.5,15.1,62.2-10.5,81.9l0,0c-25.5,19.7-62.1,15-81.9-10.4L2226,931.5
				c-19.7-25.5-15-62.2,10.4-81.9l0,0c25.5-19.7,62.2-15.1,81.9,10.4L2681.6,1329.6z"/>
		</g>
	</g>
	<g>
		<path class="st5" d="M1951.7,1774.3c-36-4.6-61.4-37.4-56.8-73.5c14.4-113.3-66-217.2-179.3-231.7
			c-113.3-14.4-217.2,66-231.7,179.3c-4.6,36-37.5,61.4-73.5,56.8c-36-4.6-61.4-37.5-56.8-73.4c23.6-185.1,193.4-316.5,378.6-292.9
			c185.1,23.6,316.5,193.4,292.9,378.6C2020.5,1753.4,1987.7,1778.9,1951.7,1774.3z"/>
	</g>
	<path class="st6" d="M1972.9,471.3c-1.8,14.2-14.8,24.2-29,22.4L1753,469.4c-14.2-1.8-24.2-14.8-22.4-29l0,0
		c1.8-14.2,14.8-24.2,29-22.4l190.8,24.3C1964.7,444.1,1974.7,457.1,1972.9,471.3L1972.9,471.3z"/>
	<path class="st7" d="M1744.4,441.9c-1,7.8,4.5,14.8,12.2,15.8c7.7,1,14.8-4.5,15.8-12.2c1-7.7-4.5-14.8-12.2-15.8
		C1752.5,428.7,1745.4,434.1,1744.4,441.9z"/>
	<g class="st8">
		<polygon class="st9" points="336.8,798.9 248.1,1494.3 1737.8,341.7 1042.4,253 		"/>
		<path class="st9" d="M3155.4,532.6c-19-8.9-39.7-15.2-61.6-18l-989.4-126.2L238.5,1832.1c29.3,60.8,87.7,106.2,159.7,115.3
			l797.2,101.7L3155.4,532.6z"/>
		<polygon class="st9" points="3227.8,1093.8 3244.7,961 1747.5,2119.5 1880.3,2136.5 		"/>
	</g>
	<path class="st10" d="M2161.5,14"/>
</g>
</svg>
