<svg width="22" height="22" viewBox="0 0 22 22" fill="none" xmlns="http://www.w3.org/2000/svg">
<path d="M21.1061 3.46282L21.2121 3.35676L21.1061 3.25069L18.7493 0.893934L18.6432 0.787868L18.5372 0.893934L11 8.43109L3.46282 0.893934L3.35676 0.787868L3.25069 0.893934L0.893934 3.25069L0.787868 3.35676L0.893934 3.46282L8.43109 11L0.893934 18.5372L0.787868 18.6432L0.893934 18.7493L3.25069 21.1061L3.35676 21.2121L3.46282 21.1061L11 13.5689L18.5371 21.1061L18.6432 21.2121L18.7493 21.1061L21.106 18.7493L21.2121 18.6432L21.106 18.5372L13.5689 11L21.1061 3.46282Z" fill="white" stroke="white" stroke-width="0.3"/>
</svg>
