<svg width="22" height="25" viewBox="0 0 22 25" fill="none" xmlns="http://www.w3.org/2000/svg">
    <path d="M21.9943 0.709296C21.9983 0.173085 21.8517 -0.00389064 21.283 7.15081e-05C17.8555 0.0238444 14.428 0.0119579 11.0005 0.0119579C7.57306 0.0119579 4.14558 0.0238444 0.719452 7.15081e-05C0.160084 -0.00389064 -0.00396168 0.155916 7.22223e-05 0.700051C0.0242757 4.13655 0.0027615 7.57306 0.0242757 11.0096C0.0283096 11.7056 0.107643 12.4082 0.22866 13.095C1.26806 19.0422 5.01018 22.7468 10.5703 24.922C10.7962 25.0105 11.1148 25.0303 11.3367 24.9471C17.8071 22.5249 21.8477 17.596 21.9728 10.6886C22.0319 7.36306 21.9728 4.03486 21.9956 0.707975L21.9943 0.709296ZM20.0298 10.6226C19.9195 16.3809 16.7999 20.561 11.3891 22.8801C11.1579 22.9792 10.8042 22.97 10.5703 22.8709C5.25087 20.6046 1.99686 16.3637 1.95652 10.5367C1.93904 7.95474 1.97534 5.37142 1.93769 2.78942C1.92828 2.13039 2.11653 1.91643 2.80229 1.92435C5.53459 1.95605 8.26689 1.93756 11.0005 1.93756C13.7328 1.93756 16.4665 1.95209 19.1988 1.927C19.8267 1.92171 20.062 2.09737 20.054 2.74452C20.0217 5.3701 20.0809 7.99833 20.0311 10.6226H20.0298Z" fill="white"/>
    <path d="M16.6064 9.41426C14.8154 9.43671 13.023 9.40898 11.2306 9.42615C9.61569 9.44068 9.86176 9.16465 9.82142 10.8274C9.81066 11.2712 9.99757 11.3914 10.4171 11.3861C11.7389 11.3716 13.0606 11.398 14.3811 11.3742C14.9364 11.3636 15.1516 11.5314 15.0547 12.0993C14.6608 14.4105 13.4708 16.2014 11.4565 17.4772C11.1365 17.6793 10.885 17.7123 10.5462 17.4957C8.84118 16.4048 7.55571 14.9507 7.24375 12.9802C6.95465 11.1576 7.02861 9.28219 6.90356 7.43187C6.85919 6.77679 7.12139 6.62095 7.74933 6.62623C10.5045 6.65396 13.2597 6.64472 16.0148 6.63548C17.4563 6.63019 17.225 6.81509 17.2801 5.42438C17.303 4.84987 17.1188 4.65968 16.5244 4.67025C16.0713 4.67817 15.6181 4.68346 15.1637 4.68478C13.8029 4.6927 12.4421 4.68082 11.0813 4.68082C10.1737 4.68082 9.26743 4.68478 8.3598 4.6861C7.45217 4.6861 6.54589 4.68478 5.63826 4.67157C5.052 4.66233 4.80055 4.801 4.81668 5.43626C4.85971 7.14263 4.82341 8.85032 4.83551 10.5567C4.86375 14.6469 6.78523 17.6397 10.3741 19.6736C10.8124 19.9219 11.1647 19.9351 11.6125 19.6855C15.4191 17.5657 17.3124 14.3841 17.2882 10.0971C17.2855 9.58067 17.1335 9.40766 16.6051 9.41426H16.6064Z" fill="white"/>
</svg>
