<svg width="19" height="26" viewBox="0 0 19 26" fill="none" xmlns="http://www.w3.org/2000/svg">
    <path d="M16.1797 12.5412L17.2597 13.1705C17.268 13.1562 17.2761 13.1417 17.2839 13.1271L16.1797 12.5412ZM15.8926 13.0339L14.8125 12.4046L14.8124 12.4049L15.8926 13.0339ZM9.50722 24L8.42709 24.6291C8.65664 25.0232 9.08258 25.261 9.5385 25.2496C9.99441 25.2382 10.4079 24.9794 10.6175 24.5743L9.50722 24ZM3.13213 13.0537H4.38213C4.38213 12.833 4.32369 12.6162 4.21275 12.4254L3.13213 13.0537ZM2.82012 12.5171L3.90073 11.8888C3.88457 11.861 3.86734 11.8338 3.84909 11.8073L2.82012 12.5171ZM2.81426 12.5086L1.71709 13.1075C1.73788 13.1456 1.76065 13.1826 1.78529 13.2183L2.81426 12.5086ZM9.50576 2.00122L9.48319 3.25102C9.49071 3.25116 9.49823 3.25122 9.50576 3.25122V2.00122ZM15.75 9.24495C15.75 10.2211 15.5071 11.1419 15.0755 11.9552L17.2839 13.1271C17.9011 11.9638 18.25 10.6418 18.25 9.24495H15.75ZM15.0997 11.9118L14.8125 12.4046L16.9726 13.6632L17.2597 13.1705L15.0997 11.9118ZM15.8926 13.0339C14.8124 12.4049 14.8123 12.4049 14.8123 12.405C14.8122 12.4051 14.8122 12.4052 14.8121 12.4054C14.8119 12.4057 14.8116 12.4062 14.8112 12.4069C14.8104 12.4082 14.8093 12.4102 14.8077 12.4128C14.8047 12.4181 14.8001 12.426 14.794 12.4363C14.782 12.4571 14.764 12.4879 14.7407 12.528C14.6939 12.6083 14.6253 12.7261 14.538 12.876C14.3635 13.1757 14.1141 13.604 13.8148 14.1179C13.2163 15.1458 12.4183 16.5163 11.6202 17.8869C10.045 20.5921 8.41682 23.3873 8.39697 23.4257L10.6175 24.5743C10.5991 24.6099 12.1636 21.922 13.7807 19.1449C14.5787 17.7743 15.3768 16.4038 15.9753 15.3759C16.2745 14.862 16.5239 14.4338 16.6985 14.134C16.7857 13.9841 16.8543 13.8663 16.9011 13.786C16.9245 13.7459 16.9424 13.7151 16.9545 13.6943C16.9605 13.684 16.9651 13.6761 16.9681 13.6708C16.9697 13.6682 16.9708 13.6662 16.9716 13.6649C16.972 13.6642 16.9723 13.6637 16.9725 13.6634C16.9726 13.6632 16.9727 13.6631 16.9727 13.663C16.9727 13.6629 16.9728 13.6629 15.8926 13.0339ZM9.50722 24C10.5874 23.3709 10.5873 23.3708 10.5873 23.3707C10.5872 23.3706 10.5872 23.3705 10.5871 23.3704C10.5869 23.37 10.5866 23.3695 10.5862 23.3689C10.5854 23.3675 10.5843 23.3656 10.5827 23.3629C10.5797 23.3577 10.5751 23.3498 10.5691 23.3395C10.557 23.3188 10.5391 23.288 10.5158 23.2479C10.4691 23.1678 10.4006 23.0502 10.3134 22.9006C10.1391 22.6013 9.89008 22.1738 9.59125 21.6607C8.99359 20.6346 8.1967 19.2665 7.39982 17.8983C6.60294 16.5301 5.80607 15.1619 5.20842 14.1356C4.9096 13.6225 4.6606 13.1949 4.48632 12.8955C4.39917 12.7458 4.33074 12.6283 4.28412 12.5482C4.2608 12.5081 4.24301 12.4775 4.2311 12.457C4.22511 12.4467 4.22077 12.4392 4.21799 12.4345C4.21655 12.432 4.21585 12.4308 4.21565 12.4304C4.21543 12.4301 4.21604 12.4311 4.21698 12.4327C4.21761 12.4338 4.21968 12.4375 4.22105 12.4399C4.22508 12.4471 4.34327 12.7444 4.38213 13.0537H1.88213C1.921 13.363 2.03923 13.6604 2.04336 13.6678C2.04483 13.6704 2.04705 13.6743 2.04787 13.6757C2.0492 13.678 2.05039 13.6801 2.05094 13.681C2.05229 13.6834 2.0539 13.6862 2.05552 13.6889C2.05887 13.6947 2.06367 13.703 2.06975 13.7134C2.08196 13.7344 2.09997 13.7654 2.12334 13.8056C2.1701 13.8859 2.23864 14.0037 2.32581 14.1534C2.50017 14.4529 2.74922 14.8806 3.04806 15.3937C3.64574 16.42 4.44264 17.7883 5.23953 19.1565C6.03642 20.5247 6.83331 21.8929 7.43098 22.919C7.72981 23.432 7.97884 23.8596 8.15316 24.1588C8.24032 24.3085 8.3088 24.4261 8.3555 24.5062C8.37884 24.5463 8.39674 24.577 8.40881 24.5977C8.41484 24.6081 8.41941 24.616 8.42247 24.6212C8.42401 24.6238 8.42516 24.6258 8.42593 24.6272C8.42632 24.6278 8.42661 24.6283 8.4268 24.6286C8.4269 24.6288 8.42697 24.6289 8.42702 24.629C8.42707 24.6291 8.42709 24.6291 9.50722 24ZM4.21275 12.4254L3.90073 11.8888L1.73951 13.1454L2.05152 13.682L4.21275 12.4254ZM3.84909 11.8073L3.84323 11.7989L1.78529 13.2183L1.79115 13.2268L3.84909 11.8073ZM3.91143 11.9097C1.8593 8.15042 4.88383 3.16797 9.48319 3.25102L9.52833 0.751427C3.14999 0.636252 -1.31971 7.5445 1.71709 13.1075L3.91143 11.9097ZM9.50576 3.25122C12.9953 3.25122 15.75 5.97496 15.75 9.24495H18.25C18.25 4.51512 14.2956 0.751223 9.50576 0.751223V3.25122ZM11.9121 9.46016C11.9121 10.685 10.8725 11.7499 9.4999 11.7499V14.2499C12.1724 14.2499 14.4121 12.1452 14.4121 9.46016H11.9121ZM9.4999 11.7499C8.1273 11.7499 7.08774 10.685 7.08774 9.46016H4.58774C4.58774 12.1452 6.82739 14.2499 9.4999 14.2499V11.7499ZM7.08774 9.46016C7.08774 8.23529 8.1273 7.17042 9.4999 7.17042V4.67042C6.82739 4.67042 4.58774 6.77514 4.58774 9.46016H7.08774ZM9.4999 7.17042C10.8725 7.17042 11.9121 8.23529 11.9121 9.46016H14.4121C14.4121 6.77514 12.1724 4.67042 9.4999 4.67042V7.17042Z" fill="white"/>
</svg>
