<svg width="282" height="8" viewBox="0 0 282 8" fill="none" xmlns="http://www.w3.org/2000/svg">
<path d="M62.3172 1.16711C62.3172 1.49174 62.5572 1.82925 62.8552 1.92458C64.486 2.43213 67.0439 1.5175 65.5539 0.958424C64.039 0.389038 62.3172 0.499823 62.3172 1.16711Z" fill="#49CDF7"/>
<path d="M42.7313 1.1362C41.5475 1.3758 39.3952 1.48659 36.8208 1.44021C34.594 1.40157 31.2248 1.34231 29.3291 1.31139C25.5957 1.24956 24.5941 1.39126 25.5047 1.84728C25.8606 2.02506 27.0444 2.08174 28.5179 1.98899C29.8506 1.90654 33.9069 1.83698 37.5244 1.8344C44.5773 1.83183 47.218 1.57419 45.5458 1.05633C44.8008 0.824451 44.1551 0.842485 42.723 1.13362L42.7313 1.1362Z" fill="#49CDF7"/>
<path d="M50.9266 0.340086C49.3289 0.605456 48.3438 1.2779 49.0392 1.62571C49.2461 1.72877 49.9829 1.79576 50.8521 1.80349C51.2825 1.84213 51.7626 1.82925 52.2345 1.76484C53.3934 1.68497 53.9232 1.49432 54.097 1.11558C54.4199 0.404496 52.8471 0.0231877 50.9266 0.342662V0.340086Z" fill="#49CDF7"/>
<path d="M14.5776 1.57419C17.5329 2.08689 22.2514 2.25178 23.0047 1.87047C23.8242 1.45825 21.4733 1.13104 17.3922 1.08467C11.5562 1.02283 11.4651 1.03572 14.5776 1.57419Z" fill="#49CDF7"/>
<path d="M5.67046 1.47628C5.67046 1.53812 6.23337 1.58707 6.92873 1.58707C7.62408 1.58707 7.96348 1.47113 7.68203 1.32943C7.21846 1.09755 5.67046 1.20834 5.67046 1.47371V1.47628Z" fill="#49CDF7"/>
<path d="M1.2831 0.93266C0.447015 0.83218 0 0.917201 0 1.18257C0 1.4196 0.670522 1.58964 1.6225 1.58964C2.50825 1.58964 3.23672 1.47628 3.23672 1.33716C3.23672 1.19803 3.08771 1.08467 2.89732 1.08467C2.70692 1.08467 1.97845 1.0151 1.27482 0.93266H1.2831Z" fill="#49CDF7"/>
<path d="M277.944 5.6346C278.664 5.4053 279.285 5.16312 279.815 4.91321C280.303 4.71483 280.642 4.52675 280.882 4.31291C282.315 3.3313 282.397 2.26724 280.974 1.33716L279.624 0.456024H279.384L279.061 0.260217L271.247 0.445719C271.106 0.448295 270.949 0.453448 270.8 0.456024H256.148C243.242 0.450871 223.102 0.347815 211.388 0.224147L205.916 0.167467C202.018 0.115938 199.311 0.0850215 198.888 0.0824451C198.731 0.0824451 198.599 0.0824451 198.475 0.0875979L190.097 0L190.627 0.649255C191.347 1.54327 188.988 1.94261 185.453 1.52523C183.442 1.2882 182.374 1.29851 180.288 1.56903C178.839 1.75453 176.927 1.89881 176.041 1.88851C173.98 1.86017 166.819 1.87305 157.018 1.92715C152.788 1.95034 145.743 1.89624 141.348 1.80606C136.96 1.71589 132.316 1.7365 131.033 1.85244C129.196 2.01733 128.691 1.98126 128.691 1.68497C128.691 1.38868 128.227 1.35777 126.878 1.50205C125.876 1.61025 121.522 1.70301 117.201 1.70816C112.043 1.71589 109.005 1.82667 108.343 2.03536C107.532 2.28785 107.673 2.34968 109.063 2.34968C111.182 2.34968 112.259 2.80313 110.603 2.99894C109.072 3.18186 106.042 2.68462 106.042 2.25178C106.042 1.20318 97.7141 0.615761 91.9443 1.25471C90.1314 1.45567 87.5983 1.55873 86.3318 1.48143C82.5322 1.25213 77.5488 1.60253 77.11 2.13327C76.8948 2.38833 76.216 2.5996 75.5951 2.5996C74.221 2.5996 74.1548 2.29558 75.4461 1.89366C76.9941 1.41187 75.0985 1.04344 71.5472 1.13362C68.5671 1.21091 68.4098 1.25729 68.4098 2.07143V2.92938L75.5207 3.01182C76.7541 3.0247 77.7888 3.03243 78.6663 3.03243C79.0719 3.10972 79.61 3.10715 80.264 3.0247C82.1265 2.99894 82.855 2.90876 83.0702 2.73872C84.0553 1.94004 89.047 2.14357 89.047 2.98606C89.047 3.22824 89.8831 3.35448 91.4807 3.35448C92.9294 3.35448 93.9062 3.22309 93.9062 3.02728C93.9062 2.50684 95.5287 2.14357 97.234 2.2827C98.3846 2.37545 98.6661 2.54549 98.2853 2.91907C97.8052 3.38798 98.0287 3.41632 101.092 3.29007C102.921 3.21278 104.626 3.254 104.875 3.38025C105.123 3.50649 106.1 3.60697 107.043 3.60697C107.987 3.60697 109.875 3.7126 111.249 3.844C112.615 3.9754 116.646 4.19697 120.206 4.34125C123.765 4.48295 128.682 4.7174 131.133 4.85653C140.363 5.38469 148.93 5.67583 161.48 5.88967C176.463 6.14216 188.682 6.4977 197.97 6.95115C201.562 7.12634 205.751 7.19075 207.274 7.09285C207.969 7.04905 209.261 7.03102 210.958 7.03617C212.986 7.0542 215.296 7.0877 217.655 7.12892C222.704 7.23713 228.772 7.42778 234.186 7.66997C237.679 7.82713 242.232 7.89927 244.302 7.83228C246.38 7.76787 250.436 7.78333 253.333 7.87093C266.404 8.25996 271.048 7.84001 277.96 5.63718L277.944 5.6346ZM195.403 0.855367C195.817 0.646678 199.087 0.765193 199.087 0.986764C199.087 1.04087 198.152 1.08467 197.018 1.08467C195.883 1.08467 195.147 0.981611 195.403 0.855367Z" fill="#49CDF7"/>
</svg>
