<?xml version="1.0" encoding="utf-8"?>
<!-- Generator: Adobe Illustrator 27.8.1, SVG Export Plug-In . SVG Version: 6.00 Build 0)  -->
<svg version="1.1" id="Layer_1" xmlns="http://www.w3.org/2000/svg" xmlns:xlink="http://www.w3.org/1999/xlink" x="0px" y="0px"
	 width="60px" height="31.3px" viewBox="0 0 60 31.3" style="enable-background:new 0 0 60 31.3;" xml:space="preserve">
<style type="text/css">
	.st0{fill:#FFFFFF;}
	.st1{fill:#96B4DC;}
</style>
<g id="Layer_2_00000134217379258663323990000009207240685298933663_">
	<g id="Layer_1-2">
		<path class="st0" d="M3.2,7.7c-1.3-0.9-2-2-2-3.5c0-2.6,1.9-3.9,4-3.9c2.4,0,3.8,1.6,3.8,4v0.5H6.4V4.3c0-0.8-0.5-1.5-1.3-1.5
			C4.5,2.7,4,3.2,4,3.8c0,0,0,0.1,0,0.1c0,0.9,0.4,1.2,1.3,1.9l1.9,1.4c1.2,1,2,1.9,2,3.4c0,2.5-1.9,4-4.1,4s-4-1.5-4-3.8v-0.8h2.6
			v0.6c-0.1,0.8,0.5,1.4,1.3,1.5c0,0,0.1,0,0.1,0c0.7,0,1.2-0.7,1.2-1.4c0-0.7-0.3-1.1-1.1-1.6L3.2,7.7z"/>
		<path class="st0" d="M13.8,14.5c-2.1,0-2.9-0.9-2.9-3v-5H9.6V4.2h1.3V1.7h2.7v2.4h1.6v2.3h-1.6v4.6c0,0.7,0.2,1,0.9,1h0.7v2.4
			H13.8z"/>
		<path class="st0" d="M21,7.7c0-0.7-0.6-1.3-1.3-1.3S18.5,7,18.5,7.7c0,0,0,0,0,0V11c0,0.7,0.6,1.3,1.3,1.3c0.7,0,1.3-0.6,1.3-1.3
			c0,0,0,0,0,0V7.7z M23.7,10.9c0,2.4-1.6,3.8-3.9,3.8s-3.9-1.4-3.9-3.8V7.8c0-2.4,1.6-3.8,3.9-3.8s3.9,1.4,3.9,3.8L23.7,10.9z"/>
		<path class="st0" d="M30,8c0-1-0.4-1.6-1.2-1.6S27.5,7,27.5,8v2.8c0,0.9,0.4,1.5,1.3,1.5c0.8,0,1.3-0.5,1.3-1.4L30,8z M24.8,15
			V4.2h2.5v0.7C27.9,4.3,28.7,4,29.5,4c2.1,0,3.2,1.4,3.2,3.7V11c0,2.2-1.3,3.7-3.3,3.7c-0.7,0-1.4-0.3-1.9-0.8V15H24.8z"/>
		<path class="st1" d="M21.4,19.2c0-0.6-0.6-1.1-1.2-1.1c-0.7,0-1.1,0.4-1.1,0.8c0,1.7,5.1,0.6,5.1,4.3c0,2.2-1.9,3.3-4,3.3
			c-2,0-3.8-0.8-3.9-3.4h2.6c0,0.7,0.6,1.2,1.2,1.2c0,0,0.1,0,0.1,0c0.6,0,1.2-0.4,1.2-0.9c0-1.7-5.1-0.6-5.1-4.3
			c0-2,1.5-3.3,3.9-3.3c1.7,0,3.5,0.7,3.6,3.3L21.4,19.2z"/>
		<rect x="33.8" y="16.1" class="st1" width="2.7" height="10.3"/>
		<rect x="37.7" y="12.4" class="st1" width="2.7" height="14"/>
		<rect x="41.6" y="12.4" class="st1" width="2.7" height="14"/>
		<path class="st1" d="M50.4,19.7c0-0.9-0.5-1.4-1.3-1.4c-0.8,0-1.3,0.5-1.3,1.4v0.5h2.5V19.7z M47.9,21.9v0.9
			c0,0.8,0.4,1.3,1.3,1.3c1,0,1.3-0.5,1.3-1.1h2.5c-0.1,2.4-1.6,3.5-3.9,3.5c-2.3,0-3.9-1.4-3.9-3.7v-3.2c0-2.4,1.7-3.8,4-3.8
			s3.8,1.4,3.8,3.8v2.2L47.9,21.9z"/>
		<path class="st1" d="M57.7,26.4c-2.1,0-2.9-0.9-2.9-3v-5h-1.3v-2.3h1.3v-2.4h2.7v2.4H59v2.3h-1.6V23c0,0.7,0.2,1.1,0.9,1.1H59v2.4
			H57.7z"/>
		<path class="st0" d="M33.6,13.1c0-0.8,0.7-1.5,1.5-1.5s1.5,0.7,1.5,1.5c0,0.8-0.7,1.5-1.5,1.5c0,0,0,0,0,0
			C34.2,14.7,33.6,14,33.6,13.1"/>
		<path class="st1" d="M30,19.9c0-1-0.4-1.6-1.2-1.6s-1.3,0.6-1.3,1.6v2.8c0,0.9,0.4,1.5,1.3,1.5c0.8,0,1.3-0.5,1.3-1.4V19.9z
			 M24.8,30.2V16.1h2.6v0.7c0.5-0.6,1.3-0.9,2-0.9c2.1,0,3.2,1.4,3.2,3.7v3.2c0,2.2-1.3,3.7-3.3,3.7c-0.7,0-1.4-0.3-1.9-0.8v4.4
			H24.8z"/>
	</g>
</g>
</svg>
