<?xml version="1.0" encoding="utf-8"?>
<!-- Generator: Adobe Illustrator 27.8.1, SVG Export Plug-In . SVG Version: 6.00 Build 0)  -->
<svg version="1.1" id="Layer_1" xmlns="http://www.w3.org/2000/svg" xmlns:xlink="http://www.w3.org/1999/xlink" x="0px" y="0px"
	 width="1349.3px" height="402.7px" viewBox="0 0 1349.3 402.7" style="enable-background:new 0 0 1349.3 402.7;"
	 xml:space="preserve">
<style type="text/css">
	.st0{fill:#A3BCE3;}
	.st1{fill:#FFFFFF;}
	.st2{fill:#FEFEFE;}
	.st3{fill:#13123A;}
	.st4{fill:#12113A;}
	.st5{fill:#04032F;}
</style>
<g>
	<path class="st0" d="M1341,267.3c0,3.8,0,7.5,0,11.3c-2.3,46.8-35.1,86-83.4,92.9c-4.4,0.6-8.8,0.8-13.2,0.8
		c-68.1,0-136.2,0-204.4,0c-46,0-85.6-33.2-93.8-78.5c-5.4-29.8,0-57.5,17.8-82c15.4-21.1,36.9-32.8,62.5-37.3
		c5.9-1,11.8-1.1,17.7-1.1c68.3,0,136.6-0.3,204.9,0.2c21.7,0.2,41,8.4,57.6,22.4C1328.9,214.7,1339.2,239,1341,267.3z"/>
	<path class="st1" d="M548,249.9c0-19.2,0.1-35.5-0.1-51.8c-0.1-4.1,1.2-5.2,5.1-5c6.1,0.3,12.2,0.4,18.3,0c4.3-0.3,4.9,1.4,4.9,5.2
		c-0.1,28.7-0.2,57.4,0,86.1c0.1,12.8,2,25.2,11.6,34.8c12.3,12.3,27.5,13.3,43.1,9c14.6-4,21.8-15.2,24.6-29.6
		c0.8-4.3,1.1-8.7,1.1-13.2c-0.1-28.7,0.1-57.4-0.2-86.1c-0.1-5.4,1.6-6.5,6.5-6.2c5.7,0.4,11.6,0.3,17.3,0c3.8-0.2,4.9,0.9,4.8,4.8
		c-0.2,28.3-0.1,56.7-0.1,85c0,10.4-1,20.7-4.1,30.6c-7.5,24.2-27.3,40.1-53.1,42.4c-16.1,1.4-31.9,0.8-46.7-6.7
		c-21.8-11.1-30.6-30.2-32.6-53.3C547.2,279.6,548.4,263.2,548,249.9z"/>
	<path class="st1" d="M787.3,356.2c-23.6-0.2-44.4-8-62.7-23c-2.5-2-3.1-3.3-0.6-5.9c4.3-4.6,8.3-9.4,12.1-14.4
		c2-2.6,3.2-2.4,5.5-0.4c12.5,10.5,26.6,17.4,43.2,18.4c7.2,0.4,14.3-0.2,20.9-3.3c7.2-3.4,11.4-8.9,11.6-17.1
		c0.2-8-4.2-12.9-10.9-16.3c-8.9-4.4-18.5-6.5-28.1-8.9c-8.9-2.2-17.7-4.8-26-8.8c-24.4-11.7-32.3-42-16.6-64.2
		c10.2-14.4,25.1-20.2,42.1-21.3c21.7-1.4,41.6,4.2,59.4,17.1c3.4,2.4,3.4,4.1,1,7.1c-3.4,4.2-6.6,8.7-9.4,13.3
		c-2.1,3.4-3.6,4-7.2,1.4c-12.4-8.8-26-14.5-41.7-13.7c-5.2,0.2-10.1,1.3-14.5,4.1c-12.6,7.8-12.2,23.9,0.8,30.9
		c8.6,4.7,18.1,6.8,27.4,9.1c9.2,2.3,18.3,5,27,9.1c17.1,8.1,25.8,21.2,24.9,40.5c-0.8,18.8-9.7,32-26.5,40.1
		C809,354.9,798.3,356.3,787.3,356.2z"/>
	<path class="st1" d="M391.7,273.5c0-25.1,0.1-50.3-0.1-75.4c0-4,0.9-5.1,5-5.1c36.5,0.2,73.1,0.2,109.6,0c3.9,0,4.9,1.1,4.7,4.8
		c-0.3,5.4-0.3,10.9,0,16.3c0.2,3.9-0.8,5.1-4.9,5.1c-27-0.2-54,0-81-0.2c-4.1,0-5,1.2-4.9,5.1c0.3,11.4,0.3,22.8,0,34.1
		c-0.1,3.7,1.1,4.4,4.5,4.4c23.8-0.2,47.6,0,71.4-0.2c3.7,0,5.1,0.7,4.8,4.7c-0.4,5.7-0.3,11.6,0,17.3c0.2,3.7-1.2,4.4-4.6,4.4
		c-23.6-0.1-47.2,0-70.9-0.2c-4.2,0-5.4,1-5.3,5.3c0.2,18.5,0,37,0.2,55.5c0.1,4-1.2,4.8-4.8,4.6c-5.9-0.3-11.9-0.3-17.8,0
		c-4.4,0.3-6-0.8-6-5.7C391.8,323.5,391.7,298.5,391.7,273.5z"/>
	<path class="st2" d="M1242,183.6c49.3-1.4,89.8,36.9,89.3,89.3c-0.5,52.4-38.2,90.1-90,89.7c-53.7-0.3-88.5-39.5-88.8-89.6
		C1152.3,222.3,1191.7,182.3,1242,183.6z"/>
	<path class="st1" d="M152.8,350c-12.5-17.6-24.9-35.2-37.5-52.6c-2.1-3-2.7-4.2,1.5-5.7c28.4-9.9,38.2-35.2,31.3-62.2
		c-5.2-20.4-23-33.7-46.5-35.4c-26.3-1.9-52.6-0.4-79-0.9c-3.5-0.1-3.2,2-3.2,4.2c0,50.8,0.1,101.5-0.1,152.3c0,3.7,1.2,4.5,4.6,4.4
		c6.3-0.3,12.6-0.3,18.9,0c3.8,0.2,5.2-0.6,5.1-4.9c-0.3-15.6,0-31.2-0.2-46.9c0-3.6,1-4.6,4.5-4.5c8.5,0.3,17,0.2,25.5,0
		c3.4-0.1,5.5,0.9,7.5,3.8c11.3,16.5,23,32.8,34.4,49.2c1.3,1.9,2.5,3.2,5.2,3.2c9.8-0.2,19.7-0.1,30.5-0.1
		C154.3,352.2,153.6,351.1,152.8,350z M87.4,272.8c-11.9,0-23.8-0.1-35.7,0.1c-3.1,0-4.1-0.7-4-3.9c0.2-7.6,0.1-15.3,0.1-22.9
		c0-7.8,0.1-15.6,0-23.4c0-2.5,0.5-3.6,3.3-3.5c14.4,0.2,28.9-0.1,43.3,0.5c19.8,0.9,31.3,16.5,25.8,34.4
		c-3,9.7-10.3,14.8-19.7,17.4C96.3,272.6,91.9,272.9,87.4,272.8z"/>
	<path class="st1" d="M268.8,190.5c-45-0.8-82.4,35.1-83.3,79.9c-0.9,48.3,33.2,85.5,79,86.3c48.8,0.9,85.4-33.7,86.3-81.4
		C351.8,227.2,317.1,191.4,268.8,190.5z M299.2,320.4c-31.4,23.1-75.9,4.6-83.1-34.2c-0.8-4.4-1.3-8.7-1.2-13.1
		c0.1-26.4,16-48.5,39.1-54.5c32.6-8.5,64.3,14.2,67.1,48C323,288.2,317.3,307.1,299.2,320.4z"/>
	<path class="st3" d="M1251.7,302.8c0-18.8,0.1-37.7-0.1-56.5c0-3.5,0.5-5.5,4.6-5c5,0.6,11.7-2.1,14.5,1.1
		c2.5,2.8,0.8,9.4,0.8,14.3c0,15.4-0.1,30.9-0.2,46.3C1264.8,304.5,1258.2,304.8,1251.7,302.8z"/>
	<path class="st4" d="M1212.6,303c-0.1-19.5-0.1-39-0.2-58.5c0-2.5,0.8-3.2,3.2-3.1c5.2,0.2,11.9-1.7,15.3,0.8c3.3,2.4,1,9.5,1,14.5
		c0.1,15.4-0.1,30.9-0.2,46.3C1225.3,304.6,1219,304.6,1212.6,303z"/>
	<path class="st5" d="M1251.7,302.8c6.6,0.1,13.1,0.1,19.7,0.2c-0.1,0.5-0.1,1.4-0.3,1.4c-6.4,0.5-12.7,0.7-19.1-0.1
		C1251.2,304.2,1251.1,303.5,1251.7,302.8z"/>
	<path class="st5" d="M1212.6,303c6.4,0,12.8,0,19.1,0C1229.3,305.5,1214.9,305.5,1212.6,303z"/>
</g>
<g>
	<path class="st1" d="M185.3,27.8h19.9v53.3c0,8.5,0.2,14,0.7,16.5c0.9,4,2.9,7.3,6.1,9.7c3.2,2.4,7.6,3.7,13.1,3.7
		c5.6,0,9.9-1.2,12.8-3.5c2.9-2.3,4.6-5.1,5.2-8.5c0.6-3.4,0.9-8.9,0.9-16.7V27.8h19.9v51.7c0,11.8-0.5,20.2-1.6,25.1
		c-1.1,4.9-3.1,9-5.9,12.4c-2.9,3.4-6.8,6-11.6,8c-4.8,2-11.2,3-18.9,3c-9.4,0-16.5-1.1-21.4-3.3c-4.9-2.2-8.7-5-11.5-8.5
		c-2.8-3.5-4.7-7.1-5.6-10.9c-1.3-5.6-1.9-14-1.9-25V27.8z"/>
	<path class="st1" d="M355.6,126.3H338v-10.5c-2.9,4.1-6.3,7.1-10.3,9.1c-4,2-8,3-12,3c-8.2,0-15.2-3.3-21.1-9.9
		c-5.8-6.6-8.8-15.8-8.8-27.6c0-12.1,2.8-21.3,8.5-27.6c5.7-6.3,12.9-9.4,21.6-9.4c8,0,14.9,3.3,20.7,9.9V27.8h18.9V126.3z
		 M305.2,89.1c0,7.6,1.1,13.1,3.2,16.5c3,4.9,7.3,7.4,12.8,7.4c4.3,0,8-1.8,11.1-5.5c3-3.7,4.6-9.2,4.6-16.6
		c0-8.2-1.5-14.1-4.4-17.7c-3-3.6-6.7-5.4-11.4-5.4c-4.5,0-8.2,1.8-11.3,5.3C306.7,76.7,305.2,82,305.2,89.1z"/>
	<path class="st1" d="M421,103.6l18.8,3.2c-2.4,6.9-6.2,12.2-11.5,15.8c-5.2,3.6-11.7,5.4-19.6,5.4c-12.4,0-21.6-4.1-27.5-12.2
		c-4.7-6.5-7.1-14.7-7.1-24.6c0-11.8,3.1-21.1,9.3-27.8c6.2-6.7,14-10,23.4-10c10.6,0,19,3.5,25.1,10.5c6.1,7,9.1,17.7,8.8,32.2
		h-47.3c0.1,5.6,1.7,10,4.6,13.1c2.9,3.1,6.5,4.7,10.9,4.7c3,0,5.4-0.8,7.5-2.4C418.5,109.8,420,107.2,421,103.6z M422.1,84.5
		c-0.1-5.5-1.5-9.6-4.2-12.5c-2.7-2.8-6-4.3-9.8-4.3c-4.1,0-7.5,1.5-10.2,4.5c-2.7,3-4,7.1-4,12.2H422.1z"/>
	<path class="st1" d="M461.7,126.3V27.8h18.9v98.5H461.7z"/>
	<path class="st1" d="M552.4,126.3v-10.7c-2.6,3.8-6,6.8-10.2,9c-4.2,2.2-8.7,3.3-13.4,3.3c-4.8,0-9.1-1.1-12.9-3.2
		c-3.8-2.1-6.6-5.1-8.3-8.9c-1.7-3.8-2.6-9.1-2.6-15.8V54.9h18.9v32.8c0,10,0.3,16.2,1,18.4c0.7,2.3,2,4.1,3.8,5.4
		c1.8,1.3,4.2,2,7,2c3.2,0,6.1-0.9,8.7-2.7c2.6-1.8,4.3-4,5.2-6.6c0.9-2.6,1.4-9,1.4-19.2V54.9H570v71.4H552.4z"/>
	<path class="st1" d="M594.3,126.3V27.8h18.9v52.3l22.1-25.1h23.2L634.2,81l26.1,45.3H640l-17.9-32l-8.8,9.2v22.8H594.3z"/>
	<path class="st1" d="M786.2,126.3h-17.5v-10.5c-2.9,4.1-6.3,7.1-10.3,9.1c-4,2-8,3-12,3c-8.2,0-15.2-3.3-21.1-9.9
		c-5.8-6.6-8.8-15.8-8.8-27.6c0-12.1,2.8-21.3,8.5-27.6c5.7-6.3,12.9-9.4,21.6-9.4c8,0,14.9,3.3,20.7,9.9V27.8h18.9V126.3z
		 M735.8,89.1c0,7.6,1.1,13.1,3.2,16.5c3,4.9,7.3,7.4,12.8,7.4c4.3,0,8-1.8,11.1-5.5c3-3.7,4.6-9.2,4.6-16.6
		c0-8.2-1.5-14.1-4.4-17.7c-3-3.6-6.7-5.4-11.4-5.4c-4.5,0-8.2,1.8-11.3,5.3C737.3,76.7,735.8,82,735.8,89.1z"/>
	<path class="st1" d="M810.3,45.3V27.8h18.9v17.5H810.3z M810.3,126.3V54.9h18.9v71.4H810.3z"/>
	<path class="st1" d="M852.3,131l21.6,2.6c0.4,2.5,1.2,4.2,2.5,5.2c1.8,1.3,4.6,2,8.5,2c4.9,0,8.6-0.7,11.1-2.2
		c1.7-1,2.9-2.6,3.8-4.8c0.6-1.6,0.9-4.5,0.9-8.7v-10.4c-5.6,7.7-12.8,11.6-21.4,11.6c-9.6,0-17.2-4.1-22.8-12.2
		c-4.4-6.4-6.6-14.4-6.6-23.9c0-12,2.9-21.1,8.6-27.4c5.8-6.3,12.9-9.5,21.5-9.5c8.8,0,16.1,3.9,21.8,11.6v-10h17.7v64
		c0,8.4-0.7,14.7-2.1,18.9c-1.4,4.2-3.3,7.4-5.8,9.8c-2.5,2.4-5.9,4.2-10,5.6c-4.2,1.3-9.5,2-15.9,2c-12.1,0-20.7-2.1-25.7-6.2
		c-5.1-4.1-7.6-9.4-7.6-15.8C852.3,132.7,852.3,131.9,852.3,131z M869.2,89.1c0,7.6,1.5,13.1,4.4,16.6c2.9,3.5,6.6,5.3,10.9,5.3
		c4.6,0,8.5-1.8,11.7-5.4c3.2-3.6,4.8-8.9,4.8-16c0-7.4-1.5-12.9-4.6-16.5c-3-3.6-6.9-5.4-11.6-5.4c-4.5,0-8.3,1.8-11.2,5.3
		C870.7,76.6,869.2,81.9,869.2,89.1z"/>
	<path class="st1" d="M1007,126.3l-28.8-71.4H998l13.4,36.4l3.9,12.2c1-3.1,1.7-5.1,1.9-6.1c0.6-2,1.3-4,2-6l13.6-36.4h19.4
		l-28.4,71.4H1007z"/>
	<path class="st1" d="M1069.4,45.3V27.8h18.9v17.5H1069.4z M1069.4,126.3V54.9h18.9v71.4H1069.4z"/>
	<path class="st1" d="M1127.2,76.7l-17.1-3.1c1.9-6.9,5.2-12,9.9-15.3c4.7-3.3,11.7-5,21-5c8.4,0,14.7,1,18.8,3c4.1,2,7,4.5,8.7,7.6
		c1.7,3.1,2.5,8.7,2.5,16.9l-0.2,22c0,6.3,0.3,10.9,0.9,13.9c0.6,3,1.7,6.2,3.4,9.6h-18.7c-0.5-1.3-1.1-3.1-1.8-5.6
		c-0.3-1.1-0.5-1.9-0.7-2.2c-3.2,3.1-6.7,5.5-10.3,7.1c-3.7,1.6-7.6,2.4-11.8,2.4c-7.3,0-13.1-2-17.4-6c-4.2-4-6.3-9-6.3-15.1
		c0-4,1-7.6,2.9-10.8c1.9-3.2,4.6-5.6,8.1-7.3c3.5-1.7,8.5-3.1,15-4.4c8.8-1.7,14.9-3.2,18.3-4.6v-1.9c0-3.6-0.9-6.2-2.7-7.8
		c-1.8-1.5-5.2-2.3-10.1-2.3c-3.4,0-6,0.7-7.9,2C1129.9,71.1,1128.4,73.4,1127.2,76.7z M1152.5,92c-2.4,0.8-6.2,1.8-11.5,2.9
		c-5.2,1.1-8.7,2.2-10.3,3.3c-2.5,1.7-3.7,4-3.7,6.7c0,2.6,1,4.9,3,6.9c2,1.9,4.5,2.9,7.5,2.9c3.4,0,6.7-1.1,9.7-3.4
		c2.3-1.7,3.8-3.8,4.5-6.2c0.5-1.6,0.7-4.7,0.7-9.2V92z"/>
</g>
</svg>
