<?xml version="1.0" encoding="utf-8"?>
<!-- Generator: Adobe Illustrator 27.8.1, SVG Export Plug-In . SVG Version: 6.00 Build 0)  -->
<svg version="1.1" id="Layer_1" xmlns="http://www.w3.org/2000/svg" xmlns:xlink="http://www.w3.org/1999/xlink" x="0px" y="0px"
	 width="40px" height="21.6px" viewBox="0 0 40 21.6" style="enable-background:new 0 0 40 21.6;" xml:space="preserve">
<style type="text/css">
	.st0{fill:#FFFFFF;}
	.st1{fill:#96B4DC;}
</style>
<g id="Layer_2_00000134217379258663323990000009207240685298933663_">
	<g id="Layer_1-2">
		<path class="st0" d="M2.1,5.7C1.2,5.1,0.7,4.3,0.7,3.3c0-1.7,1.3-2.6,2.7-2.6C5,0.7,6,1.8,6,3.4v0.3H4.2V3.4c0-0.5-0.3-1-0.9-1
			c-0.4,0-0.7,0.3-0.8,0.7c0,0,0,0.1,0,0.1c0,0.6,0.3,0.8,0.9,1.3l1.3,1C5.5,6,6.1,6.7,6.1,7.7c0,1.7-1.3,2.7-2.7,2.7
			s-2.7-1-2.7-2.6V7.3h1.8v0.4c0,0.5,0.3,1,0.9,1c0,0,0,0,0.1,0c0.5,0,0.8-0.4,0.8-0.9c0-0.5-0.2-0.7-0.7-1.1L2.1,5.7z"/>
		<path class="st0" d="M9.2,10.2c-1.4,0-2-0.6-2-2V4.9H6.3V3.3h0.9V1.7H9v1.6H10v1.6H9V8c0,0.5,0.1,0.7,0.6,0.7h0.4v1.6H9.2z"/>
		<path class="st0" d="M14,5.7c0-0.5-0.4-0.8-0.8-0.8c-0.5,0-0.8,0.4-0.8,0.8c0,0,0,0,0,0v2.2c0,0.5,0.4,0.8,0.8,0.8
			c0.5,0,0.8-0.4,0.8-0.8c0,0,0,0,0,0V5.7z M15.8,7.8c0,1.6-1.1,2.5-2.6,2.5s-2.6-1-2.6-2.5V5.8c0-1.6,1.1-2.6,2.6-2.6
			s2.6,1,2.6,2.6L15.8,7.8z"/>
		<path class="st0" d="M20.1,5.9c0-0.7-0.3-1.1-0.8-1.1c-0.5,0-0.9,0.4-0.9,1.1v1.9c0,0.6,0.2,1,0.8,1c0.5,0,0.9-0.4,0.9-0.9
			L20.1,5.9z M16.6,10.6V3.3h1.7v0.5c0.4-0.4,0.9-0.6,1.5-0.6c1.4,0,2.1,1,2.1,2.5v2.1c0,1.5-0.8,2.5-2.2,2.5c-0.5,0-1-0.2-1.3-0.5
			v0.8H16.6z"/>
		<path class="st1" d="M14.3,13.4c0-0.4-0.4-0.8-0.8-0.7c-0.5,0-0.7,0.2-0.7,0.5c0,1.1,3.4,0.4,3.4,2.9c0,1.5-1.3,2.2-2.7,2.2
			c-1.3,0-2.6-0.6-2.6-2.3h1.8c0,0.5,0.4,0.8,0.8,0.8c0,0,0.1,0,0.1,0c0.4,0,0.8-0.2,0.8-0.6c0-1.2-3.4-0.4-3.4-2.9
			c0-1.4,1-2.2,2.6-2.2c1.1,0,2.3,0.5,2.4,2.2L14.3,13.4z"/>
		<rect x="22.6" y="11.3" class="st1" width="1.8" height="6.9"/>
		<rect x="25.2" y="8.8" class="st1" width="1.8" height="9.4"/>
		<rect x="27.9" y="8.8" class="st1" width="1.8" height="9.4"/>
		<path class="st1" d="M33.8,13.7c0-0.6-0.3-0.9-0.8-0.9c-0.5,0-0.8,0.3-0.8,0.9V14h1.7V13.7z M32.1,15.2v0.6c0,0.6,0.3,0.8,0.9,0.8
			c0.7,0,0.9-0.3,0.9-0.7h1.7c0,1.6-1.1,2.4-2.6,2.4c-1.5,0-2.6-1-2.6-2.5v-2.1c0-1.6,1.1-2.6,2.7-2.6c1.5,0,2.6,1,2.6,2.5v1.5
			L32.1,15.2z"/>
		<path class="st1" d="M38.7,18.2c-1.4,0-2-0.6-2-2v-3.3h-0.9v-1.6h0.9V9.7h1.8v1.6h1.1v1.6h-1.1V16c0,0.5,0.1,0.7,0.6,0.7h0.4v1.6
			H38.7z"/>
		<path class="st0" d="M22.5,9.3c0-0.6,0.5-1,1-1c0.6,0,1,0.5,1,1c0,0.6-0.5,1-1,1c0,0,0,0,0,0C22.9,10.4,22.5,9.9,22.5,9.3"/>
		<path class="st1" d="M20.1,13.9c0-0.7-0.3-1.1-0.8-1.1c-0.5,0-0.9,0.4-0.9,1.1v1.9c0,0.6,0.2,1,0.8,1c0.5,0,0.9-0.4,0.9-0.9V13.9z
			 M16.6,20.8v-9.5h1.8v0.5c0.3-0.4,0.8-0.6,1.4-0.6c1.4,0,2.1,1,2.1,2.5v2.1c0,1.5-0.8,2.5-2.2,2.5c-0.5,0-1-0.2-1.3-0.5v3H16.6z"
			/>
	</g>
</g>
</svg>
