<svg width="26" height="26" viewBox="0 0 26 26" fill="none" xmlns="http://www.w3.org/2000/svg">
    <path d="M24.8025 12.9265C24.8025 6.46144 19.6318 1.22143 13.2515 1.22143M19.0278 12.9265C19.0278 9.69474 16.4417 7.07319 13.2531 7.07319M5.76353 10.2632C6.91909 17.0434 11.1968 19.77 15.918 20.3138L16.9175 18.0321C17.2496 17.2782 18.0313 16.8364 18.8378 16.9492L23.4183 17.5841C24.6249 17.751 25.3355 19.044 24.8411 20.1732L23.0707 24.2129C22.8282 24.7613 22.2612 25.061 21.7035 24.9822C21.7035 24.9822 1.44098 26.3772 1.02077 4.44083C1.01768 4.29098 1.01614 4.14113 1.01459 3.98819C1.08102 3.55565 1.35601 3.16481 1.7793 2.97634L5.80833 1.16273C6.93454 0.656026 8.22605 1.38518 8.3929 2.62258L9.02629 7.31573C9.13598 8.14066 8.69569 8.94242 7.94334 9.28228L5.76198 10.2632H5.76353ZM1.02232 4.44083C0.99451 4.28943 0.992965 4.1365 1.01614 3.98819C1.01614 4.13959 1.01923 4.29098 1.02232 4.44083Z" stroke="#B89A54" stroke-width="2" stroke-linecap="round" stroke-linejoin="round"/>
</svg>
