<svg width="44" height="44" viewBox="0 0 44 44" fill="none" xmlns="http://www.w3.org/2000/svg">
    <path id="325-cookies" d="M21.9652 42C21.8105 41.5848 21.7279 41.1361 21.7279 40.6668C21.7279 38.5186 23.4686 36.7753 25.6168 36.7753C27.7649 36.7753 29.4412 38.4516 29.5056 40.543M3.76907 13.7646C5.57682 14.0972 6.94617 15.6806 6.94617 17.5864C6.94617 19.7345 5.20547 21.4778 3.05731 21.4778C2.69628 21.4778 2.34556 21.4288 2.01289 21.3334M42 22.0013C42 33.0464 33.0464 42 21.9987 42C10.9511 42 2 33.0464 2 22.0013C2 19.3889 2.50029 16.8927 3.41061 14.6052C4.27194 12.4416 5.49945 10.4637 7.01837 8.74876C10.6829 4.60976 16.0365 2 22.0013 2C22.6279 2 23.2469 2.02837 23.858 2.0851C23.5486 2.60086 23.3706 3.20431 23.3706 3.84901C23.3706 5.69544 24.8277 7.20147 26.6561 7.27626C25.6452 7.93385 24.9747 9.07627 24.9747 10.3734C24.9747 12.4133 26.6277 14.0689 28.6675 14.0689C29.2658 14.0689 29.828 13.927 30.3257 13.6743C30.0188 14.2158 29.8409 14.8373 29.8409 15.5053C29.8409 17.5451 31.4939 19.1981 33.5337 19.1981C34.5704 19.1981 35.5091 18.7726 36.177 18.0841C36.1461 18.2749 36.1306 18.4683 36.1306 18.6669C36.1306 20.7067 37.7836 22.3597 39.8235 22.3597C40.6384 22.3597 41.3888 22.0967 41.9974 21.6532C41.9974 21.7692 42 21.8878 42 22.0039V22.0013ZM21.2741 15.2706C21.2741 17.1762 19.7292 18.721 17.8236 18.721C15.918 18.721 14.3732 17.1762 14.3732 15.2706C14.3732 13.3649 15.918 11.8201 17.8236 11.8201C19.7292 11.8201 21.2741 13.3649 21.2741 15.2706ZM16.8566 30.5862C16.8566 32.4918 15.3117 34.0366 13.4061 34.0366C11.5005 34.0366 9.95564 32.4918 9.95564 30.5862C9.95564 28.6805 11.5005 27.1357 13.4061 27.1357C15.3117 27.1357 16.8566 28.6805 16.8566 30.5862ZM31.628 27.1357C31.628 29.7948 29.4724 31.9504 26.8134 31.9504C24.1543 31.9504 21.9987 29.7948 21.9987 27.1357C21.9987 24.4767 24.1543 22.3211 26.8134 22.3211C29.4724 22.3211 31.628 24.4767 31.628 27.1357Z" stroke="#FDB645" stroke-width="2.5" stroke-linecap="round" stroke-linejoin="round"/>
</svg>
