<?xml version="1.0" encoding="utf-8"?>
<!-- Generator: Adobe Illustrator 27.7.0, SVG Export Plug-In . SVG Version: 6.00 Build 0)  -->
<svg version="1.1" id="Layer_1" xmlns="http://www.w3.org/2000/svg" xmlns:xlink="http://www.w3.org/1999/xlink" x="0px" y="0px"
	 width="2016.6px" height="2000px" viewBox="0 0 2016.6 2000" style="enable-background:new 0 0 2016.6 2000;" xml:space="preserve"
	>
<style type="text/css">
	.st0{fill:#FFFFFF;}
	.st1{fill:#009DE2;}
</style>
<circle class="st0" cx="1015.8" cy="1019.9" r="647.2"/>
<g>
	<path class="st1" d="M1012.3,51.1c-520.9,0-944.7,423.8-944.7,944.7c0,520.9,423.8,944.7,944.7,944.7S1957,1516.8,1957,995.9
		C1957,474.9,1533.2,51.1,1012.3,51.1z M1012.3,437.3c67.7,0,122.6,54.9,122.6,122.6c0,67.7-54.9,122.6-122.6,122.6
		c-67.7,0-122.6-54.9-122.6-122.6C889.7,492.2,944.6,437.3,1012.3,437.3z M1195.7,1554.4H828.8v-201h83.3V951.3h-83.3V750.2h284.3
		v603.2h82.6V1554.4z"/>
</g>
</svg>
