<?xml version="1.0" encoding="UTF-8"?>
<svg id="Layer_1" data-name="Layer 1" xmlns="http://www.w3.org/2000/svg" width="23.54" height="27.38" viewBox="0 0 23.54 27.38">
  <defs>
    <style>
      .cls-1 {
        fill: none;
        stroke: #b89a54;
        stroke-linecap: round;
        stroke-linejoin: round;
        stroke-width: 2px;
      }
    </style>
  </defs>
  <path class="cls-1" d="M2.99,10.3v-.68C2.99,4.86,6.92,1,11.77,1s8.78,3.86,8.78,8.63v.68M8.44,6c.8-.92,2-1.5,3.34-1.5s2.5.57,3.3,1.47M2.99,17.08v.32c0,3.31,2.25,5.87,6.38,6.55M4.98,9.78c-2.2,0-3.98,1.75-3.98,3.91s1.78,3.91,3.98,3.91v-7.83ZM18.56,9.78c2.2,0,3.98,1.75,3.98,3.91s-1.78,3.91-3.98,3.91v-7.83ZM13.96,24.12c0,1.25-1.03,2.26-2.3,2.26s-2.3-1.01-2.3-2.26,1.03-2.26,2.3-2.26,2.3,1.01,2.3,2.26Z"/>
</svg>