<svg width="248" height="267" viewBox="0 0 248 267" fill="none" xmlns="http://www.w3.org/2000/svg">
    <path fill-rule="evenodd" clip-rule="evenodd" d="M204.532 20.232C204.532 8.21935 196.753 2.36785 187.172 7.17132L28.985 86.4855C19.4038 91.289 11.6248 104.943 11.6248 116.955V252.26C11.6248 264.272 19.4038 270.124 28.985 265.32L187.172 186.006C196.753 181.203 204.532 167.549 204.532 155.536V20.232Z" fill="#97C3E8"/>
    <path fill-rule="evenodd" clip-rule="evenodd" d="M14.7174 120.359C14.7174 120.359 12.3161 215.539 11.6248 252.26V116.955C11.6248 104.943 19.4038 91.289 28.985 86.4855L187.172 7.17132C193.626 3.9346 199.26 5.53311 202.252 10.5907C199.136 8.42049 194.911 8.24317 190.264 10.5748L32.0776 89.889C22.4963 94.6925 14.7174 108.346 14.7174 120.359Z" fill="#E9F1FA"/>
    <path fill-rule="evenodd" clip-rule="evenodd" d="M112.588 181.526C112.588 174.986 108.353 171.799 103.136 174.417L44.3978 203.865C39.1811 206.48 34.9459 213.914 34.9459 220.454V225.231C34.9459 231.77 39.1811 234.957 44.3978 232.339L103.136 202.891C108.353 200.276 112.588 192.842 112.588 186.303V181.526Z" fill="#73AADC"/>
    <path fill-rule="evenodd" clip-rule="evenodd" d="M177.118 41.0656C177.839 42.0131 178.258 43.3893 178.258 45.0989V65.3926C178.258 69.8917 175.345 75.0022 171.756 76.8019L38.495 143.63C37.6453 144.056 36.8326 144.26 36.0832 144.252C35.3628 143.304 34.9433 141.928 34.9433 140.218V119.925C34.9433 115.425 37.8564 110.315 41.4451 108.515L174.706 41.6875C175.556 41.2614 176.369 41.0577 177.118 41.0656Z" fill="#5781A7"/>
    <path fill-rule="evenodd" clip-rule="evenodd" d="M177.118 87.2425C177.839 88.1899 178.258 89.5661 178.258 91.2758V111.569C178.258 116.066 175.345 121.179 171.756 122.979L38.495 189.807C37.6453 190.233 36.8326 190.436 36.0832 190.428C35.3628 189.481 34.9433 188.105 34.9433 186.395V166.101C34.9433 161.602 37.8564 156.492 41.4451 154.692L174.706 87.8644C175.556 87.4383 176.369 87.2345 177.118 87.2425Z" fill="#5781A7"/>
    <path fill-rule="evenodd" clip-rule="evenodd" d="M149.778 204.754C149.625 204.529 149.477 204.299 149.332 204.069C138.616 187.062 143.261 121.846 143.261 121.846C160.299 112.66 174.604 96.2725 186.697 74.0653C192.172 78.6306 198.101 81.5471 204.535 82.6375V155.539C204.535 167.552 196.756 181.205 187.174 186.009L149.781 204.757L149.778 204.754Z" fill="#73AADC"/>
    <path fill-rule="evenodd" clip-rule="evenodd" d="M177.857 88.6504C178.118 89.3994 178.261 90.2807 178.261 91.2758V111.569C178.261 116.066 175.348 121.179 171.759 122.979L142.506 137.649C142.801 128.285 143.261 121.843 143.261 121.843C156.32 114.804 167.774 103.529 177.857 88.6478V88.6504Z" fill="#375672"/>
    <path fill-rule="evenodd" clip-rule="evenodd" d="M18.1504 265.99L7.19961 260.498C3.2204 258.503 0.671387 253.646 0.671387 246.768V111.464C0.671387 99.4509 8.45037 85.7973 18.0343 80.9939L176.221 1.67965C180.316 -0.374068 184.084 -0.47993 187.053 1.01007L198.004 6.50165C195.033 5.01164 191.267 5.11761 187.172 7.17132L28.985 86.4855C19.4038 91.289 11.6248 104.943 11.6248 116.955V252.26C11.6248 259.138 14.1738 263.994 18.153 265.99H18.1504Z" fill="#CEE3F6"/>
    <path fill-rule="evenodd" clip-rule="evenodd" d="M123.961 187.229C123.961 180.689 119.726 177.503 114.509 180.118L55.7708 209.566C50.554 212.18 46.3188 219.615 46.3188 226.154V230.931C46.3188 237.471 50.554 240.657 55.7708 238.04L114.509 208.592C119.726 205.977 123.961 198.543 123.961 192.003V187.229Z" fill="#C6DF96"/>
    <path fill-rule="evenodd" clip-rule="evenodd" d="M49.8732 238.405L43.9123 235.414C41.7459 234.329 40.3579 231.683 40.3579 227.941V223.166C40.3579 216.627 44.5931 209.192 49.8099 206.578L108.548 177.13C110.778 176.013 112.828 175.955 114.446 176.764L120.407 179.755C118.789 178.945 116.739 179.001 114.509 180.12L55.7708 209.568C50.554 212.183 46.3188 219.617 46.3188 226.157V230.934C46.3188 234.679 47.7068 237.323 49.8732 238.408V238.405Z" fill="#9ECA63"/>
    <path fill-rule="evenodd" clip-rule="evenodd" d="M202.756 83.4156C199.566 81.9467 196.516 79.9803 193.592 77.5429C181.509 99.7341 167.218 116.106 150.195 125.286C150.195 125.286 145.556 190.447 156.259 207.438C161.948 216.47 170.173 220.615 176.245 222.51C172.194 219.736 168.527 216.365 165.972 212.307C155.267 195.314 159.906 130.154 159.906 130.154C176.672 121.113 190.789 105.096 202.756 83.4129V83.4156Z" fill="#F7A6A3"/>
    <path fill-rule="evenodd" clip-rule="evenodd" d="M246.704 86.6285L236.991 81.7562C225.713 86.9884 215.633 87.8591 206.603 84.9241C217.918 92.7393 231.088 93.8085 246.504 86.7211L246.704 86.6285Z" fill="#FBCED0"/>
    <path fill-rule="evenodd" clip-rule="evenodd" d="M203.305 233.633C203.263 233.625 176.018 228.258 165.972 212.31C155.267 195.317 159.906 130.156 159.906 130.156C176.931 120.978 191.222 104.604 203.305 82.4152C215.388 92.4879 229.679 94.5257 246.704 86.6285C246.704 86.6285 251.343 147.136 240.64 174.864C230.595 200.888 203.35 233.58 203.308 233.633H203.305Z" fill="#F1595F"/>
    <path fill-rule="evenodd" clip-rule="evenodd" d="M203.506 147.102L212.923 130.685C215.441 126.295 219.531 124.244 222.051 126.11C224.568 127.973 224.568 133.051 222.051 137.442L212.633 153.859L222.051 160.83C224.568 162.693 224.568 167.771 222.051 172.162C219.533 176.553 215.443 178.604 212.923 176.738L203.506 169.767L194.088 186.183C191.571 190.574 187.481 192.625 184.961 190.759C182.443 188.896 182.443 183.817 184.961 179.429L194.378 163.013L184.961 156.042C182.443 154.179 182.443 149.1 184.961 144.712C187.478 140.322 191.568 138.27 194.088 140.136L203.506 147.107V147.102Z" fill="#A93C41"/>
    <path fill-rule="evenodd" clip-rule="evenodd" d="M203.305 82.4152C203.305 82.4152 197.737 79.7104 193.592 77.5429C181.517 99.7209 167.236 116.087 150.195 125.286L159.908 130.156C176.868 121.012 191.114 104.733 203.165 82.6745L203.308 82.4152H203.305Z" fill="#FBCED0"/>
    <path fill-rule="evenodd" clip-rule="evenodd" d="M210.403 150.561L219.821 134.144C222.338 129.754 226.428 127.703 228.948 129.569C231.468 131.432 231.468 136.51 228.948 140.901L219.531 157.318L228.948 164.289C231.468 166.152 231.468 171.23 228.948 175.621C226.431 180.012 222.341 182.063 219.821 180.197L210.403 173.226L200.986 189.642C198.466 194.033 194.378 196.084 191.858 194.218C189.341 192.355 189.341 187.276 191.858 182.888L201.276 166.472L191.858 159.501C189.341 157.638 189.341 152.559 191.858 148.171C194.376 143.781 198.466 141.729 200.986 143.595L210.403 150.566V150.561Z" fill="#CEE3F6"/>
    <path fill-rule="evenodd" clip-rule="evenodd" d="M192.333 194.512L187.897 192.286C187.71 192.194 187.531 192.085 187.356 191.958C184.839 190.095 184.839 185.016 187.356 180.628L196.774 164.212L187.356 157.241C184.839 155.378 184.839 150.299 187.356 145.911C189.668 141.883 193.302 139.824 195.832 140.951C195.927 140.994 196.019 141.041 196.112 141.092L200.286 143.188C197.758 142.108 194.157 144.164 191.861 148.169C189.343 152.559 189.343 157.635 191.861 159.498L201.278 166.469L191.861 182.886C189.343 187.276 189.343 192.353 191.861 194.216C192.014 194.329 192.172 194.427 192.336 194.512H192.333ZM209.97 173.978L210.403 173.223L219.821 180.194C219.897 180.25 219.974 180.303 220.05 180.35L215.886 178.278C215.689 178.183 215.499 178.069 215.317 177.934L209.968 173.978H209.97ZM206.332 147.549L215.317 131.887C217.67 127.785 221.396 125.723 223.929 126.994L228.434 129.251C225.9 127.981 222.175 130.04 219.821 134.144L210.403 150.561L206.332 147.549Z" fill="#97C3E8"/>
    <path fill-rule="evenodd" clip-rule="evenodd" d="M164.439 209.447C157.679 187.385 160.288 167.409 160.827 130.656C180.285 118.482 193.518 101.708 203.326 82.4046C191.887 102.643 177.799 118.914 159.864 129.428L150.169 125.31L159.061 130.691C158.951 163.016 156.911 191.458 164.439 209.447Z" fill="#FEF0F0"/>
</svg>
