<?xml version="1.0" standalone="no"?>
<!DOCTYPE svg PUBLIC "-//W3C//DTD SVG 20010904//EN"
 "http://www.w3.org/TR/2001/REC-SVG-20010904/DTD/svg10.dtd">
<svg version="1.0" xmlns="http://www.w3.org/2000/svg"
 width="260.000000pt" height="260.000000pt" viewBox="0 0 260.000000 260.000000"
 preserveAspectRatio="xMidYMid meet">
<metadata>
Created by potrace 1.11, written by Peter Selinger 2001-2013
</metadata>
<g transform="translate(0.000000,260.000000) scale(0.100000,-0.100000)"
fill="#000000" stroke="none">
<path d="M181 2388 c11 -40 25 -78 31 -85 6 -7 7 -13 3 -13 -4 0 -1 -7 6 -17
8 -9 13 -19 13 -22 -2 -8 4 -24 37 -106 16 -38 29 -74 29 -78 0 -5 6 -23 14
-40 8 -18 38 -93 66 -167 47 -126 58 -153 82 -205 5 -12 10 -27 12 -35 2 -8 9
-28 16 -45 6 -16 22 -57 35 -90 13 -33 28 -73 35 -90 6 -16 11 -30 10 -30 0 0
17 -45 40 -99 22 -55 40 -105 40 -113 0 -7 4 -13 10 -13 5 0 7 -7 4 -15 -4 -8
-2 -15 3 -15 5 0 10 -6 11 -12 1 -12 79 -223 102 -275 17 -38 46 -113 116
-298 4 -11 6 -23 6 -27 -1 -5 3 -8 10 -8 6 0 9 -3 5 -6 -3 -4 0 -19 9 -35 8
-16 15 -32 15 -36 1 -5 6 -21 13 -38 7 -16 30 -76 51 -133 l38 -102 245 2 244
3 79 195 c43 107 79 196 80 198 1 1 2 5 4 10 3 11 16 45 30 77 12 28 41 99 69
170 57 148 132 331 136 335 3 3 6 10 7 15 2 11 97 253 114 290 13 29 120 298
123 310 2 6 10 26 19 45 18 43 87 211 91 225 2 6 8 21 13 35 12 27 70 172 83
205 4 11 8 23 9 28 0 4 7 20 15 35 8 15 21 53 29 85 l15 57 -275 -2 -275 -3
-48 -117 c-26 -65 -45 -118 -42 -118 2 0 0 -6 -6 -12 -5 -7 -35 -78 -67 -158
-55 -141 -65 -165 -84 -212 -53 -125 -69 -167 -64 -172 4 -3 1 -6 -6 -6 -7 0
-10 -4 -6 -9 3 -5 2 -12 -2 -14 -7 -4 -118 253 -118 273 0 3 -3 10 -6 15 -4 6
-23 53 -44 105 -20 52 -43 109 -50 125 -7 17 -28 68 -45 115 -18 47 -39 99
-47 117 -8 17 -16 40 -17 50 -3 17 -18 18 -219 21 -120 1 -217 1 -217 -2 0 -7
71 -189 91 -233 10 -23 19 -48 19 -55 0 -8 4 -18 8 -23 4 -6 23 -48 41 -95 18
-47 38 -98 46 -115 35 -82 67 -162 71 -179 2 -10 8 -24 15 -32 6 -8 9 -14 6
-14 -5 0 7 -31 52 -135 5 -11 17 -40 26 -65 9 -25 22 -56 28 -70 5 -14 11 -29
13 -35 4 -16 94 -237 111 -273 15 -31 14 -37 -14 -108 l-29 -76 -57 149 c-31
81 -62 162 -68 178 -7 17 -13 32 -14 35 -1 3 -5 14 -10 25 -4 11 -28 72 -52
135 -25 63 -48 124 -53 135 -5 11 -82 208 -171 438 l-163 417 -272 0 -273 0
20 -72z"/>
</g>
</svg>
