<svg width="248" height="267" viewBox="0 0 248 267" fill="none" xmlns="http://www.w3.org/2000/svg">
    <path fill-rule="evenodd" clip-rule="evenodd" d="M204.532 20.232C204.532 8.21935 196.753 2.36785 187.172 7.17132L28.985 86.4855C19.4038 91.289 11.6248 104.943 11.6248 116.955V252.26C11.6248 264.272 19.4038 270.124 28.985 265.32L187.172 186.006C196.753 181.203 204.532 167.549 204.532 155.536V20.232Z" fill="#97C3E8"/>
    <path fill-rule="evenodd" clip-rule="evenodd" d="M14.7174 120.359C14.7174 120.359 12.3161 215.539 11.6248 252.26V116.955C11.6248 104.943 19.4038 91.289 28.985 86.4855L187.172 7.17132C193.626 3.9346 199.26 5.53311 202.252 10.5907C199.136 8.42049 194.911 8.24317 190.264 10.5748L32.0776 89.889C22.4963 94.6925 14.7174 108.346 14.7174 120.359Z" fill="#E9F1FA"/>
    <path fill-rule="evenodd" clip-rule="evenodd" d="M112.588 181.526C112.588 174.986 108.353 171.799 103.136 174.417L44.3978 203.865C39.1811 206.48 34.9459 213.914 34.9459 220.454V225.231C34.9459 231.77 39.1811 234.957 44.3978 232.339L103.136 202.891C108.353 200.276 112.588 192.842 112.588 186.303V181.526Z" fill="#73AADC"/>
    <path fill-rule="evenodd" clip-rule="evenodd" d="M177.118 41.0656C177.839 42.0131 178.258 43.3893 178.258 45.0989V65.3926C178.258 69.8917 175.345 75.0022 171.756 76.8019L38.495 143.63C37.6453 144.056 36.8326 144.26 36.0832 144.252C35.3628 143.304 34.9433 141.928 34.9433 140.218V119.925C34.9433 115.425 37.8564 110.315 41.4451 108.515L174.706 41.6875C175.556 41.2614 176.369 41.0577 177.118 41.0656Z" fill="#5781A7"/>
    <path fill-rule="evenodd" clip-rule="evenodd" d="M177.118 87.2425C177.839 88.1899 178.258 89.5661 178.258 91.2758V111.569C178.258 116.066 175.345 121.179 171.756 122.979L38.495 189.807C37.6453 190.233 36.8326 190.436 36.0832 190.428C35.3628 189.481 34.9433 188.105 34.9433 186.395V166.101C34.9433 161.602 37.8564 156.492 41.4451 154.692L174.706 87.8644C175.556 87.4383 176.369 87.2345 177.118 87.2425Z" fill="#5781A7"/>
    <path fill-rule="evenodd" clip-rule="evenodd" d="M149.778 204.754C149.625 204.529 149.477 204.299 149.332 204.069C138.616 187.062 143.261 121.846 143.261 121.846C160.299 112.66 174.604 96.2725 186.697 74.0653C192.172 78.6306 198.101 81.5471 204.535 82.6375V155.539C204.535 167.552 196.756 181.205 187.174 186.009L149.781 204.757L149.778 204.754Z" fill="#73AADC"/>
    <path fill-rule="evenodd" clip-rule="evenodd" d="M177.857 88.6504C178.118 89.3994 178.261 90.2807 178.261 91.2758V111.569C178.261 116.066 175.348 121.179 171.759 122.979L142.506 137.649C142.801 128.285 143.261 121.843 143.261 121.843C156.32 114.804 167.774 103.529 177.857 88.6478V88.6504Z" fill="#375672"/>
    <path fill-rule="evenodd" clip-rule="evenodd" d="M18.1504 265.99L7.19961 260.498C3.2204 258.503 0.671387 253.646 0.671387 246.768V111.464C0.671387 99.4509 8.45037 85.7973 18.0343 80.9939L176.221 1.67965C180.316 -0.374068 184.084 -0.47993 187.053 1.01007L198.004 6.50165C195.033 5.01164 191.267 5.11761 187.172 7.17132L28.985 86.4855C19.4038 91.289 11.6248 104.943 11.6248 116.955V252.26C11.6248 259.138 14.1738 263.994 18.153 265.99H18.1504Z" fill="#CEE3F6"/>
    <path fill-rule="evenodd" clip-rule="evenodd" d="M123.961 187.229C123.961 180.689 119.726 177.503 114.509 180.118L55.7708 209.566C50.554 212.18 46.3188 219.615 46.3188 226.154V230.931C46.3188 237.471 50.554 240.657 55.7708 238.04L114.509 208.592C119.726 205.977 123.961 198.543 123.961 192.003V187.229Z" fill="#C6DF96"/>
    <path fill-rule="evenodd" clip-rule="evenodd" d="M49.8732 238.405L43.9123 235.414C41.7459 234.329 40.3579 231.683 40.3579 227.941V223.166C40.3579 216.627 44.5931 209.192 49.8099 206.578L108.548 177.13C110.778 176.013 112.828 175.955 114.446 176.764L120.407 179.755C118.789 178.945 116.739 179.001 114.509 180.12L55.7708 209.568C50.554 212.183 46.3188 219.617 46.3188 226.157V230.934C46.3188 234.679 47.7068 237.323 49.8732 238.408V238.405Z" fill="#9ECA63"/>
    <path fill-rule="evenodd" clip-rule="evenodd" d="M202.756 83.4156C199.566 81.9467 196.516 79.9803 193.592 77.5429C181.509 99.7341 167.218 116.106 150.195 125.286C150.195 125.286 145.556 190.447 156.259 207.438C161.948 216.47 170.173 220.615 176.245 222.51C172.194 219.736 168.527 216.365 165.972 212.307C155.267 195.314 159.906 130.154 159.906 130.154C176.672 121.113 190.789 105.096 202.756 83.4129V83.4156Z" fill="#BEDC8C"/>
    <path fill-rule="evenodd" clip-rule="evenodd" d="M246.704 86.6285L236.991 81.7562C225.713 86.9884 215.633 87.8591 206.603 84.9241C217.918 92.7393 231.088 93.8085 246.504 86.7211L246.704 86.6285Z" fill="#DDEAB4"/>
    <path fill-rule="evenodd" clip-rule="evenodd" d="M203.305 233.633C203.263 233.625 176.018 228.258 165.972 212.31C155.267 195.317 159.906 130.156 159.906 130.156C176.931 120.978 191.222 104.604 203.305 82.4152C215.388 92.4879 229.679 94.5257 246.704 86.6285C246.704 86.6285 251.343 147.136 240.64 174.864C230.595 200.888 203.35 233.58 203.308 233.633H203.305Z" fill="#9ECA63"/>
    <path fill-rule="evenodd" clip-rule="evenodd" d="M224.262 122.717C225.217 120.658 226.705 118.895 228.378 118.056C231.257 116.614 233.592 118.453 233.592 122.166C233.592 123.722 233.183 125.361 232.495 126.845C232.307 127.248 232.102 127.639 231.877 128.012L199.817 188.6C198.859 190.574 197.413 192.255 195.793 193.064C194.278 193.824 192.911 193.673 191.958 192.818V192.816L191.94 192.8L176.158 178.49C175.965 178.352 175.786 178.191 175.622 178.006C174.925 177.212 174.511 175.978 174.511 174.414C174.511 170.704 176.846 166.52 179.725 165.075C181.198 164.336 182.528 164.458 183.475 165.249C183.538 165.302 183.599 165.358 183.657 165.416L195.824 176.428L224.264 122.717H224.262Z" fill="#709347"/>
    <path fill-rule="evenodd" clip-rule="evenodd" d="M203.305 82.4152C203.305 82.4152 197.737 79.7104 193.592 77.5429C181.517 99.7209 167.236 116.087 150.195 125.286L159.908 130.156C176.868 121.012 191.114 104.733 203.165 82.6745L203.308 82.4152H203.305Z" fill="#DDEAB4"/>
    <path fill-rule="evenodd" clip-rule="evenodd" d="M233.445 127.322C234.4 125.263 235.888 123.5 237.561 122.661C240.44 121.219 242.775 123.058 242.775 126.771C242.775 128.327 242.366 129.966 241.677 131.45C241.49 131.853 241.284 132.244 241.06 132.617L208.999 193.205C208.042 195.179 206.596 196.86 204.975 197.669C203.461 198.429 202.094 198.278 201.141 197.423V197.421L201.123 197.405L185.341 183.095C185.148 182.957 184.968 182.796 184.805 182.611C184.108 181.817 183.694 180.583 183.694 179.019C183.694 175.309 186.029 171.125 188.908 169.68C190.38 168.941 191.71 169.063 192.658 169.854C192.721 169.907 192.782 169.963 192.84 170.021L205.007 181.033L233.447 127.322H233.445Z" fill="#CEE3F6"/>
    <path fill-rule="evenodd" clip-rule="evenodd" d="M201.775 197.863L196.864 195.401C196.637 195.288 196.423 195.142 196.228 194.965V194.962L196.209 194.946L180.427 180.636C180.235 180.499 180.055 180.337 179.892 180.152C179.195 179.358 178.781 178.125 178.781 176.561C178.781 172.85 181.116 168.666 183.995 167.221C185.238 166.596 186.38 166.586 187.277 167.075L191.922 169.41C191.069 169.055 190.027 169.119 188.905 169.682C186.027 171.125 183.691 175.309 183.691 179.022C183.691 180.586 184.106 181.819 184.802 182.613C184.966 182.799 185.145 182.963 185.338 183.098L201.12 197.407L201.139 197.423V197.426C201.334 197.601 201.548 197.746 201.775 197.86V197.863ZM200.803 177.233L228.534 124.86C229.489 122.801 230.977 121.039 232.65 120.2C233.854 119.596 234.965 119.567 235.849 120.009L240.759 122.471C239.875 122.029 238.767 122.055 237.561 122.661C235.888 123.5 234.4 125.263 233.445 127.322L205.004 181.033L200.803 177.233Z" fill="#97C3E8"/>
    <path fill-rule="evenodd" clip-rule="evenodd" d="M164.439 209.447C157.679 187.385 160.288 167.409 160.827 130.656C180.285 118.482 193.518 101.708 203.326 82.4046C191.887 102.643 177.799 118.914 159.864 129.428L150.169 125.31L159.061 130.691C158.951 163.016 156.911 191.458 164.439 209.447Z" fill="#FEF0F0"/>
</svg>
