<svg width="24" height="27" viewBox="0 0 24 27" fill="none" xmlns="http://www.w3.org/2000/svg">
<path d="M19.4516 13.0033L20.323 13.4941C20.3293 13.4827 20.3355 13.4713 20.3414 13.4597L19.4516 13.0033ZM19.1489 13.5409L18.2776 13.0501L18.2774 13.0504L19.1489 13.5409ZM12.4159 25.5039L11.5445 25.9945C11.726 26.3169 12.0707 26.5127 12.4405 26.5036C12.8103 26.4945 13.1449 26.282 13.3104 25.9511L12.4159 25.5039ZM5.69377 13.5625H6.69377C6.69377 13.3909 6.64961 13.2222 6.56553 13.0726L5.69377 13.5625ZM5.36477 12.9771L6.23653 12.4872C6.22411 12.4651 6.21086 12.4435 6.19681 12.4224L5.36477 12.9771ZM5.35859 12.9678L4.47416 13.4345C4.4901 13.4647 4.50759 13.4941 4.52655 13.5225L5.35859 12.9678ZM12.4144 1.50524L12.3957 2.50507C12.4019 2.50518 12.4082 2.50524 12.4144 2.50524L12.4144 1.50524ZM19.3166 9.40748C19.3166 10.5396 19.044 11.6069 18.5619 12.547L20.3414 13.4597C20.9652 12.2435 21.3166 10.8641 21.3166 9.40748H19.3166ZM18.5803 12.5126L18.2776 13.0501L20.0202 14.0316L20.323 13.4941L18.5803 12.5126ZM19.1489 13.5409C18.2774 13.0504 18.2774 13.0504 18.2774 13.0505C18.2773 13.0506 18.2772 13.0508 18.2771 13.0509C18.2769 13.0513 18.2766 13.0518 18.2762 13.0526C18.2754 13.054 18.2742 13.0562 18.2726 13.0591C18.2693 13.0648 18.2645 13.0734 18.2581 13.0847C18.2454 13.1073 18.2265 13.1409 18.2019 13.1847C18.1525 13.2723 18.0802 13.4008 17.9882 13.5643C17.8041 13.8913 17.5412 14.3585 17.2256 14.9192C16.5945 16.0405 15.7531 17.5356 14.9115 19.0308C13.2445 21.9927 11.5369 25.0259 11.5215 25.0567L13.3104 25.9511C13.2965 25.9788 14.9554 23.0305 16.6544 20.0117C17.496 18.5165 18.3374 17.0214 18.9685 15.9001C19.2841 15.3395 19.547 14.8723 19.7311 14.5453C19.8231 14.3817 19.8955 14.2533 19.9448 14.1657C19.9694 14.1219 19.9883 14.0883 20.001 14.0657C20.0074 14.0543 20.0122 14.0458 20.0155 14.04C20.0171 14.0371 20.0183 14.035 20.0191 14.0335C20.0195 14.0328 20.0198 14.0323 20.02 14.0319C20.0201 14.0317 20.0202 14.0316 20.0203 14.0315C20.0203 14.0314 20.0204 14.0314 19.1489 13.5409ZM12.4159 25.5039C13.2873 25.0133 13.2873 25.0133 13.2872 25.0132C13.2872 25.0131 13.2871 25.013 13.287 25.0128C13.2868 25.0124 13.2865 25.0119 13.2861 25.0111C13.2853 25.0097 13.2841 25.0075 13.2824 25.0047C13.2792 24.9989 13.2744 24.9904 13.268 24.9791C13.2553 24.9565 13.2364 24.923 13.2118 24.8792C13.1626 24.7918 13.0904 24.6635 12.9985 24.5003C12.8147 24.1738 12.5521 23.7074 12.237 23.1477C11.6068 22.0283 10.7665 20.5358 9.92625 19.0432C9.08598 17.5506 8.24573 16.058 7.61554 14.9385C7.30044 14.3787 7.03788 13.9122 6.8541 13.5856C6.7622 13.4223 6.69003 13.2941 6.64086 13.2066C6.61625 13.1629 6.59747 13.1295 6.58486 13.107C6.57853 13.0958 6.57389 13.0875 6.57088 13.0821C6.56933 13.0794 6.56846 13.0778 6.56809 13.0772C6.56781 13.0767 6.56819 13.0773 6.56886 13.0785C6.56931 13.0794 6.57088 13.0822 6.57191 13.0841C6.57498 13.0898 6.66441 13.3219 6.69377 13.5625H4.69377C4.72313 13.803 4.81261 14.0353 4.81578 14.0412C4.81692 14.0433 4.81864 14.0464 4.81929 14.0476C4.82037 14.0495 4.82136 14.0513 4.8219 14.0523C4.82316 14.0545 4.82472 14.0573 4.8264 14.0603C4.82986 14.0665 4.83485 14.0754 4.84125 14.0867C4.85408 14.1096 4.87304 14.1433 4.89767 14.1871C4.94696 14.2747 5.01922 14.4031 5.11113 14.5665C5.29497 14.8931 5.55757 15.3597 5.87268 15.9195C6.50289 17.0391 7.34318 18.5318 8.18345 20.0243C9.02372 21.5169 9.86399 23.0095 10.4942 24.1289C10.8093 24.6886 11.0719 25.155 11.2557 25.4815C11.3476 25.6447 11.4198 25.773 11.469 25.8604C11.4937 25.9041 11.5125 25.9377 11.5253 25.9602C11.5316 25.9715 11.5364 25.9801 11.5397 25.9858C11.5413 25.9887 11.5425 25.9909 11.5433 25.9923C11.5437 25.993 11.544 25.9936 11.5442 25.994C11.5443 25.9941 11.5444 25.9943 11.5445 25.9944C11.5445 25.9945 11.5445 25.9945 12.4159 25.5039ZM6.56553 13.0726L6.23653 12.4872L4.49301 13.467L4.82201 14.0524L6.56553 13.0726ZM6.19681 12.4224L6.19063 12.4131L4.52655 13.5225L4.53273 13.5318L6.19681 12.4224ZM6.24302 12.5012C3.91296 8.08517 7.37401 2.41125 12.3957 2.50507L12.4331 0.505415C5.87942 0.382982 1.43823 7.68073 4.47416 13.4345L6.24302 12.5012ZM12.4144 2.50524C16.2271 2.50524 19.3166 5.59611 19.3166 9.40748H21.3166C21.3166 4.49179 17.3319 0.50524 12.4144 0.50524V2.50524ZM15.2697 9.64227C15.2697 11.2226 13.9886 12.5038 12.4082 12.5038V14.5038C15.0932 14.5038 17.2697 12.3272 17.2697 9.64227H15.2697ZM12.4082 12.5038C10.8278 12.5038 9.54667 11.2226 9.54667 9.64227H7.54667C7.54667 12.3272 9.72326 14.5038 12.4082 14.5038V12.5038ZM9.54667 9.64227C9.54667 8.06188 10.8278 6.78073 12.4082 6.78073V4.78073C9.72326 4.78073 7.54667 6.95731 7.54667 9.64227H9.54667ZM12.4082 6.78073C13.9886 6.78073 15.2697 8.06188 15.2697 9.64227H17.2697C17.2697 6.95732 15.0932 4.78073 12.4082 4.78073V6.78073Z" fill="#DD9E37"/>
</svg>
