<svg width="27" height="26" viewBox="0 0 27 26" fill="none" xmlns="http://www.w3.org/2000/svg">
<path d="M24.3629 18.9788C25.3778 17.2193 25.957 15.1773 25.957 12.9992C25.957 12.0863 25.8551 11.1981 25.662 10.3439C25.6326 10.2126 25.6002 10.0813 25.5662 9.95153M24.3629 18.9788C23.969 19.6646 23.5087 20.3057 22.9912 20.8957C20.79 23.4105 17.5585 24.9969 13.9563 24.9969C13.3152 24.9969 12.6865 24.9475 12.0733 24.8502M24.3629 18.9788C24.2517 18.3732 24.1266 17.7245 23.9937 17.0942C23.5303 14.8838 23.83 14.72 21.9393 15.0073C20.0486 15.2962 18.9256 14.7077 18.527 13.1166C18.1285 11.5256 19.8014 11.1023 20.2942 10.2806C20.7885 9.45878 22.4521 8.67716 23.5303 9.00618C24.1729 9.20236 24.9298 9.92991 25.5662 9.95153M12.0733 24.8502C11.5666 24.7698 11.0723 24.6586 10.5888 24.5181M12.0733 24.8502V24.8471C11.9497 22.8328 13.462 20.7057 14.8275 19.4623C16.1914 18.2188 15.8547 17.5715 15.4438 16.2462C15.0329 14.9224 13.9563 14.4883 12.3606 13.7036C10.7634 12.9204 9.11362 13.2958 8.41388 12.5157C7.71567 11.7341 8.25014 11.8175 9.2372 11.5287C10.2227 11.2414 9.11363 9.96698 10.0945 9.30894C11.0769 8.65244 9.35923 7.74725 11.0043 7.25449C12.6479 6.76019 13.7987 5.27573 13.2241 4.43387C12.6479 3.59355 12.1968 3.71867 10.7989 4.62387C9.40094 5.52752 8.7846 4.25314 9.68825 3.6368C10.5934 3.02047 9.86898 1.7152 9.86898 1.7152M10.5888 24.5181C5.60098 23.0629 1.95703 18.4567 1.95703 12.9992C1.95703 11.5271 2.22272 10.1153 2.7093 8.81155M10.5888 24.5181C10.5672 24.4485 9.8937 22.2674 9.85354 20.3257C9.81183 18.3516 7.46852 18.9849 7.51023 16.861C7.55193 14.7355 7.14104 14.1531 5.66122 13.7036C4.1814 13.2556 2.67841 9.79243 2.7093 8.81155M2.7093 8.81155C3.31637 7.18189 4.26636 5.7206 5.47122 4.51419H5.47277C6.70389 3.28461 8.20071 2.31917 9.86898 1.7152M9.86898 1.7152C11.1449 1.25333 12.5212 1 13.9563 1C16.3984 1 18.6691 1.7291 20.5645 2.98339C20.9445 3.23364 21.309 3.5055 21.6566 3.79745M21.6566 3.79745C22.1926 4.24387 22.6869 4.73817 23.1364 5.27264C23.2415 5.39622 23.3434 5.52288 23.4423 5.65264M21.6566 3.79745C20.6216 4.0307 19.6593 4.30566 19.3349 4.58988C18.5703 5.25719 18.5471 7.12473 20.0686 6.80189C21.5176 6.4945 22.4228 5.55841 23.4423 5.65264M23.4423 5.65264C23.9582 6.31531 24.4046 7.0336 24.7722 7.79668C25.1028 8.48098 25.37 9.20081 25.5662 9.95153" stroke="#DD9E37" stroke-width="2" stroke-linecap="round" stroke-linejoin="round"/>
</svg>
