<svg width="26" height="26" viewBox="0 0 26 26" fill="none" xmlns="http://www.w3.org/2000/svg">
<g id="Icons - 24x24">
<path id="188-search" d="M12.7286 4.97902C12.1282 4.77976 11.4862 4.67163 10.818 4.67163C7.47554 4.67163 4.76585 7.39022 4.76585 10.7437C4.76585 11.414 4.87363 12.0581 5.07223 12.6606M18.867 16.3059L24.4758 21.9331C25.1747 22.6344 25.1747 23.7728 24.4758 24.474C23.7768 25.1753 22.6421 25.1753 21.9431 24.474L16.3344 18.8453M20.4236 10.7437C20.4236 16.1249 16.0754 20.4873 10.7118 20.4873C5.34811 20.4873 1 16.1249 1 10.7437C1 5.36238 5.34811 1 10.7118 1C16.0754 1 20.4236 5.36238 20.4236 10.7437Z" stroke="white" stroke-width="2" stroke-linecap="round" stroke-linejoin="round"/>
</g>
</svg>
