<svg width="27" height="26" viewBox="0 0 27 26" fill="none" xmlns="http://www.w3.org/2000/svg">
<path d="M13.4992 1.00391C10.1874 1.00391 7.18758 2.3478 5.01419 4.5181C2.84389 6.68995 1.5 9.68975 1.5 13.0031C1.5 19.6299 6.87092 25.0024 13.4992 25.0024C20.1275 25.0024 25.5 19.6299 25.5 13.0031C25.5 12.0902 25.3981 11.202 25.205 10.3478M13.4992 1.00391C19.2146 1.00391 23.997 4.9985 25.205 10.3478M13.4992 1.00391C10.1874 1.00391 7.18758 2.3478 5.01574 4.5181C5.01574 4.5181 8.04489 4.2833 9.75488 6.76409C11.4633 9.24488 16.1839 9.69439 18.5504 8.21457C20.9169 6.73629 22.494 7.4175 23.7545 9.14138C24.1129 9.62951 24.6396 10.0697 25.205 10.3478M2.97364 7.23677C2.97364 7.23677 7.45482 10.3169 5.78654 13.414C4.11827 16.5127 6.86011 17.9199 7.51661 18.9842C8.1731 20.0485 7.0949 22.2095 6.36889 22.6529M12.0611 16.5065C12.5755 15.3727 11.7089 14.3378 13.337 14.5293C14.9651 14.7208 15.1891 15.4685 16.6427 15.4299C18.0963 15.3912 19.9159 15.6925 19.2872 17.3376C18.6585 18.9811 14.6145 21.6009 12.8489 19.9435C11.0833 18.2845 12.0611 16.5081 12.0611 16.5081V16.5065Z" stroke="#C41620" stroke-width="2" stroke-linecap="round" stroke-linejoin="round"/>
</svg>
