<svg width="24" height="27" viewBox="0 0 24 27" fill="none" xmlns="http://www.w3.org/2000/svg">
<path d="M18.1322 7.07524H19.1322C19.1322 6.52296 18.6845 6.07524 18.1322 6.07524V7.07524ZM17.5221 9.61029L18.3929 10.1019C18.3993 10.0905 18.4055 10.0791 18.4114 10.0675L17.5221 9.61029ZM17.3085 9.98856L16.4377 9.49697L16.4371 9.49805L17.3085 9.98856ZM12.5618 18.4219L11.6904 18.9125C11.8718 19.2348 12.2165 19.4307 12.5863 19.4216C12.9562 19.4126 13.2908 19.2001 13.4562 18.8692L12.5618 18.4219ZM7.8227 10.0038L6.95052 10.493C6.99531 10.5729 7.05085 10.6462 7.11559 10.7109L7.8227 10.0038ZM7.59085 9.59046L8.46303 9.10127C8.44145 9.06279 8.41734 9.02578 8.39087 8.99048L7.59085 9.59046ZM7.58628 9.58436L6.70185 10.051C6.72643 10.0976 6.75466 10.1422 6.78626 10.1843L7.58628 9.58436ZM12.5603 1.50485L12.5416 2.50467C12.5478 2.50479 12.554 2.50485 12.5603 2.50485L12.5603 1.50485ZM18.1307 7.07524H17.1307C17.1307 7.62753 17.5784 8.07524 18.1307 8.07524V7.07524ZM6.54509 23.4814C6.54509 24.0461 6.08728 24.5039 5.52255 24.5039V26.5039C7.19185 26.5039 8.54509 25.1507 8.54509 23.4814H6.54509ZM5.52255 24.5039C4.95781 24.5039 4.5 24.0461 4.5 23.4814H2.5C2.5 25.1507 3.85324 26.5039 5.52255 26.5039V24.5039ZM4.5 23.4814C4.5 22.9166 4.95781 22.4588 5.52255 22.4588V20.4588C3.85324 20.4588 2.5 21.8121 2.5 23.4814H4.5ZM5.52255 22.4588C6.08728 22.4588 6.54509 22.9166 6.54509 23.4814H8.54509C8.54509 21.8121 7.19185 20.4588 5.52255 20.4588V22.4588ZM13.5813 23.4814C13.5813 24.0461 13.1235 24.5039 12.5588 24.5039V26.5039C14.2281 26.5039 15.5813 25.1507 15.5813 23.4814H13.5813ZM12.5588 24.5039C11.994 24.5039 11.5362 24.0461 11.5362 23.4814H9.53621C9.53621 25.1507 10.8894 26.5039 12.5588 26.5039V24.5039ZM11.5362 23.4814C11.5362 22.9166 11.994 22.4588 12.5588 22.4588V20.4588C10.8894 20.4588 9.53621 21.8121 9.53621 23.4814H11.5362ZM12.5588 22.4588C13.1235 22.4588 13.5813 22.9166 13.5813 23.4814H15.5813C15.5813 21.8121 14.2281 20.4588 12.5588 20.4588V22.4588ZM20.616 23.4814C20.616 24.0461 20.1582 24.5039 19.5934 24.5039V26.5039C21.2627 26.5039 22.616 25.1507 22.616 23.4814H20.616ZM19.5934 24.5039C19.0287 24.5039 18.5709 24.0461 18.5709 23.4814H16.5709C16.5709 25.1507 17.9241 26.5039 19.5934 26.5039V24.5039ZM18.5709 23.4814C18.5709 22.9166 19.0287 22.4588 19.5934 22.4588V20.4588C17.9241 20.4588 16.5709 21.8121 16.5709 23.4814H18.5709ZM19.5934 22.4588C20.1582 22.4588 20.616 22.9166 20.616 23.4814H22.616C22.616 21.8121 21.2627 20.4588 19.5934 20.4588V22.4588ZM17.1322 7.07524C17.1322 7.82552 16.9518 8.5324 16.6327 9.1531L18.4114 10.0675C18.8733 9.16897 19.1322 8.14921 19.1322 7.07524H17.1322ZM16.6513 9.11869L16.4377 9.49697L18.1794 10.4802L18.3929 10.1019L16.6513 9.11869ZM17.3085 9.98856C16.4371 9.49805 16.4371 9.49809 16.437 9.49815C16.437 9.49821 16.437 9.49831 16.4369 9.49844C16.4367 9.4987 16.4365 9.49908 16.4362 9.49959C16.4357 9.50061 16.4348 9.50214 16.4337 9.50416C16.4314 9.50822 16.428 9.51426 16.4235 9.52224C16.4145 9.53819 16.4012 9.56186 16.3838 9.59273C16.3491 9.65448 16.2981 9.74504 16.2332 9.8603C16.1034 10.0908 15.9181 10.4201 15.6956 10.8153C15.2507 11.6057 14.6575 12.6596 14.0643 13.7136C12.8938 15.7931 11.6828 17.944 11.6674 17.9747L13.4562 18.8692C13.4424 18.8969 14.6047 16.831 15.8072 14.6946C16.4004 13.6406 16.9936 12.5867 17.4385 11.7964C17.661 11.4012 17.8463 11.0718 17.9761 10.8413C18.0409 10.7261 18.0919 10.6355 18.1267 10.5737C18.1441 10.5429 18.1574 10.5192 18.1664 10.5033C18.1708 10.4953 18.1743 10.4892 18.1765 10.4852C18.1777 10.4832 18.1785 10.4816 18.1791 10.4806C18.1794 10.4801 18.1796 10.4797 18.1798 10.4795C18.1798 10.4793 18.1799 10.4792 18.1799 10.4792C18.18 10.4791 18.18 10.4791 17.3085 9.98856ZM12.5618 18.4219C13.4332 17.9314 13.4332 17.9314 13.4332 17.9313C13.4331 17.9313 13.4331 17.9312 13.433 17.931C13.4329 17.9308 13.4327 17.9304 13.4324 17.9299C13.4318 17.9289 13.4309 17.9273 13.4298 17.9253C13.4275 17.9213 13.4241 17.9152 13.4196 17.9073C13.4107 17.8914 13.3974 17.8677 13.38 17.8369C13.3453 17.7753 13.2944 17.6848 13.2297 17.5698C13.1001 17.3396 12.915 17.0108 12.693 16.6163C12.2488 15.8272 11.6565 14.7751 11.0642 13.7229C10.4719 12.6707 9.87959 11.6185 9.43521 10.8292C9.21303 10.4346 9.02782 10.1056 8.8981 9.87527C8.83324 9.76011 8.78223 9.66953 8.74738 9.6077C8.72997 9.5768 8.71653 9.55296 8.7074 9.53677C8.70286 9.52872 8.69925 9.52233 8.69671 9.51783C8.69549 9.51567 8.69424 9.51347 8.69317 9.51159C8.69274 9.51082 8.69178 9.50913 8.69068 9.50721C8.69 9.50603 8.68817 9.50286 8.68696 9.50076C8.6836 9.49504 8.61092 9.38843 8.5298 9.29671L7.11559 10.7109C7.03448 10.6192 6.96185 10.5127 6.95857 10.5071C6.95743 10.5051 6.95571 10.5021 6.95519 10.5012C6.9549 10.5007 6.95438 10.4998 6.95425 10.4996C6.95418 10.4995 6.954 10.4992 6.95402 10.4992C6.95406 10.4993 6.95404 10.4992 6.95414 10.4994C6.95425 10.4996 6.95433 10.4997 6.95449 10.5C6.95479 10.5005 6.95519 10.5013 6.95569 10.5021C6.95775 10.5058 6.96098 10.5115 6.96545 10.5194C6.97434 10.5352 6.98759 10.5587 7.00496 10.5895C7.03968 10.6511 7.0906 10.7415 7.15544 10.8567C7.2851 11.0869 7.47026 11.4158 7.69244 11.8104C8.13679 12.5996 8.72911 13.6518 9.32141 14.704C9.91369 15.7562 10.5059 16.8083 10.9501 17.5973C11.1722 17.9919 11.3573 18.3207 11.4868 18.5508C11.5516 18.6659 11.6025 18.7563 11.6372 18.8179C11.6545 18.8488 11.6678 18.8724 11.6768 18.8883C11.6813 18.8963 11.6847 18.9023 11.6869 18.9064C11.6881 18.9084 11.6889 18.9099 11.6895 18.9109C11.6898 18.9114 11.69 18.9118 11.6902 18.9121C11.6902 18.9122 11.6903 18.9123 11.6903 18.9124C11.6904 18.9124 11.6904 18.9125 12.5618 18.4219ZM8.69487 9.51462L8.46303 9.10127L6.71868 10.0797L6.95052 10.493L8.69487 9.51462ZM8.39087 8.99048L8.3863 8.98438L6.78626 10.1843L6.79083 10.1904L8.39087 8.99048ZM8.4707 9.11768C6.93236 6.20226 9.22724 2.44272 12.5416 2.50467L12.579 0.505023C7.73297 0.414443 4.45746 5.79755 6.70185 10.051L8.4707 9.11768ZM12.5603 2.50485C15.0845 2.50485 17.1307 4.551 17.1307 7.07524H19.1307C19.1307 3.44643 16.1891 0.504848 12.5603 0.504848V2.50485ZM18.1307 8.07524H18.1322V6.07524H18.1307V8.07524ZM14.2814 7.23997C14.2814 8.19137 13.5102 8.96263 12.5588 8.96263V10.9626C14.6147 10.9626 16.2814 9.29594 16.2814 7.23997H14.2814ZM12.5588 8.96263C11.6074 8.96263 10.8361 8.19137 10.8361 7.23997H8.83609C8.83609 9.29594 10.5028 10.9626 12.5588 10.9626V8.96263ZM10.8361 7.23997C10.8361 6.28857 11.6074 5.51731 12.5588 5.51731V3.51731C10.5028 3.51731 8.83609 5.18401 8.83609 7.23997H10.8361ZM12.5588 5.51731C13.5102 5.51731 14.2814 6.28857 14.2814 7.23997H16.2814C16.2814 5.18401 14.6147 3.51731 12.5588 3.51731V5.51731Z" fill="#18723C"/>
</svg>
