<?xml version="1.0" encoding="UTF-8"?>
<svg width="27" height="27" id="Layer_1" data-name="Layer 1" xmlns="http://www.w3.org/2000/svg" version="1.1" viewBox="0 0 27 27">
  <defs>
    <style>
      .cls-1 {
        fill: none;
        stroke: #3058b8;
        stroke-linecap: round;
        stroke-linejoin: round;
        stroke-width: 2px;
      }
    </style>
  </defs>
  <g id="Icons_-_24x24" data-name="Icons - 24x24">
    <path id="_312-place_of_birth" data-name="312-place_of_birth" class="cls-1" d="M13.5,1.5c-3.3,0-6.3,1.3-8.5,3.5-2.2,2.2-3.5,5.2-3.5,8.5,0,6.6,5.4,12,12,12s12-5.4,12-12-.1-1.8-.3-2.7M13.5,1.5c5.7,0,10.5,4,11.7,9.3M13.5,1.5c-3.3,0-6.3,1.3-8.5,3.5,0,0,3-.2,4.7,2.2,1.7,2.5,6.4,2.9,8.8,1.5,2.4-1.5,3.9-.8,5.2.9.4.5.9.9,1.5,1.2M3,7.7s4.5,3.1,2.8,6.2c-1.7,3.1,1.1,4.5,1.7,5.6.7,1.1-.4,3.2-1.1,3.7M12.1,17c.5-1.1-.4-2.2,1.3-2,1.6.2,1.9.9,3.3.9,1.5,0,3.3.3,2.6,1.9-.6,1.6-4.7,4.3-6.4,2.6-1.8-1.7-.8-3.4-.8-3.4h0Z"/>
  </g>
</svg>