<?xml version="1.0" encoding="UTF-8"?>
<svg id="Layer_1" data-name="Layer 1" xmlns="http://www.w3.org/2000/svg" version="1.1" viewBox="0 0 26 27">
  <defs>
    <style>
      .cls-1 {
        fill: none;
        stroke: #3058b8;
        stroke-linecap: round;
        stroke-linejoin: round;
        stroke-width: 2px;
      }
    </style>
  </defs>
  <g id="Icons">
    <path id="Vector" class="cls-1" d="M24.8,13.9c0-6.5-5.2-11.7-11.6-11.7M19,13.9c0-3.2-2.6-5.9-5.8-5.9M5.8,11.3c1.2,6.8,5.4,9.5,10.2,10.1l1-2.3c.3-.8,1.1-1.2,1.9-1.1l4.6.6c1.2.2,1.9,1.5,1.4,2.6l-1.8,4c-.2.5-.8.8-1.4.8,0,0-20.3,1.4-20.7-20.5,0-.1,0-.3,0-.5,0-.4.3-.8.8-1l4-1.8c1.1-.5,2.4.2,2.6,1.5l.6,4.7c.1.8-.3,1.6-1.1,2l-2.2,1h0ZM1,5.4c0-.2,0-.3,0-.5,0,.2,0,.3,0,.5Z"/>
  </g>
</svg>