<?xml version="1.0" encoding="utf-8"?>
<!-- Generator: Adobe Illustrator 23.0.1, SVG Export Plug-In . SVG Version: 6.00 Build 0)  -->
<svg version="1.1" id="Ñëîé_1" xmlns="http://www.w3.org/2000/svg" xmlns:xlink="http://www.w3.org/1999/xlink" x="0px" y="0px"
	 viewBox="0 0 35 33.7" style="enable-background:new 0 0 35 33.7;" xml:space="preserve">
<style type="text/css">
	.st0{fill:#A4A4A4;}
</style>
<g>
	<path class="st0" d="M18.8,33.7c-5.5,0.4-10.9-1.8-14.4-6.2c-1.3-1.7-2.3-3.6-2.9-5.7c-1.8-6.1,0-13.1,4.8-17.3c2-1.8,4.4-3,7-3.7
		C16.1,0,18.6,0,21.4,0.7c1.4,0.3,2.9,0.8,4.2,1.5c2.5,1.3,4.6,3.3,6.1,5.8c0.7,1.2,1.3,2.4,1.8,3.7c2.3,6.4,0,13.9-5.2,18.3
		c-1.7,1.4-3.7,2.5-5.8,3.1C21.2,33.4,20,33.6,18.8,33.7z M17.5,31c7.7,0,14-6.2,14.1-13.8c0-7.9-6.2-14.2-14-14.2
		c-7.6,0-14,6.3-14,13.7C3.4,25,10.2,31.1,17.5,31z"/>
	<path class="st0" d="M25.6,24.5c-0.5,0.5-0.9,0.9-1.4,1.3c-1.2-1.1-2.4-2.1-3.6-3.2c-1.5-1.3-3-2.6-4.4-3.9
		c-0.3-0.3-0.5-0.7-0.5-1.1c0-1.6,0.1-3.3,0.1-4.9c0.1-2,0.2-4.1,0.3-6.1c0-0.3,0.1-0.6,0.1-0.9c0.6,0,1.1,0,1.7,0
		c0.1,1.6,0.2,3.2,0.3,4.7c0.1,2,0.2,4.1,0.3,6.1c0,0.3,0.2,0.6,0.4,0.9C21,19.7,23.3,22.1,25.6,24.5z"/>
</g>
</svg>
