<svg width="154" height="154" viewBox="0 0 154 154" fill="none" xmlns="http://www.w3.org/2000/svg">
<path d="M109.333 49.0921C107.802 49.1053 106.174 49.8439 104.96 51.2287L68.3962 92.956L44.8475 70.7418C43.3941 69.3715 40.7893 69.7896 39.0061 71.6809C37.223 73.5709 36.9566 76.1955 38.41 77.5658L66.3559 103.928C67.6985 105.194 69.7652 105.213 70.9615 104.106C71.3255 103.768 112.017 57.4117 112.017 57.4117C114.061 55.0799 114.133 51.8222 112.178 50.1103C111.384 49.4139 110.382 49.0828 109.333 49.0921Z" fill="#008000"/>
<path d="M76.9993 0C56.5777 0 36.9922 8.11255 22.553 22.5532C8.11248 36.9925 0 56.5782 0 77C0 97.4218 8.11248 117.007 22.553 131.447C36.9935 145.887 56.5777 154 76.9993 154C97.421 154 117.007 145.887 131.447 131.447C145.888 117.006 154 97.4218 154 77C154 56.5782 145.888 36.9925 131.447 22.5519C117.007 8.11123 97.421 0 76.9993 0ZM76.9993 11.2225C94.4443 11.2225 111.176 18.1533 123.511 30.489C135.847 42.8247 142.778 59.5562 142.778 77.0013C142.778 94.4464 135.847 111.178 123.511 123.514C111.176 135.849 94.4443 142.78 76.9993 142.78C59.5544 142.78 42.823 135.849 30.4874 123.514C18.1519 111.178 11.2211 94.4464 11.2211 77.0013C11.2211 59.5562 18.1505 42.8247 30.4874 30.489C42.823 18.1533 59.5544 11.2225 76.9993 11.2225Z" fill="#008000"/>
</svg>
