<svg width="26" height="27" viewBox="0 0 26 27" fill="none" xmlns="http://www.w3.org/2000/svg">
<g id="Icons">
<path id="Vector" d="M24.8025 13.9265C24.8025 7.46144 19.6318 2.22143 13.2515 2.22143M19.0278 13.9265C19.0278 10.6947 16.4417 8.07319 13.2531 8.07319M5.76353 11.2632C6.91909 18.0434 11.1968 20.77 15.918 21.3138L16.9175 19.0321C17.2496 18.2782 18.0313 17.8364 18.8378 17.9492L23.4183 18.5841C24.6249 18.751 25.3355 20.044 24.8411 21.1732L23.0707 25.2129C22.8282 25.7613 22.2612 26.061 21.7035 25.9822C21.7035 25.9822 1.44098 27.3772 1.02077 5.44083C1.01768 5.29098 1.01614 5.14113 1.01459 4.98819C1.08102 4.55565 1.35601 4.16481 1.7793 3.97634L5.80833 2.16273C6.93454 1.65603 8.22605 2.38518 8.3929 3.62258L9.02629 8.31573C9.13598 9.14066 8.69569 9.94242 7.94334 10.2823L5.76198 11.2632H5.76353ZM1.02232 5.44083C0.99451 5.28943 0.992965 5.1365 1.01614 4.98819C1.01614 5.13959 1.01923 5.29098 1.02232 5.44083Z" stroke="#9A9A9A" stroke-width="2" stroke-linecap="round" stroke-linejoin="round"/>
</g>
</svg>
