<svg width="25" height="29" viewBox="0 0 25 29" fill="none" xmlns="http://www.w3.org/2000/svg">
    <path d="M3.97095 10.9963V10.3183C3.97095 5.55442 7.90154 1.69232 12.7499 1.69232C17.5983 1.69232 21.5289 5.55442 21.5289 10.3183V10.9963M9.41625 6.69148C10.221 5.77007 11.4165 5.18683 12.7516 5.18683C14.0867 5.18683 15.249 5.75536 16.0537 6.65554M3.97261 17.7746V18.0899C3.97261 21.4014 6.22389 23.9582 10.3523 24.6378M5.96285 10.4735C3.76311 10.4735 1.98071 12.2249 1.98071 14.3863C1.98071 16.5477 3.76311 18.299 5.96285 18.299V10.4735ZM19.537 10.4735C21.7368 10.4735 23.5192 12.2249 23.5192 14.3863C23.5192 16.5477 21.7368 18.299 19.537 18.299V10.4735ZM14.9447 24.8159C14.9447 26.0646 13.9144 27.0769 12.6435 27.0769C11.3726 27.0769 10.3424 26.0646 10.3424 24.8159C10.3424 23.5671 11.3726 22.5548 12.6435 22.5548C13.9144 22.5548 14.9447 23.5671 14.9447 24.8159Z" stroke="#249CEC" stroke-width="2" stroke-linecap="round" stroke-linejoin="round"/>
</svg>
