<?xml version="1.0" standalone="no"?>
<!DOCTYPE svg PUBLIC "-//W3C//DTD SVG 1.1//EN" "http://www.w3.org/Graphics/SVG/1.1/DTD/svg11.dtd" >
<svg xmlns="http://www.w3.org/2000/svg">
<metadata>Generated by IcoMoon</metadata>
<defs>
<font id="videoslots-font" horiz-adv-x="1024">
<font-face units-per-em="1024" ascent="960" descent="-64" />
<missing-glyph horiz-adv-x="1024" />
<glyph unicode="&#x20;" horiz-adv-x="512" d="" />
<glyph unicode="&#xe900;" glyph-name="vs-home" d="M920.294 551.176c-23.591 0-42.464-18.873-42.464-42.464v-406.287c0-37.745-26.212-68.676-58.191-68.676h-615.459c-31.979 0-58.191 30.93-58.191 68.676v406.287c0 23.591-18.873 42.464-42.464 42.464s-42.464-18.873-42.464-42.464v-406.287c0-84.403 63.957-153.078 143.118-153.078h614.934c78.636 0 143.118 68.676 143.118 153.078v406.287c0 23.591-18.873 42.464-41.939 42.464zM1001.028 694.818l-463.953 246.917c-12.058 6.291-27.261 6.815-39.318 0l-474.962-246.917c-20.97-11.009-28.833-36.173-17.824-57.142 7.339-14.679 22.542-22.542 37.745-22.542 6.815 0 13.106 1.573 19.397 4.718l455.565 236.957 444.556-236.433c20.445-11.009 46.133-3.145 57.142 17.3 10.485 20.445 2.621 46.133-18.348 57.142z" />
<glyph unicode="&#xe901;" glyph-name="66027" d="M885.835 91.968l-103.573 299.752 21.933 7.311c18.887 6.702 29.853 25.589 26.198 45.085l-20.105 101.136 53.005 88.342c10.357 17.059 6.093 38.992-9.139 51.177l-79.812 64.581-15.841 101.745c-3.046 19.496-20.105 34.118-39.601 33.509l-102.964-1.828-77.375 67.627c-14.622 12.794-37.164 12.794-52.396 0l-77.375-67.627-102.964 1.828c-19.496 0.609-36.555-14.013-39.601-33.509l-15.841-101.745-80.421-64.581c-15.231-12.185-19.496-34.118-9.139-51.177l53.005-88.342-20.105-101.136c-3.656-19.496 7.311-38.992 26.198-45.085l21.933-7.311-103.573-299.752c-4.874-14.622-1.219-31.072 10.357-42.038s28.026-13.404 42.648-7.311l112.712 48.131 56.051-130.989c6.093-14.622 20.715-23.761 36.555-23.761 0.609 0 1.219 0 1.219 0 16.45 0.609 30.463 10.967 35.946 26.807l77.984 225.423 77.984-225.423c5.483-15.231 19.496-26.198 35.946-26.807 0.609 0 0.609 0 1.219 0 15.841 0 30.463 9.748 36.555 24.37l54.833 130.38 113.93-48.131c14.622-6.093 31.072-3.046 42.648 7.311 11.576 10.967 15.841 27.416 10.967 42.038zM311.311 697.565c7.92 6.093 12.794 15.231 14.013 24.979l12.794 82.858 83.467-1.828c9.748 0 19.496 3.046 26.807 9.748l62.753 54.833 62.753-54.833c7.311-6.702 17.059-10.357 26.807-9.748l83.467 1.828 12.794-82.858c1.219-9.748 6.702-18.278 14.013-24.979l65.19-52.396-43.257-71.892c-4.874-8.53-6.702-18.278-4.874-28.026l16.45-82.249-79.203-26.807c-9.139-3.046-17.059-9.748-21.933-18.278l-40.211-73.11-77.984 29.853c-4.874 1.828-9.139 2.437-14.013 2.437s-9.748-0.609-14.013-2.437l-77.984-29.853-40.211 73.11c-4.874 8.53-12.794 15.231-21.933 18.278l-79.203 26.807 15.841 82.249c1.828 9.748 0 19.496-4.874 28.026l-43.257 71.892 65.799 52.396zM392.951 85.267l-31.072 73.11c-8.53 20.105-31.681 29.244-51.786 20.715l-67.018-28.635 74.329 215.675 49.959-90.169c9.748-17.059 30.463-24.979 48.74-17.668l42.038 16.45-65.19-189.477zM712.808 179.091c-9.748 4.265-20.715 4.265-30.463 0s-17.668-11.576-21.324-21.324l-29.853-71.282-64.581 187.65 42.038-16.45c4.874-1.828 9.748-2.437 14.013-2.437 14.013 0 27.416 7.311 34.727 20.715l49.959 90.169 74.938-216.284-69.455 29.244zM374.673 573.887l-5.483-28.026c-3.656-19.496 7.311-38.992 26.198-45.085l27.416-9.139 14.013-24.979c9.748-17.059 30.463-24.979 48.74-17.668l26.807 10.357 26.807-10.357c4.874-1.828 9.748-2.437 14.013-2.437 14.013 0 27.416 7.311 34.727 20.715l14.013 24.979 27.416 9.139c18.887 6.702 29.853 25.589 26.198 45.085l-5.483 28.026 14.622 24.37c10.357 17.059 6.093 38.992-9.139 51.177l-22.542 18.278-4.265 28.635c-3.046 19.496-20.105 34.118-39.601 33.509l-28.635-0.609-21.933 18.887c-14.622 12.794-37.164 12.794-52.396 0l-21.933-18.887-28.635 0.609c-19.496 0.609-36.555-14.013-39.601-33.509l-4.265-28.635-22.542-18.278c-15.231-12.185-19.496-34.118-9.139-51.177l14.622-24.979zM452.657 615.925c7.92 6.093 12.794 15.231 14.013 24.979l1.219 9.139h9.748c9.748 0 19.496 3.046 26.807 9.748l7.311 6.093 7.311-6.093c7.311-6.702 17.059-9.748 26.807-9.748h9.748l1.219-9.139c1.219-9.748 6.702-18.278 14.013-24.979l7.311-6.093-4.874-7.92c-4.874-8.53-6.702-18.278-4.874-28.026l1.828-9.139-9.139-3.046c-9.139-3.046-17.059-9.748-21.933-18.278l-4.874-8.53-9.139 3.656c-4.874 1.828-9.139 2.437-14.013 2.437s-9.748-0.609-14.013-2.437l-9.139-3.656-4.874 8.53c-4.874 8.53-12.794 15.231-21.933 18.278l-9.139 3.046 1.828 9.139c1.828 9.748 0 19.496-4.874 28.026l-4.874 7.92 8.53 6.093z" />
<glyph unicode="&#xe902;" glyph-name="arrows-in" d="M435.71 897.92c0 21.884-17.629 39.513-39.513 39.513s-39.513-17.629-39.513-39.513v-238.296l-288.751 288.751c-15.197 15.197-40.729 15.197-55.926 0s-15.197-40.729 0-55.926l289.358-289.358h-232.824c-21.884 0-39.513-17.629-39.513-39.513s17.629-39.513 39.513-39.513h326.441c0.608 0 1.216 0 1.824 0 10.334 0 20.061 3.647 27.963 11.55 8.511 8.511 12.158 19.453 11.55 29.787v332.52zM723.245 293.063h232.824c21.884 0 39.513 17.629 39.513 39.513s-17.629 39.513-39.513 39.513h-326.441c-10.942 0.608-21.884-3.039-29.787-11.55-8.511-8.511-12.158-19.453-11.55-29.787v-331.911c0-21.884 17.629-39.513 39.513-39.513s39.513 17.629 39.513 39.513v238.296l289.358-289.358c7.903-7.903 17.629-11.55 27.963-11.55s20.061 3.647 27.963 11.55c15.197 15.197 15.197 40.729 0 55.926l-289.358 289.358zM599.842 535.614c7.903-7.903 17.629-11.55 27.963-11.55 0.608 0 1.216 0 1.824 0h331.911c21.884 0 39.513 17.629 39.513 39.513s-17.629 39.513-39.513 39.513h-238.296l288.751 289.358c15.197 15.197 15.197 40.729 0 55.926s-40.729 15.197-55.926 0l-289.358-289.358v232.824c0 21.884-17.629 39.513-39.513 39.513s-39.513-17.629-39.513-39.513v-326.441c0-10.334 3.647-21.276 12.158-29.787zM424.768 360.539c-8.511 8.511-19.453 12.158-29.787 11.55h-332.52c-21.884 0-39.513-17.629-39.513-39.513s17.629-39.513 39.513-39.513h238.296l-289.358-289.358c-15.197-15.197-15.197-40.729 0-55.926 7.903-7.903 17.629-11.55 27.963-11.55s20.061 3.647 27.963 11.55l289.358 289.358v-232.824c0-21.884 17.629-39.513 39.513-39.513s39.513 17.629 39.513 39.513v326.441c0.608 10.334-3.039 21.276-10.942 29.787z" />
<glyph unicode="&#xe903;" glyph-name="down-bold" d="M207.654 536.507c10.341 0 20.074-3.65 27.981-11.558l276.165-276.165 276.165 274.949c15.207 15.207 40.756 15.207 55.963 0s15.207-40.756 0-55.963l-304.147-302.93c-15.207-15.207-40.147-15.207-55.963 0l-304.147 304.147c-15.207 15.207-15.207 40.756 0 55.963 7.3 7.3 17.641 11.558 27.981 11.558zM208.871 911.216c55.963 0 108.276-21.899 147.815-61.438l155.115-155.115 155.115 154.506c39.539 39.539 91.852 60.829 147.815 60.829 0 0 0.608 0 0.608 0 55.963 0 108.276-21.899 147.815-61.438v0c66.304-66.912 79.078-170.322 34.064-250.009 45.622-80.903 32.24-184.313-34.673-251.225l-302.93-301.713c-39.539-39.539-91.852-60.829-147.815-60.829s-108.276 21.899-147.815 61.438l-302.93 302.93c-66.912 66.912-79.686 170.322-34.064 250.617-45.622 79.686-32.848 183.096 34.064 250.009 38.931 39.539 91.852 61.438 147.815 61.438zM511.801 599.161c-10.341 0-20.074 3.65-27.981 11.558l-183.096 183.096c-24.332 24.332-57.18 38.322-91.852 38.322s-67.521-13.382-92.461-38.322c-45.622-45.622-51.097-119.225-11.558-170.93 10.949-13.991 10.949-34.064 0-48.055-39.539-51.705-34.064-124.7 11.558-170.93l302.93-302.93c24.332-24.332 57.18-38.322 91.852-38.322s67.521 13.382 91.852 37.714l302.93 301.713c46.23 45.622 51.097 119.225 11.558 170.93-10.949 13.991-10.949 34.064 0 48.055 38.931 51.097 34.064 124.7-11.558 170.322-24.332 24.332-57.18 38.322-91.852 38.322 0 0 0 0 0 0-34.673 0-67.521-13.382-91.852-37.714l-183.096-181.88c-7.3-7.3-17.032-10.949-27.373-10.949zM207.654 742.718c10.341 0 20.074-3.65 27.981-11.558l276.165-276.165 276.165 274.949c15.207 15.207 40.756 15.207 55.963 0s15.207-40.756 0-55.963l-304.147-302.93c-15.207-15.207-40.147-15.207-55.963 0l-304.147 304.147c-15.207 15.207-15.207 40.756 0 55.963 7.3 7.3 17.641 11.558 27.981 11.558z" />
<glyph unicode="&#xe904;" glyph-name="jackpots" d="M695.701-64h-408.186c-11.832 0-23.663 5.916-29.578 11.832s-11.832 17.748-11.832 29.578c5.916 165.641 29.578 272.125 29.578 278.040 47.326 159.725 124.231 260.293 183.389 313.535-47.326 5.916-130.147 29.578-159.725 11.832-47.326-35.494-59.158-94.652-59.158-94.652-5.916-17.748-23.663-29.578-35.494-29.578l-159.725-5.916c-11.832 0-23.663 5.916-29.578 11.832-11.832 5.916-11.832 17.748-11.832 29.578v378.608c0 23.663 17.748 41.41 41.41 41.41h165.641c29.578 11.832 118.315 53.242 242.545 47.326 59.158 0 124.231-17.748 183.389-35.494 41.41-11.832 88.736-23.663 124.231-23.663 65.073 0 118.315 35.494 118.315 35.494 17.748 11.832 35.494 5.916 53.242-5.916l76.905-76.905c11.832-11.832 17.748-35.494 0-53.242-295.787-337.198-266.209-822.29-266.209-828.205 0-11.832-5.916-23.663-11.832-29.578s-23.663-5.916-35.494-5.916zM328.925 12.905h331.282c0 124.231 23.663 508.754 266.209 810.458l-29.578 29.578c-29.578-17.748-76.905-35.494-136.062-35.494-41.41 0-94.652 11.832-147.894 29.578-59.158 17.748-118.315 29.578-165.641 35.494-124.231 0-212.967-47.326-212.967-47.326-5.916 0-11.832-5.916-17.748-5.916h-136.062v-301.703h94.652c11.832 29.578 35.494 76.905 82.82 106.483 53.242 53.242 141.978 29.578 236.63 0 11.832-5.916 23.663-5.916 29.578-5.916 11.832 0 29.578 5.916 29.578 5.916 17.748 5.916 41.41-5.916 47.326-23.663s0-41.41-17.748-47.326c-5.916-5.916-153.809-76.905-224.799-325.366v0c-5.916-5.916-23.663-88.736-29.578-224.799z" />
<glyph unicode="&#xe905;" glyph-name="vs-live-sportsbook" d="M511.999-64c-23.677 0-41.433 17.758-41.433 41.433v88.786c-224.925 11.838-408.416 207.167-408.416 443.931 0 248.601 201.248 449.85 449.85 449.85s449.85-201.248 449.85-449.85c0-236.763-183.492-426.173-408.416-449.85v-88.786c0-17.758-17.758-35.514-41.433-35.514zM511.999 883.052c-207.167 0-372.902-165.734-372.902-372.902 0-189.41 147.977-349.225 331.468-366.982v59.191c-153.896 17.758-272.278 153.896-272.278 313.711 0 171.653 142.057 313.711 313.711 313.711s313.711-142.057 313.711-313.711c0-159.815-118.382-290.035-272.278-313.711v-59.191c183.492 17.758 331.468 177.573 331.468 366.982 0 201.248-165.734 372.902-372.902 372.902zM511.999 746.913c-130.22 0-236.763-106.543-236.763-236.763 0-118.382 82.867-213.087 195.329-230.844v59.191c-76.948 17.758-136.138 88.786-136.138 171.653 0 94.705 76.948 177.573 177.573 177.573 94.705 0 177.573-76.948 177.573-177.573 0-82.867-59.191-153.896-136.138-171.653v-59.191c112.463 17.758 195.329 118.382 195.329 230.844 0 130.22-106.543 236.763-236.763 236.763zM511.999 604.856c-53.272 0-94.705-41.433-94.705-94.705s41.433-94.705 94.705-94.705c53.272 0 94.705 41.433 94.705 94.705s-41.433 94.705-94.705 94.705z" />
<glyph unicode="&#xe906;" glyph-name="live-casino" d="M756.489-62.742h-484.172c-17.714 0-29.522 11.809-35.427 23.619s0 35.427 11.809 41.332c53.141 47.236 94.472 94.472 112.186 135.804-141.709-35.427-259.8 29.522-318.845 118.091-70.855 118.091-64.95 301.131 118.091 436.936 147.613 94.472 259.8 194.849 307.036 236.182 23.619 17.714 35.427 29.522 47.236 29.522s23.619-11.809 47.236-23.619c41.332-35.427 159.423-135.804 301.131-236.182 0 0 0 0 0 0 177.137-123.996 194.849-318.845 118.091-442.841-59.046-94.472-171.232-153.518-312.94-118.091 23.619-41.332 59.046-88.568 112.186-135.804 11.809-11.809 17.714-29.522 11.809-41.332s-17.714-23.619-35.427-23.619zM366.789 14.018h295.226c-47.236 53.141-88.568 118.091-94.472 188.945 0 11.809 5.905 29.522 17.714 35.427s29.522 5.905 41.332 0c141.709-76.759 242.086-17.714 289.323 53.141 53.141 88.568 47.236 230.277-94.472 336.559-141.709 94.472-253.895 188.945-307.036 236.182-47.236-41.332-159.423-141.709-307.036-236.182-141.709-106.282-153.518-242.086-100.377-330.654 47.236-76.759 159.423-123.996 295.226-59.046 17.714 11.809 35.427 11.809 47.236 0 11.809-5.905 17.714-23.619 17.714-35.427-11.809-70.855-53.141-135.804-100.377-188.945zM183.749 362.385c-17.714 0-35.427 17.714-41.332 35.427 0 64.95 35.427 135.804 106.282 183.041 82.663 53.141 165.327 112.186 242.086 183.041 11.809 11.809 35.427 11.809 53.141 0 29.522-23.619 59.046-47.236 94.472-76.759 17.714-11.809 17.714-35.427 5.905-53.141s-35.427-17.714-53.141-5.905c-29.522 17.714-53.141 41.332-70.855 59.046-76.759-59.046-153.518-118.091-224.373-165.327-47.236-35.427-70.855-76.759-70.855-118.091 0-17.714-11.809-41.332-41.332-41.332 5.905 0 5.905 0 0 0z" />
<glyph unicode="&#xe907;" glyph-name="mobile-icon" d="M786.286 927.104c-11.351 8.003-25.468 12.791-40.704 12.791-2.977 0-5.912-0.183-8.793-0.538l0.345 0.035h-446.464c-36.864 0-57.344-8.192-65.536-28.672-2.694-7.13-4.254-15.374-4.254-23.981 0-1.651 0.057-3.288 0.17-4.91l-0.012 0.219v-872.448c0.37-14.824 3.344-28.848 8.479-41.78l-0.287 0.82c5.916-4.761 12.66-8.878 19.905-12.063l0.575-0.225h507.904c1.332-0.158 2.874-0.247 4.438-0.247 13.306 0 25.091 6.509 32.346 16.516l0.080 0.116c4.898 9.539 7.891 20.77 8.19 32.671l0.002 0.097v868.352c0.287 2.37 0.45 5.115 0.45 7.897 0 17.372-6.373 33.255-16.909 45.439l0.075-0.088zM749.422 906.624c8.192 0 8.192-4.096 8.192-12.288s-4.096-8.192-8.192-8.192-8.192 4.096-8.192 8.192 4.096 12.288 8.192 12.288zM421.742 890.24c4.096 0 8.192 4.096 16.384 4.096h151.552c12.288 0 20.48-4.096 20.48-12.288 0-12.288-4.096-16.384-16.384-16.384h-155.648c-12.288 0-20.48 4.096-20.48 16.384 0 4.096 0 8.192 4.096 8.192zM552.814 21.888c-9.607-10.144-23.171-16.456-38.209-16.456-0.968 0-1.929 0.026-2.884 0.078l0.133-0.006c-0.822-0.046-1.783-0.072-2.751-0.072-15.038 0-28.602 6.312-38.187 16.432l-0.023 0.024c-10.042 9.151-16.333 22.268-16.384 36.855v0.009c-0.051 0.937-0.080 2.034-0.080 3.137 0 16.21 6.262 30.958 16.498 41.956l-0.035-0.038c9.606 10.144 23.169 16.456 38.206 16.456 0.969 0 1.931-0.026 2.887-0.078l-0.133 0.006c0.406 0.011 0.883 0.017 1.363 0.017 30.448 0 55.22-24.3 55.98-54.565l0.001-0.070q0.033-1.362 0-2.725c0.159-1.457 0.249-3.147 0.249-4.858 0-14.419-6.426-27.338-16.57-36.049l-0.063-0.053zM761.71 460.16v-286.72c0-4.096-4.096-4.096-12.288-4.096h-475.136c-8.192 0-12.288 0-16.384 4.096-2.179 8.451-3.647 18.277-4.086 28.369l-0.010 0.303v266.24h507.904zM761.71 546.176v-24.576h-507.904v278.528h487.424c8.192 0 16.384 0 16.384-4.096 2.402-9.77 3.883-21.042 4.094-32.624l0.002-0.144z" />
<glyph unicode="&#xe908;" glyph-name="newgames-icon" d="M874.339 106.404c-37.809 0-73.518 14.178-100.299 39.91l-95.573 91.898c-13.653 13.128-33.084 21.005-52.513 21.005h-228.431c-19.429 0-38.86-7.877-52.513-21.005l-95.573-91.898c-26.781-25.732-62.491-39.91-100.299-39.91-81.92 0-149.137 65.116-149.137 144.935 0 6.827 0.525 13.653 1.576 20.48l48.311 337.133c14.704 102.4 106.076 180.119 213.202 180.119 22.581 0 45.161-4.726 70.892-15.229 12.079-4.726 23.631-10.503 35.183-15.754 6.827-3.15 14.178-6.827 21.005-9.978h0.525c32.033-14.178 71.417-32.033 121.305-32.033s89.272 17.855 121.305 32.033l0.525 0.525c6.827 3.15 14.178 6.301 21.005 9.978 11.027 5.251 23.106 11.027 35.183 15.754 25.732 10.503 48.311 15.229 70.892 15.229 106.6 0 198.498-77.193 213.202-180.119l48.311-337.133c1.050-6.827 1.576-13.653 1.576-20.48-0.525-80.87-67.742-145.46-149.662-145.46zM397.522 327.483h228.431c37.809 0 72.993-14.178 100.299-39.91l95.573-92.423c13.653-13.128 33.084-21.005 52.513-21.005 44.636 0 80.87 34.133 80.87 76.669 0 3.675 0 7.352-0.525 10.503l-48.311 337.133c-9.978 69.317-72.468 121.305-145.46 121.305-13.653 0-27.306-3.15-45.161-10.503-9.978-4.202-20.48-8.927-30.983-14.178-7.352-3.675-15.229-7.352-22.581-10.503l-0.525-0.525c-33.609-15.229-84.546-37.809-149.137-37.809s-115.529 22.581-149.137 37.809l-0.525 0.525c-7.877 3.675-15.229 6.827-22.581 10.503-11.027 5.251-21.005 9.978-30.983 14.178-17.855 7.352-31.508 10.503-45.161 10.503-72.993 0-135.483-51.988-145.46-121.305l-48.311-337.133c-0.525-3.675-0.525-7.352-0.525-10.503 0-42.010 36.234-76.669 80.87-76.669 19.429 0 38.86 7.877 52.513 21.005l93.998 92.423c27.306 25.732 62.491 39.91 100.299 39.91zM796.621 531.759c-32.557 0-59.34 26.781-59.34 59.34s26.781 59.34 59.34 59.34 59.34-26.781 59.34-59.34-26.781-59.34-59.34-59.34zM709.449 397.851c-32.557 0-59.34 26.781-59.34 59.34s26.781 59.34 59.34 59.34 59.34-26.781 59.34-59.34-26.781-59.34-59.34-59.34zM278.843 413.080c-18.904 0-34.133 15.229-34.133 34.133v153.337c0 18.904 15.229 34.133 34.133 34.133s34.133-15.229 34.133-34.133v-153.337c0-18.904-15.229-34.133-34.133-34.133zM355.512 489.748h-153.337c-18.904 0-34.133 15.229-34.133 34.133s15.229 34.133 34.133 34.133h153.337c18.904 0 34.133-15.229 34.133-34.133s-15.229-34.133-34.133-34.133z" />
<glyph unicode="&#xe909;" glyph-name="rtp" d="M509.66 463.113c10.643 0 21.165 0.73 31.626 2.068 52.425-58.507 126.077-91.714 205.749-91.714 152.715 0 276.906 124.191 276.906 276.906s-124.191 276.846-276.906 276.846c-31.261 0-61.609-5.17-90.559-15.205-42.39 31.078-93.66 47.986-146.816 47.986-136.963 0-248.443-111.48-248.443-248.443s111.48-248.443 248.443-248.443zM944.877 650.373c0-109.108-88.734-197.842-197.842-197.842-62.886 0-120.603 28.889-158.371 79.246-25.848 34.423-39.471 75.476-39.471 118.596 0 36.126 10.035 70.671 27.733 100.594 20.374 34.423 51.027 62.704 88.917 79.794 25.483 11.556 52.851 17.394 81.193 17.394 109.108 0 197.842-88.734 197.842-197.782zM509.66 880.936c22.868 0 45.188-4.561 65.806-13.258-0.243-0.182-0.426-0.365-0.669-0.547-3.527-2.858-7.055-5.717-10.4-8.758-0.73-0.669-1.46-1.277-2.129-1.946-3.163-2.858-6.264-5.717-9.305-8.697-0.365-0.304-0.669-0.669-1.034-0.973-3.223-3.223-6.386-6.508-9.427-9.913-0.669-0.791-1.399-1.52-2.068-2.311-3.041-3.406-6.021-6.872-8.879-10.461-0.243-0.304-0.426-0.547-0.669-0.851-2.676-3.345-5.291-6.812-7.785-10.278-0.547-0.791-1.156-1.581-1.703-2.372-2.615-3.649-5.109-7.359-7.541-11.191-0.426-0.669-0.851-1.399-1.277-2.068-2.189-3.467-4.257-6.933-6.264-10.461-0.365-0.669-0.791-1.338-1.156-2.007-2.189-3.953-4.257-7.906-6.264-11.981-0.426-0.912-0.851-1.825-1.277-2.676-1.885-3.953-3.71-7.906-5.413-11.92-0.122-0.243-0.243-0.487-0.365-0.73-1.764-4.196-3.406-8.515-4.987-12.833-0.365-0.973-0.73-1.946-1.034-2.919-1.52-4.318-2.919-8.636-4.257-13.015-0.182-0.547-0.304-1.034-0.426-1.581-1.156-4.014-2.25-8.089-3.223-12.225-0.243-0.912-0.487-1.885-0.669-2.798-1.034-4.44-1.946-8.879-2.737-13.38-0.182-0.912-0.304-1.764-0.426-2.676-0.669-4.136-1.277-8.271-1.825-12.407-0.061-0.669-0.182-1.338-0.243-2.068-0.547-4.561-0.912-9.184-1.216-13.806-0.061-1.034-0.122-2.068-0.182-3.163-0.243-4.744-0.426-9.488-0.426-14.292 0-4.318 0.122-8.575 0.304-12.833 0-1.338 0.182-2.676 0.243-3.953 0.182-2.98 0.365-5.899 0.669-8.879 0.122-1.52 0.304-2.98 0.426-4.501 0.304-2.858 0.669-5.717 1.095-8.575 0.182-1.399 0.365-2.737 0.608-4.136 0.547-3.588 1.156-7.177 1.885-10.704 0.122-0.547 0.182-1.156 0.304-1.703 0.851-4.136 1.764-8.21 2.798-12.225 0.304-1.156 0.608-2.311 0.912-3.467 0.791-2.919 1.581-5.839 2.433-8.697 0.426-1.399 0.851-2.798 1.277-4.136 0.851-2.737 1.764-5.474 2.737-8.15 0.487-1.277 0.912-2.615 1.399-3.892 1.156-3.223 2.433-6.386 3.771-9.548 0.243-0.608 0.426-1.156 0.669-1.764-84.963 9.062-151.316 81.132-151.316 168.406 0 93.417 75.962 169.379 169.379 169.379zM1024.001 250.735c0 53.399-43.424 96.823-96.762 96.823-19.766 0-38.741-5.96-55.223-17.333-0.061-0.061-0.182-0.122-0.243-0.182 0 0 0 0-0.061 0l-82.227-58.994c-14.961 31.747-46.587 54.068-83.565 55.588-1.338 0.122-2.676 0.182-4.075 0.182h-133.679l-88.734 71.583c-0.973 0.791-2.007 1.52-3.041 2.189-26.395 17.455-57.169 26.699-88.856 26.699h-175.279c-18.915 17.090-43.85 27.612-71.279 27.612h-101.445c-21.834 0-39.532-17.698-39.532-39.532v-331.704c0-21.834 17.698-39.532 39.532-39.532h101.445c33.998 0 64.224 16.056 83.747 40.992 22.685-2.311 57.23-9.609 76.388-29.132 44.093-44.884 117.866-119.995 263.83-119.995 86.423 0 220.163 75.536 420.864 237.678 0.243 0.182 0.547 0.426 0.791 0.608 0.912 0.73 1.764 1.399 2.615 2.068h0.122s0 0.122 0 0.122c0.304 0.243 0.669 0.547 0.973 0.791s0.547 0.547 0.851 0.851c0.608 0.547 1.156 1.095 1.703 1.642 19.766 18.306 31.078 43.911 31.078 70.975zM168.347 150.567c0-15.083-12.285-27.368-27.368-27.368h-61.913v252.64h61.913c15.083 0 27.368-12.285 27.368-27.368v-197.903zM357.493 111.34c-32.355 32.903-77.544 45.735-110.081 50.723v186.165h140.126c15.63 0 30.774-4.379 43.85-12.65l98.039-79.064c7.055-5.656 15.813-8.758 24.814-8.758h147.606c9.792 0 17.759-7.967 17.759-17.698 0-6.082-3.102-11.495-7.785-14.718h-0.061c-2.858-1.946-6.264-3.041-9.913-3.041h-139.274c-21.834 0-39.532-17.698-39.532-39.532s17.698-39.532 39.532-39.532h139.274c1.338 0 2.737 0.061 4.075 0.182 18.61 0.791 35.883 6.69 50.358 16.543 0.243 0.182 0.487 0.243 0.73 0.426l155.148 111.237c1.156 0.73 2.311 1.52 3.467 2.433 0.547 0.426 1.095 0.851 1.46 1.095l0.243 0.182c3.041 2.068 6.386 3.102 10.035 3.102 9.731 0 17.698-7.967 17.698-17.759 0-6.872-3.588-11.191-5.96-13.319l-1.399-1.156h-0.061s0-0.061 0-0.061c-0.304-0.182-0.547-0.426-0.851-0.669-225.515-182.273-326.595-220.528-371.722-220.528-104.304 0-155.634 43.607-207.391 96.336z" />
<glyph unicode="&#xe90a;" glyph-name="vs-sportsbook" d="M509.155-38.399c-221.867 0-460.8 136.533-489.244 438.044 0 5.689 0 11.378 0 11.378 0 11.378 0 22.756 0 34.133 5.689 244.622 136.533 392.533 301.511 455.111 0 0 5.689 0 5.689 0 56.889 22.756 119.467 34.133 182.044 34.133 0 0 0 0 0 0 233.244 0 483.556-153.6 494.933-483.556 0 0 0 0 0 0 0-11.378 0-22.756 0-34.133 0-5.689 0-11.378 0-17.067-34.133-301.511-273.067-438.044-494.933-438.044 0 0 0 0 0 0zM435.199 41.245c28.444-5.689 51.2-5.689 79.644-5.689 22.756 0 51.2 0 73.956 5.689l56.889 159.289-39.822 51.2h-187.733l-39.822-51.2 56.889-159.289zM196.266 172.090c39.822-45.511 96.711-85.333 153.6-108.089l-34.133 102.4-119.467 5.689zM713.955 172.090l-34.133-102.4c56.889 22.756 108.089 56.889 153.6 102.4h-119.467zM139.377 246.045h176.356l39.822 51.2-56.889 176.356-62.578 22.756-136.533-108.089c5.689-51.2 22.756-96.711 39.822-142.222zM662.755 297.245l39.822-51.2h176.356c22.756 39.822 34.133 91.022 45.511 142.222l-136.533 102.4-62.578-22.756-62.578-170.667zM423.821 331.379h170.667l51.2 159.289-136.533 102.4-136.533-102.4 51.2-159.289zM150.755 667.023c-28.444-51.2-51.2-113.778-56.889-182.044l91.022 68.267-34.133 113.778zM833.421 553.245l91.022-68.267c-5.689 68.267-28.444 130.844-56.889 182.044l-34.133-113.778zM548.977 655.645l147.911-108.089 62.578 22.756 51.2 170.667c-34.133 34.133-73.956 62.578-119.467 79.644l-142.222-96.711v-68.267zM258.844 570.312l62.578-22.756 147.911 108.089v68.267l-136.533 96.711c-45.511-17.067-91.022-45.511-125.156-79.644l51.2-170.667zM423.821 849.068l91.022-62.578 85.333 62.578c-28.444 5.689-56.889 11.378-91.022 11.378-28.444 0-56.889-5.689-85.333-11.378z" />
<glyph unicode="&#xe90b;" glyph-name="up-bold" d="M816.147 316.609c-10.341 0-20.074 3.65-27.981 11.558l-276.165 276.165-276.165-274.949c-15.207-15.207-40.756-15.207-55.963 0s-15.207 40.756 0 55.963l304.147 302.93c15.207 15.207 40.147 15.207 55.963 0l304.147-304.147c15.207-15.207 15.207-40.756 0-55.963-7.908-7.908-18.249-11.558-27.981-11.558zM814.93-58.1c-55.963 0-108.276 21.899-147.815 61.438l-155.115 155.115-155.723-154.506c-39.539-39.539-91.852-60.829-147.815-60.829 0 0-0.608 0-0.608 0-55.963 0-108.276 21.899-147.815 61.438v0c-66.304 66.912-79.078 170.322-34.064 250.009-45.622 80.903-32.24 184.313 34.673 251.225l302.93 301.713c39.539 39.539 91.852 60.829 147.815 60.829s108.276-21.899 147.815-61.438l302.93-302.93c66.912-66.912 79.686-170.322 34.064-250.617 45.622-80.295 32.848-183.705-34.064-250.617-38.931-39.539-91.244-60.829-147.207-60.829zM511.392 253.346c10.341 0 20.074-3.65 27.981-11.558l183.096-183.096c24.332-24.332 57.18-38.322 91.852-38.322s67.521 13.382 91.852 38.322c45.622 45.622 51.097 119.225 11.558 170.93-10.949 13.991-10.949 34.064 0 48.055 39.539 51.705 34.064 124.7-11.558 170.93l-302.93 302.93c-24.332 24.332-57.18 38.322-91.852 38.322s-67.521-13.382-91.852-37.714l-302.93-301.713c-46.23-45.622-51.097-119.225-11.558-170.93 10.949-13.991 10.949-34.064 0-48.055-38.931-51.097-34.064-124.7 11.558-170.322 24.332-24.332 57.18-38.322 91.852-38.322 0 0 0 0 0 0 34.673 0 67.521 13.382 91.852 37.714l183.096 181.88c7.908 7.3 18.249 10.949 27.981 10.949zM816.147 110.397c-10.341 0-20.074 3.65-27.981 11.558l-276.165 276.165-276.165-274.949c-15.207-15.207-40.756-15.207-55.963 0s-15.207 40.756 0 55.963l304.147 302.93c15.207 15.207 40.147 15.207 55.963 0l304.147-304.147c15.207-15.207 15.207-40.756 0-55.963-7.908-7.908-18.249-11.558-27.981-11.558z" />
<glyph unicode="&#xe90c;" glyph-name="vs-annualincome-icon" d="M873.895 690.175h-725.004c-24.916 0-48.617-6.077-69.887-17.624v160.437c0 26.739 21.27 48.009 47.402 48.009h770.583c26.132 0 47.402-21.27 47.402-48.009 0-21.878 17.624-39.501 39.501-39.501s39.501 17.624 39.501 39.501c0 69.887-56.518 127.012-126.405 127.012h-769.975c-69.887 0-126.405-57.125-126.405-127.012v-748.097c0-82.042 66.849-148.89 148.89-148.89h725.004c82.042 0 148.89 66.849 148.89 148.89v456.394c-0.608 82.042-67.456 148.89-149.498 148.89zM943.783 183.948h-193.861c-25.524 0-46.186 20.662-46.186 46.186v131.874c0 25.524 20.662 46.186 46.186 46.186h193.861v-224.247zM873.895 15.611h-725.004c-38.286 0-69.887 30.993-69.887 69.887v456.394c0 38.286 30.993 69.887 69.887 69.887h725.004c38.286 0 69.887-30.993 69.887-69.887v-54.087h-193.861c-69.28 0-125.189-55.91-125.189-125.189v-131.874c0-69.28 56.518-125.189 125.189-125.189h193.861v-20.055c0-38.894-31.601-69.887-69.887-69.887z" />
<glyph unicode="&#xe90d;" glyph-name="vs-answer" d="M807.829 960h-591.658c-62.632 0-113.71-51.078-113.71-113.71v-494.974c0-224.988 180.599-411.667 402.546-415.316 2.432 0 4.865 0 7.297 0 108.238 0 209.786 41.349 287.012 117.359 79.050 77.834 122.223 181.207 122.223 291.876v501.663c0 62.632-51.078 113.102-113.71 113.102zM842.489 345.235c0-89.387-35.268-172.694-98.508-235.325-63.848-62.632-147.762-96.076-237.15-94.86-179.382 3.040-324.713 153.843-324.713 336.266v495.582c0 18.85 15.202 34.66 34.66 34.66h591.658c18.85 0 34.66-15.202 34.66-34.66v-501.663zM649.729 640.152l-187.895-187.895-86.955 87.563c-15.202 15.202-40.741 15.202-55.943 0s-15.202-40.741 0-55.943l114.926-114.926c7.905-7.905 17.634-11.553 27.971-11.553s20.067 3.648 27.971 11.553l215.867 215.867c15.202 15.202 15.202 40.741 0 55.943-15.81 15.202-40.741 15.202-55.943-0.608z" />
<glyph unicode="&#xe90e;" glyph-name="vs-arrow-down" d="M512.305 172.763c-10.34 0-20.073 3.649-27.98 11.557l-472.616 472.616c-15.206 15.206-15.206 40.753 0 55.959s40.753 15.206 55.959 0l444.636-444.636 444.636 442.811c15.206 15.206 40.753 15.206 55.959 0s15.206-40.753 0-55.959l-472.616-470.182c-7.908-8.516-18.248-12.165-27.98-12.165z" />
<glyph unicode="&#xe90f;" glyph-name="vs-arrows-last-played" d="M414.943 31.758c0 0 0 0 0 0-31.83 0-61.212 12.242-83.248 34.89l-297.492 298.715c-45.909 45.909-45.297 120.588 0 165.885l298.715 298.715c22.037 22.037 51.419 34.278 83.248 34.278 31.218 0 60.6-12.242 83.248-34.278 22.037-22.037 34.278-51.419 34.278-83.248 0-31.218-12.242-60.6-34.278-83.248l-114.466-114.466c-15.303-15.303-41.011-15.303-56.315 0s-15.303 41.011 0 56.315l114.466 114.466c7.345 7.345 11.019 16.527 11.019 26.934s-3.672 19.587-11.019 26.934c-7.345 7.345-16.527 11.019-26.934 11.019s-19.587-3.672-26.934-11.019l-298.715-298.715c-14.691-14.691-14.691-38.564 0-53.867l297.492-298.715c7.345-7.345 16.527-11.019 26.934-11.019 0 0 0 0 0 0 9.794 0 19.587 3.672 26.934 11.019s11.019 16.527 11.019 26.934c0 10.405-3.672 19.587-11.019 26.934l-113.854 114.466c-15.303 15.303-15.303 41.011 0 56.315s41.011 15.303 56.315 0l113.854-114.466c22.037-22.037 34.278-52.030 34.278-83.248s-12.242-60.6-34.89-83.248c-22.037-22.648-51.419-34.278-82.636-34.278zM905.251 31.758c0 0 0 0 0 0-31.83 0-61.212 12.242-83.248 34.89l-297.492 298.715c-45.909 45.909-45.297 120.588 0 165.885l298.715 298.715c22.037 22.037 51.419 34.278 83.248 34.278 31.218 0 60.6-12.242 83.248-34.278 22.037-22.037 34.278-51.419 34.278-83.248 0-31.218-12.242-60.6-34.278-83.248l-114.466-114.466c-15.303-15.303-41.011-15.303-56.315 0s-15.303 41.011 0 56.315l114.466 114.466c7.345 7.345 11.019 16.527 11.019 26.934s-3.672 19.587-11.019 26.934c-7.345 7.345-16.527 11.019-26.934 11.019s-19.587-3.672-26.934-11.019l-298.715-298.715c-14.691-14.691-14.691-38.564 0-53.867l297.492-298.715c7.345-7.345 16.527-11.019 26.934-11.019 0 0 0 0 0 0 9.794 0 19.587 3.672 26.934 11.019s11.019 16.527 11.019 26.934c0 10.405-3.672 19.587-11.019 26.934l-113.854 114.466c-15.303 15.303-15.303 41.011 0 56.315s41.011 15.303 56.315 0l113.854-114.466c22.037-22.037 34.278-52.030 34.278-83.248s-12.242-60.6-34.89-83.248c-22.037-22.648-51.419-34.278-82.636-34.278z" />
<glyph unicode="&#xe910;" glyph-name="vs-arrows-out" d="M135.041 880.862h232.864c21.888 0 39.52 17.632 39.52 39.52s-17.632 39.52-39.52 39.52h-326.495c-10.944 0.608-21.888-3.040-29.792-11.552-8.512-8.512-12.16-19.456-11.552-29.792v-331.967c0-21.888 17.632-39.52 39.52-39.52s39.52 17.632 39.52 39.52v238.336l289.407-289.407c7.904-7.904 17.632-11.552 27.968-11.552s20.064 3.648 27.968 11.552c15.2 15.2 15.2 40.736 0 55.936l-289.407 289.407zM1023.327 309.951c0 21.888-17.632 39.52-39.52 39.52s-39.52-17.632-39.52-39.52v-238.336l-289.407 289.407c-15.2 15.2-40.736 15.2-55.936 0s-15.2-40.736 0-55.936l289.407-289.407h-232.864c-21.888 0-39.52-17.632-39.52-39.52s17.632-39.52 39.52-39.52h326.495c0.608 0 1.216 0 1.824 0 10.336 0 20.064 3.648 27.968 11.552 8.512 8.512 12.16 19.456 11.552 29.792v331.967zM627.52 523.967c10.336 0 20.064 3.648 27.968 11.552l289.407 289.407v-232.864c0-21.888 17.632-39.52 39.52-39.52s39.52 17.632 39.52 39.52v325.887c0.608 10.944-3.040 21.888-11.552 29.792-8.512 8.512-19.456 12.16-29.792 11.552h-331.967c-21.888 0-39.52-17.632-39.52-39.52s17.632-39.52 39.52-39.52h238.336l-289.407-289.407c-15.2-15.2-15.2-40.736 0-55.936 7.904-6.688 17.632-10.944 27.968-10.944zM368.512 360.415l-289.407-289.407v232.864c0 21.888-17.632 39.52-39.52 39.52s-39.52-17.632-39.52-39.52v-326.495c-0.608-10.944 3.040-21.888 11.552-29.792 7.904-7.904 17.632-11.552 27.968-11.552 0.608 0 1.216 0 1.824 0h331.967c21.888 0 39.52 17.632 39.52 39.52s-17.632 39.52-39.52 39.52h-238.336l289.407 289.407c15.2 15.2 15.2 40.736 0 55.936-15.808 15.2-40.736 15.2-55.936 0z" />
<glyph unicode="&#xe911;" glyph-name="vs-arrow-up" d="M511.999 723.768c10.34 0 20.073-3.649 27.98-11.557l472.616-472.616c15.206-15.206 15.206-40.753 0-55.959s-40.753-15.206-55.959 0l-444.636 444.636-444.636-442.811c-15.206-15.206-40.753-15.206-55.959 0s-15.206 40.753 0 55.959l472.616 470.182c7.908 8.516 18.248 12.165 27.98 12.165z" />
<glyph unicode="&#xe912;" glyph-name="vs-bank" d="M822.742 415.67c-0.565 0.565-0.565 1.13-1.13 1.695l-181.925 258.198c23.164 16.95 43.504 38.984 58.758 64.408 15.255 25.989 23.164 51.414 23.164 76.273 0 0.565 0 1.695 0 2.26-2.825 41.809-22.599 64.408-38.419 75.708-20.904 15.255-44.634 19.209-64.408 19.209-10.17 20.339-27.119 35.029-49.719 42.374-38.419 11.865-83.053-1.695-120.342-36.724-28.814-27.119-38.984-26.554-66.668-24.859-5.085 0.565-10.17 0.565-15.82 0.565-37.854 1.13-53.673-18.644-59.888-30.509-12.43-24.294-5.085-55.933 19.209-87.007 3.39-4.52 8.475-11.3 13.56-18.644 9.605-14.125 20.904-29.944 33.334-44.634 0.565-0.565 0.565-0.565 1.13-1.13 2.26-2.26 15.82-16.95 34.464-31.639-51.979-63.843-156.5-192.659-197.744-250.853-1.695-1.695-2.825-3.955-3.955-5.65 0-0.565-0.565-0.565-0.565-1.13l-1.695-2.825c-34.464-49.719-52.543-107.347-52.543-165.54 0-176.275 161.585-319.216 360.46-319.216s360.46 142.941 360.46 319.216c-1.13 56.498-17.514 111.867-49.719 160.455zM385.445 820.198c37.289-1.695 68.928 2.825 114.127 45.199 19.209 18.079 38.419 23.164 48.024 20.339 2.825-0.565 5.65-2.26 6.78-9.040 0.565-2.26 1.13-5.085 1.13-7.345 0 0 0 0 0 0s0 0 0 0c2.825-20.904-3.955-29.944-10.17-35.594-15.255-13.56-16.95-36.724-3.39-51.979 7.345-8.475 17.514-12.43 27.684-12.43 8.475 0 17.514 2.825 24.294 9.040 14.125 12.43 29.379 32.204 34.464 61.018 4.52-0.565 9.040-2.26 11.865-4.52 1.695-1.13 6.78-5.085 8.475-19.774-0.565-10.735-4.52-23.164-12.995-37.289-15.255-25.424-37.854-45.764-63.278-56.498 0 0 0 0 0 0s0 0 0 0c-14.125-6.215-29.379-9.040-44.634-9.040-16.385 0-32.204 2.825-47.459 9.605l-1.695 0.565c0 0 0 0 0 0s0 0-0.565 0c-19.209 9.040-42.374 31.074-50.284 39.549-9.605 11.3-19.209 25.424-27.684 37.854-5.65 7.345-10.17 14.69-14.69 20.339zM511.436 9.447c-158.195 0-287.012 110.172-287.012 245.768 0 43.504 13.56 86.443 39.549 124.296l0.565 0.565c0.565 0.565 1.13 1.695 1.695 2.26 1.13 1.13 2.26 2.825 3.39 4.52 42.939 59.888 159.89 203.394 204.524 258.763 17.514-5.085 35.594-7.345 53.673-7.345 14.69 0 29.379 1.695 44.069 5.65l189.27-268.367c0 0 0.565-0.565 0.565-0.565 23.729-36.159 36.159-77.403 36.159-119.212 0-136.161-128.251-246.333-286.447-246.333zM597.314 304.368c-23.164 20.339-53.673 31.639-85.878 31.639-14.125 0-27.684 4.52-37.289 13.56-5.085 4.52-12.995 13.56-12.995 26.554 0 21.469 23.164 40.114 50.284 40.114 0 0 0 0 0 0s0 0 0 0c14.125 0 27.684-5.085 37.289-13.56 15.255-13.56 38.419-11.865 51.979 3.39s11.865 38.419-3.39 51.979c-14.125 12.43-31.074 21.469-49.154 26.554v10.17c0 20.339-16.385 36.724-36.724 36.724s-36.724-16.385-36.724-36.724v-10.17c-50.284-14.125-87.007-57.628-87.007-108.477 0-31.074 13.56-60.453 37.854-81.923 23.164-20.339 53.673-31.639 85.878-31.639 14.125 0 27.684-5.085 37.289-13.56 5.085-4.52 12.995-13.56 12.995-26.554 0-22.034-22.599-40.114-50.284-40.114 0 0 0 0 0 0s0 0 0 0c-14.125 0-27.684 4.52-37.289 13.56-15.255 13.56-38.419 11.865-51.979-3.39s-11.865-38.419 3.39-51.979c14.125-12.43 31.074-21.469 49.154-26.554v-4.52c0-20.339 16.385-36.724 36.724-36.724s36.724 16.385 36.724 36.724v4.52c50.284 14.125 87.007 57.628 87.007 108.477 0 31.074-13.56 60.453-37.854 81.923z" />
<glyph unicode="&#xe913;" glyph-name="vs-bell" d="M511.090-61.572c-48.56 0-94.692 18.816-129.289 53.417-24.887 24.887-41.882 55.844-49.166 89.835h-165.708c-21.851 0-39.454 17.603-39.454 39.454v53.417c0 10.927 4.248 21.245 12.14 28.529 87.408 83.157 92.263 180.277 92.869 185.74v163.282c0 114.723 71.018 217.303 176.028 259.187v47.953c0 57.059 46.132 103.189 103.189 103.189s103.189-46.132 103.189-103.189v-47.953c105.010-41.882 176.028-144.463 176.028-259.187v-163.282c0-6.676 5.463-103.189 92.869-185.74 7.891-7.284 12.14-17.603 12.14-28.529v-53.417c0-21.851-17.603-39.454-39.454-39.454h-165.708c-7.284-33.991-24.279-64.948-49.166-89.835-35.814-34.599-81.338-53.417-130.504-53.417zM208.807 160.588h159.032c21.851 0 39.454-17.603 39.454-39.454 0-27.921 10.927-54.023 30.349-73.447s45.524-30.349 73.447-30.349 54.023 10.927 73.447 30.349c19.422 19.422 30.349 45.524 30.349 73.447 0 21.851 17.603 39.454 39.454 39.454h159.032c-98.939 103.796-102.583 221.554-102.583 227.016 0 0 0 0.606 0 0.606v163.889c0 89.835-60.093 168.744-146.892 193.023-16.997 4.857-29.136 20.032-29.136 38.242v75.875c0 13.354-10.927 24.279-24.279 24.279s-24.279-10.927-24.279-24.279v-76.481c0-17.603-12.14-33.385-29.136-38.242-86.193-23.673-146.892-103.189-146.892-193.023v-163.889c0 0 0-0.606 0-0.606 0.606-4.857-2.428-122.005-101.368-226.409z" />
<glyph unicode="&#xe914;" glyph-name="vs-bell-1" d="M684.386 255.886c-161.46 0-293.178 131.717-293.178 293.178s131.717 293.178 293.178 293.178c161.46 0 293.178-131.717 293.178-293.178s-131.717-293.178-293.178-293.178zM684.386 762.726c-118.364 0-214.268-95.904-214.268-214.268s95.904-214.268 214.268-214.268 214.268 95.904 214.268 214.268c0 118.364-95.904 214.268-214.268 214.268zM430.664-63.999c-87.408 0-160.247 61.306-178.457 143.25h-166.317c-21.851 0-39.455 17.603-39.455 39.455v53.416c0 10.927 4.248 21.245 12.14 28.528 87.408 82.551 92.869 178.457 92.869 185.74v163.282c0 114.722 71.018 217.303 176.029 259.186v47.953c0 57.058 46.131 103.189 103.189 103.189s103.189-46.131 103.189-103.189c0-21.851-17.603-39.455-39.455-39.455s-39.455 17.603-39.455 39.455c0 13.353-10.927 24.28-24.28 24.28s-24.28-10.927-24.28-24.28v-76.481c0-17.603-12.14-33.385-29.136-38.241-86.193-23.673-146.892-103.189-146.892-193.023v-163.889c0 0 0-0.607 0-0.607 0-5.463-3.642-122.612-102.582-227.016h159.032c21.851 0 39.455-17.603 39.455-39.455 0-57.058 46.738-103.796 103.796-103.796s103.796 46.738 103.796 103.796c0 21.851 17.603 39.455 39.455 39.455h159.032c-28.528 29.743-51.595 63.128-68.591 100.154-9.105 19.423-0.607 43.096 18.817 52.808 19.423 9.105 43.096 0.607 52.808-18.817 16.388-33.991 38.241-64.948 66.769-91.656 7.892-7.283 12.14-17.603 12.14-28.528v-53.416c0-21.851-17.603-39.455-39.455-39.455h-165.709c-18.21-81.338-91.049-142.644-178.457-142.644zM684.386 382.749c-21.851 0-39.455 17.603-39.455 39.455v253.723c0 21.851 17.603 39.455 39.455 39.455s39.455-17.603 39.455-39.455v-253.723c0-21.851-17.603-39.455-39.455-39.455zM811.249 509.609h-253.723c-21.851 0-39.455 17.603-39.455 39.455s17.603 39.455 39.455 39.455h253.723c21.851 0 39.455-17.603 39.455-39.455s-17.603-39.455-39.455-39.455z" />
<glyph unicode="&#xe915;" glyph-name="vs-book" d="M899.952-64h-775.904c-21.89 0-39.525 17.635-39.525 39.525v944.95c0 21.89 17.635 39.525 39.525 39.525h775.904c10.337 0 20.675-4.256 27.971-11.554s11.554-17.635 11.554-27.971v-944.95c0-21.89-18.242-39.525-39.525-39.525zM163.573 15.050h696.854v865.9h-696.854v-865.9zM725.434 147.61h-427.477c-21.89 0-39.525 17.635-39.525 39.525s17.635 39.525 39.525 39.525h427.477c21.89 0 39.525-17.635 39.525-39.525s-17.635-39.525-39.525-39.525zM446.935 345.235c-10.337 0-20.067 3.648-27.971 11.554l-148.371 148.371c-15.202 15.202-15.202 40.74 0 55.942s40.74 15.202 55.942 0l120.398-120.398 250.527 250.527c15.202 15.202 40.74 15.202 55.942 0s15.202-40.74 0-55.942l-278.498-278.498c-7.906-7.296-18.242-11.554-27.971-11.554z" />
<glyph unicode="&#xe916;" glyph-name="vs-cake" d="M511.036 390.808c-130.169 0-252.624 10.124-345.19 28.445-112.814 22.659-165.846 53.514-165.846 97.867s52.55 75.691 165.846 97.867c92.564 18.321 215.020 28.445 345.19 28.445s252.624-10.124 345.19-28.445c112.814-22.659 165.846-53.514 165.846-97.867s-52.55-75.691-165.846-97.867c-92.564-18.321-215.020-28.445-345.19-28.445zM67.016 517.12c13.016-9.16 49.658-26.034 131.615-40.497 85.815-14.945 196.7-23.624 312.406-23.624s226.591 8.195 312.406 23.624c81.959 14.463 119.080 31.337 131.615 40.497-13.016 9.16-49.658 26.034-131.615 40.497-85.815 14.945-196.7 23.624-312.406 23.624s-226.591-8.195-312.406-23.624c-81.959-14.463-118.599-30.855-131.615-40.497zM960.362 512.781v0 0zM512.965-61.409c-130.169 0-252.624 10.124-345.19 28.445-112.814 22.659-165.846 53.514-165.846 97.867v422.809h62.674c0 2.411-0.964 4.339-0.964 4.821 4.339-6.75 37.122-27.48 136.919-45.319 85.815-14.945 196.7-23.624 312.406-23.624s226.591 8.195 312.406 23.624c99.796 17.356 132.58 38.569 136.919 45.319-0.482-0.482-0.964-2.411-0.964-4.821h62.674v-422.809c0-44.354-52.55-75.691-165.846-97.867-92.564-18.321-215.020-28.445-345.19-28.445zM65.087 68.759c7.232-7.713 41.943-27.48 135.954-43.872 85.815-14.945 196.7-23.624 312.406-23.624s226.591 8.195 312.406 23.624c93.529 16.392 128.241 36.158 135.954 43.872v350.975c-26.034-11.089-60.264-21.213-103.172-29.408-92.564-18.321-215.020-28.445-345.19-28.445s-252.624 10.124-345.19 28.445c-42.908 8.678-77.137 18.321-103.172 29.408v-350.975zM33.75 457.82v30.373h-31.337v32.301h64.603l-1.929-34.229c0 0.482 0 1.447 0 1.929h-31.337v-30.373zM992.662 457.82v30.373h-31.337c0-0.482 0-1.447 0-1.929v1.447l-1.929 32.784h64.603v-32.301h-31.337v-30.373zM992.662 489.157v0 0zM263.233 506.513c-17.356 0-31.337 13.981-31.337 31.337v240.571c0 17.356 13.981 31.337 31.337 31.337s31.337-13.981 31.337-31.337v-240.571c0-17.356-13.981-31.337-31.337-31.337zM227.075 717.677c-3.374 0-6.75 0.482-10.124 1.929-39.051 13.5-52.55 39.051-57.371 57.853-15.91 67.495 62.674 152.828 78.583 169.22 12.053 12.535 31.819 12.535 44.354 0.482s12.535-31.819 0.482-44.354c-29.89-30.855-68.459-86.78-62.192-111.367 0.482-2.411 1.929-8.195 16.874-13.016 16.392-5.785 25.069-23.624 19.284-40.016-4.821-12.535-16.874-20.731-29.89-20.731zM299.392 718.641c-13.016 0-25.069 8.195-29.408 21.213-5.785 16.392 2.892 34.229 19.284 40.016 14.945 5.303 16.392 11.089 16.874 13.016 5.785 24.587-32.301 80.512-62.674 111.367-12.053 12.535-11.571 32.301 0.482 44.354 12.535 12.053 32.301 11.571 44.354-0.482 15.91-16.392 94.493-101.725 78.583-169.22-4.339-18.803-17.838-44.354-57.371-57.853-2.892-1.929-6.75-2.411-10.124-2.411zM517.304 506.513c-17.356 0-31.337 13.981-31.337 31.337v240.571c0 17.356 13.981 31.337 31.337 31.337s31.337-13.981 31.337-31.337v-240.571c0-17.356-13.981-31.337-31.337-31.337zM481.146 717.677c-3.374 0-6.75 0.482-10.124 1.929-39.051 13.5-52.55 39.051-57.371 57.853-15.91 67.495 62.674 152.828 78.583 169.22 12.053 12.535 31.819 12.535 44.354 0.482s12.535-31.819 0.482-44.354c-29.89-30.855-68.459-86.78-62.192-111.367 0.482-2.411 1.929-8.195 16.874-13.016 16.392-5.785 25.069-23.624 19.284-40.016-4.821-12.535-16.874-20.731-29.89-20.731zM553.463 718.641c-13.016 0-25.069 8.195-29.408 21.213-5.785 16.392 2.892 34.229 19.284 40.016 14.945 5.303 16.392 11.089 16.874 13.016 5.785 24.587-32.301 80.512-62.674 111.367-12.053 12.535-11.571 32.301 0.482 44.354 12.535 12.053 32.301 11.571 44.354-0.482 15.91-16.392 94.493-101.725 78.583-169.22-4.339-18.803-17.838-44.354-57.371-57.853-2.892-1.929-6.75-2.411-10.124-2.411zM771.375 506.513c-17.356 0-31.337 13.981-31.337 31.337v240.571c0 17.356 13.981 31.337 31.337 31.337s31.337-13.981 31.337-31.337v-240.571c0-17.356-13.981-31.337-31.337-31.337zM735.217 717.677c-3.374 0-6.75 0.482-10.124 1.929-39.051 13.5-52.55 39.051-57.371 57.853-15.91 67.495 62.674 152.828 78.583 169.22 12.053 12.535 31.819 12.535 44.354 0.482s12.535-31.819 0.482-44.354v0c-29.89-30.855-68.459-86.78-62.674-111.367 0.482-2.411 1.929-8.195 16.874-13.016 16.392-5.785 25.069-23.624 19.284-40.016-4.339-12.535-16.392-20.731-29.408-20.731zM807.534 718.641c-13.016 0-25.069 8.195-29.408 21.213-5.785 16.392 2.892 34.229 19.284 40.016 14.945 5.303 16.392 11.089 16.874 13.016 5.785 24.587-32.301 80.512-62.674 111.367-12.053 12.535-11.571 32.301 0.482 44.354 12.535 12.053 32.301 11.571 44.354-0.482 15.91-16.392 94.493-101.725 78.583-169.22-4.339-18.803-17.838-44.354-57.371-57.853-2.892-1.929-6.75-2.411-10.124-2.411z" />
<glyph unicode="&#xe917;" glyph-name="vs-calendar" d="M1024 796.732c0 21.891-17.634 39.525-39.525 39.525h-216.475v38.917c0 21.891-17.634 39.525-39.525 39.525s-39.525-17.634-39.525-39.525v-38.917h-137.425v38.917c0 21.891-17.634 39.525-39.525 39.525s-39.525-17.634-39.525-39.525v-38.917h-138.033v38.917c0 21.891-17.634 39.525-39.525 39.525s-39.525-17.634-39.525-39.525v-38.917h-215.867c-21.891 0-39.525-17.634-39.525-39.525v-775.905c0-21.891 17.634-39.525 39.525-39.525h944.95c10.337 0 20.675 4.257 27.971 11.553s11.553 17.634 11.553 27.971v775.905zM79.050 60.352v696.855h176.95v-52.295c0-21.891 17.634-39.525 39.525-39.525s39.525 17.634 39.525 39.525v52.295h137.425v-52.295c0-21.891 17.634-39.525 39.525-39.525s39.525 17.634 39.525 39.525v52.295h137.425v-52.295c0-21.891 17.634-39.525 39.525-39.525s39.525 17.634 39.525 39.525v52.295h176.95v-696.855h-865.9zM512 560.799c-38.917 0-70.537-31.62-70.537-70.537s31.62-70.537 70.537-70.537c38.917 0 70.537 31.62 70.537 70.537s-32.228 70.537-70.537 70.537zM512 481.749c-4.865 0-8.513 3.648-8.513 8.513s3.648 8.513 8.513 8.513 8.513-3.648 8.513-8.513-3.648-8.513-8.513-8.513zM512 326.689c-38.917 0-70.537-31.62-70.537-70.537s31.62-70.537 70.537-70.537c38.917 0 70.537 31.62 70.537 70.537-0.608 39.525-32.228 70.537-70.537 70.537zM512 247.639c-4.865 0-8.513 3.648-8.513 8.513s3.648 8.513 8.513 8.513 8.513-3.648 8.513-8.513c0-4.257-3.648-8.513-8.513-8.513zM746.717 560.799c-38.917 0-70.537-31.62-70.537-70.537s31.62-70.537 70.537-70.537c38.917 0 70.537 31.62 70.537 70.537s-31.62 70.537-70.537 70.537zM746.717 481.749c-4.865 0-8.513 3.648-8.513 8.513s3.648 8.513 8.513 8.513c4.865 0 8.513-3.648 8.513-8.513s-3.648-8.513-8.513-8.513zM276.675 560.799c-38.917 0-70.537-31.62-70.537-70.537s31.62-70.537 70.537-70.537 70.537 31.62 70.537 70.537-31.62 70.537-70.537 70.537zM276.675 481.749c-4.865 0-8.513 3.648-8.513 8.513s3.648 8.513 8.513 8.513 8.513-3.648 8.513-8.513-3.648-8.513-8.513-8.513zM276.675 326.689c-38.917 0-70.537-31.62-70.537-70.537s31.62-70.537 70.537-70.537 70.537 31.62 70.537 70.537c0 39.525-31.62 70.537-70.537 70.537zM276.675 247.639c-4.865 0-8.513 3.648-8.513 8.513s3.648 8.513 8.513 8.513 8.513-3.648 8.513-8.513c0.608-4.257-3.648-8.513-8.513-8.513zM746.717 326.689c-38.917 0-70.537-31.62-70.537-70.537s31.62-70.537 70.537-70.537c38.917 0 70.537 31.62 70.537 70.537 0 39.525-31.62 70.537-70.537 70.537zM746.717 247.639c-4.865 0-8.513 3.648-8.513 8.513s3.648 8.513 8.513 8.513c4.865 0 8.513-3.648 8.513-8.513 0-4.257-3.648-8.513-8.513-8.513z" />
<glyph unicode="&#xe918;" glyph-name="vs-camera" d="M851.957 20.688h-678.944c-95.12 0-172.769 77.649-172.769 172.769v510.057c0 95.12 77.649 172.769 172.769 172.769h678.459c95.12 0 172.769-77.649 172.769-172.769v-510.057c0.485-95.12-77.164-172.769-172.284-172.769zM173.013 813.193c-60.663 0-109.679-49.016-109.679-109.679v-510.057c0-60.663 49.016-109.679 109.679-109.679h678.459c60.663 0 109.679 49.016 109.679 109.679v510.057c0 60.663-49.016 109.679-109.679 109.679h-678.459zM820.897 555.496h-67.458c-35.913 0-65.031 29.118-65.031 65.031v67.458c0 35.913 29.118 65.031 65.031 65.031h67.458c35.913 0 65.031-29.118 65.031-65.031v-67.458c0-35.913-29.118-65.031-65.031-65.031zM753.441 690.411c-0.97 0-1.941-0.97-1.941-1.941v-67.458c0-0.97 0.97-1.941 1.941-1.941h67.458c0.97 0 1.941 0.97 1.941 1.941v66.973c0 0.97-0.97 1.941-1.941 1.941h-67.458zM408.387 161.912c-139.768 0-253.815 114.047-253.815 253.815s114.047 253.815 253.815 253.815c139.768 0 253.815-114.047 253.815-253.815s-114.047-253.815-253.815-253.815zM408.387 606.453c-105.311 0-190.725-85.414-190.725-190.725s85.414-190.725 190.725-190.725 190.725 85.414 190.725 190.725c0 105.311-85.414 190.725-190.725 190.725z" />
<glyph unicode="&#xe919;" glyph-name="vs-cashback" d="M509.568 463.506c10.337 0 21.283 0.608 31.62 1.824 52.295-58.375 125.872-91.819 205.53-91.819 152.627 0 276.675 124.047 276.675 276.675s-124.047 276.675-276.675 276.675c-31.012 0-61.416-4.865-90.603-15.202-42.565 31.012-93.644 48.038-146.546 48.038-136.817 0-248.095-111.278-248.095-248.095-0.608-136.817 111.278-248.095 248.095-248.095zM944.95 650.793c0-108.846-88.779-197.625-197.625-197.625-62.632 0-120.399 28.58-158.1 79.050-25.539 34.66-39.525 75.401-39.525 118.575 0 35.876 9.729 70.537 27.971 100.333 20.675 34.66 51.078 62.632 88.779 79.658 25.539 11.553 52.903 17.634 81.482 17.634 108.238 0 197.017-88.779 197.017-197.625zM509.568 881.254c23.107 0 44.998-4.865 65.672-13.378 0 0-0.608-0.608-0.608-0.608-3.648-3.040-7.297-5.473-10.337-8.513-0.608-0.608-1.216-1.216-2.432-1.824-3.040-3.040-6.081-5.473-9.121-8.513-0.608-0.608-0.608-0.608-1.216-1.216-3.040-3.040-6.081-6.689-9.729-9.729-0.608-0.608-1.216-1.824-1.824-2.432-3.040-3.648-6.081-6.689-9.121-10.337 0 0-0.608-0.608-0.608-0.608-2.432-3.648-5.473-6.689-7.905-10.337-0.608-0.608-1.216-1.824-1.824-2.432-2.432-3.648-4.865-7.297-7.297-10.945-0.608-0.608-0.608-1.216-1.216-1.824-2.432-3.648-4.257-6.689-6.081-10.337-0.608-0.608-0.608-1.216-1.216-1.824-2.432-3.648-4.257-7.905-6.081-12.162-0.608-0.608-0.608-1.824-1.216-2.432-1.824-3.648-3.648-7.905-5.473-12.162 0 0 0-0.608-0.608-0.608-1.824-4.257-3.648-8.513-4.865-12.77-0.608-1.216-0.608-1.824-1.216-3.040-1.216-4.257-3.040-8.513-4.257-12.77 0-0.608 0-1.216-0.608-1.824-1.216-4.257-2.432-7.905-3.040-12.162 0-1.216-0.608-1.824-0.608-3.040-1.216-4.257-1.824-9.121-2.432-13.378 0-0.608 0-1.824-0.608-2.432-0.608-4.257-1.216-8.513-1.824-12.162 0-0.608 0-1.216 0-1.824-0.608-4.865-0.608-9.121-1.216-13.986 0-1.216 0-1.824 0-3.040 0-4.865-0.608-9.729-0.608-13.986s0-8.513 0.608-12.77c0-1.216 0-2.432 0-4.257 0-3.040 0.608-6.081 0.608-9.121 0-1.216 0-3.040 0.608-4.257 0.608-3.040 0.608-5.473 1.216-8.513 0-1.216 0.608-3.040 0.608-4.257 0.608-3.648 1.216-7.297 1.824-10.945 0-0.608 0-1.216 0.608-1.824 0.608-4.257 1.824-7.905 3.040-12.162 0-1.216 0.608-2.432 1.216-3.648 0.608-3.040 1.824-6.081 2.432-8.513 0.608-1.216 0.608-3.040 1.216-4.257 0.608-3.040 1.824-5.473 3.040-7.905 0.608-1.216 0.608-2.432 1.216-3.648 1.216-3.040 2.432-6.081 3.648-9.729 0-0.608 0.608-1.216 0.608-1.824-85.131 9.121-151.411 80.874-151.411 168.437-1.216 91.819 74.793 167.829 168.437 167.829zM1024 251.287c0 53.511-43.173 96.684-96.684 96.684-19.458 0-38.917-6.081-55.335-17.026 0 0 0 0 0 0s0 0 0 0l-82.090-58.983c-15.202 31.62-46.822 54.119-83.306 55.335-1.216 0-2.432 0-4.257 0h-133.777l-88.779 71.753c-1.216 0.608-1.824 1.824-3.040 2.432-26.147 17.634-57.159 26.755-88.779 26.755h-175.734c-18.85 17.026-43.781 27.363-71.145 27.363h-101.549c-21.891 0-39.525-17.634-39.525-39.525v-332.009c0-21.891 17.634-39.525 39.525-39.525h101.549c0 0 0 0 0 0 34.052 0 64.456 15.81 83.914 40.741 22.499-2.432 57.159-9.729 76.618-29.188 43.781-44.998 117.967-119.791 263.905-119.791 86.347 0 220.123 75.401 420.789 237.758 0 0 0 0 0.608 0 1.216 1.216 3.040 2.432 4.257 3.040 0 0 0.608 0.608 0.608 0.608 0.608 0.608 1.216 1.216 1.824 1.824 18.85 18.85 30.404 44.39 30.404 71.753zM168.437 150.955c0-15.202-12.162-27.363-27.363-27.363h-62.024v252.351h62.024c15.202 0 27.363-12.162 27.363-27.363v-197.625zM357.549 112.038c-32.228 32.836-77.226 45.606-110.062 50.47v186.071h139.857c15.81 0 31.012-4.257 43.781-12.77l97.9-79.050c7.297-5.473 15.81-8.513 24.931-8.513h147.762c9.729 0 17.634-7.905 17.634-17.634 0-6.081-3.040-11.553-7.905-14.594v0c-3.040-1.824-6.081-3.040-9.729-3.040h-139.249c-21.891 0-39.525-17.634-39.525-39.525s17.634-39.525 39.525-39.525h139.249c1.216 0 2.432 0 4.257 0 18.85 0.608 35.876 6.689 50.47 16.418 0 0 0.608 0 0.608 0.608l155.059 111.278c1.216 0.608 2.432 1.824 3.648 2.432 0.608 0.608 1.216 0.608 1.216 1.216v0c3.040 1.824 6.081 3.040 9.729 3.040 9.729 0 17.634-7.905 17.634-17.634 0-6.689-3.648-10.945-6.081-13.378l-1.824-1.216c0 0-0.608-0.608-0.608-0.608-225.596-182.423-326.537-220.732-371.534-220.732-103.981 0-155.059 43.781-206.746 96.684z" />
<glyph unicode="&#xe91a;" glyph-name="vs-casino-coin" d="M512 960c-282.335 0-512-229.665-512-512s229.665-512 512-512 512 229.665 512 512-230.277 512-512 512zM512 16.229c-238.239 0-432.383 194.144-432.383 432.383s194.144 432.383 432.383 432.383c238.239 0 432.383-194.144 432.383-432.383-0.612-238.852-194.144-432.383-432.383-432.383zM633.263 438.813c-32.459 28.785-75.943 44.708-121.263 44.708-26.335 0-50.833 8.574-68.593 25.11-16.536 14.699-25.722 33.684-25.722 53.895 0 43.483 42.258 79.005 94.316 79.005 0 0 0 0 0 0s0 0 0 0c26.335 0 50.833-8.574 68.593-25.11 16.536-14.699 41.646-12.861 56.344 3.675s12.861 41.646-3.675 56.344c-23.273 20.211-51.445 34.297-81.455 40.421v28.785c0 22.048-17.761 39.809-39.809 39.809s-39.809-17.761-39.809-39.809v-28.785c-77.167-16.536-134.737-79.617-134.737-154.335 0-43.483 18.986-83.904 53.282-113.914 32.459-28.785 75.943-44.708 121.263-44.708 26.335 0 50.833-8.574 68.593-25.11 16.536-14.699 25.722-33.684 25.722-53.895 0-43.483-42.258-79.005-94.928-79.005 0 0 0 0 0 0s0 0 0 0c-26.335 0-50.833 8.574-68.593 25.11-16.536 14.699-41.646 12.861-56.344-3.675s-12.861-41.646 3.675-56.344c23.273-20.211 50.833-34.297 81.455-40.421v-20.211c0-22.048 17.761-39.809 39.809-39.809s39.809 17.761 39.809 39.809v20.211c77.167 16.536 134.737 79.617 134.737 154.335 0.612 43.483-18.373 83.904-52.67 113.914z" />
<glyph unicode="&#xe91b;" glyph-name="vs-category-icon" d="M428.997 492.389h-388.561c-21.891 0-39.525 17.634-39.525 39.525v388.561c0 21.891 17.634 39.525 39.525 39.525h388.561c21.891 0 39.525-17.634 39.525-39.525v-388.561c0-21.891-17.634-39.525-39.525-39.525zM79.962 571.439h309.511v309.511h-309.511v-309.511zM983.563 492.389h-388.561c-21.891 0-39.525 17.634-39.525 39.525v388.561c0 21.891 17.634 39.525 39.525 39.525h388.561c21.891 0 39.525-17.634 39.525-39.525v-388.561c0-21.891-17.634-39.525-39.525-39.525zM634.527 571.439h309.511v309.511h-309.511v-309.511zM428.997-64h-388.561c-21.891 0-39.525 17.634-39.525 39.525v388.561c0 21.891 17.634 39.525 39.525 39.525h388.561c21.891 0 39.525-17.634 39.525-39.525v-388.561c0-21.891-17.634-39.525-39.525-39.525zM79.962 15.049h309.511v309.511h-309.511v-309.511zM983.563-64h-388.561c-21.891 0-39.525 17.634-39.525 39.525v388.561c0 21.891 17.634 39.525 39.525 39.525h388.561c21.891 0 39.525-17.634 39.525-39.525v-388.561c0-21.891-17.634-39.525-39.525-39.525zM634.527 15.049h309.511v309.511h-309.511v-309.511z" />
<glyph unicode="&#xe91c;" glyph-name="vs-chain" d="M1003.52 726.528c0-0.040 0-0.089 0-0.137 0-58.901-23.435-112.328-61.489-151.466l0.049 0.051c-24.576-28.672-65.536-69.632-118.784-122.88-30.223-26.406-67.744-45.206-109.147-53.021l-1.445-0.227c-9.087-1.32-19.578-2.074-30.246-2.074-32.024 0-62.461 6.794-89.949 19.018l1.411-0.56s16.384 16.384 45.056 49.152c21.337 25.702 48.994 45.445 80.614 56.929l1.306 0.415c9.483 4.234 17.611 9.739 24.61 16.416l-0.034-0.032c24.576 24.576 61.44 61.44 114.688 110.592 17.771 17.847 28.757 42.462 28.757 69.642 0 1.437-0.031 2.867-0.091 4.289l0.007-0.203c0.050 1.122 0.079 2.438 0.079 3.76 0 25.998-11.043 49.416-28.695 65.82l-0.056 0.051c-16.455 17.707-39.873 28.751-65.87 28.751-1.323 0-2.64-0.029-3.949-0.085l0.187 0.006c-1.218 0.054-2.647 0.084-4.083 0.084-27.181 0-51.797-10.986-69.648-28.76l0.003 0.003c-43.702-39.791-83.855-81.242-121.297-125.078l-1.583-1.898c-31.114-46.075-64.822-86.287-102.231-122.716l-0.169-0.164c-4.096-4.096-8.192-8.192-12.288-8.192-11.665 25.082-18.469 54.447-18.469 85.401 0 10.332 0.758 20.487 2.222 30.412l-0.136-1.125c5.258 42.162 24.642 79.036 53.188 106.438l0.060 0.058c40.96 45.056 81.92 86.016 126.976 126.976 36.182 35.634 85.876 57.637 140.71 57.637 3.814 0 7.603-0.106 11.365-0.317l-0.522 0.023c58.262-0.841 110.524-25.843 147.341-65.41l0.115-0.126c35.46-39.133 58.213-90.363 61.411-146.824l0.029-0.632zM532.48 349.696c-35.732-36.288-69.281-75.032-100.255-115.837l-2.145-2.947c-40.17-54.733-86.074-101.939-137.681-142.172l-1.583-1.188c-14.364-11.279-32.704-18.088-52.635-18.088-6.016 0-11.887 0.62-17.553 1.801l0.556-0.097c-25.19 4.238-46.66 17.66-61.271 36.636l-0.169 0.228c-15.881 16.434-25.668 38.846-25.668 63.543 0 25.83 10.704 49.16 27.919 65.795l0.026 0.025 1.819 1.709c36.864 36.864 73.728 77.824 114.688 114.688 4.848 7.491 11.884 13.205 20.197 16.292l0.283 0.092c30.755 13.743 56.714 33.142 77.6 57.081l0.224 0.263 49.152 49.152c-25.575 13.77-55.968 21.862-88.25 21.862-51.835 0-98.798-20.861-132.95-54.646l0.017 0.016c-45.056-40.96-86.016-81.92-126.976-126.976-35.578-37.988-57.429-89.212-57.429-145.539 0-2.114 0.031-4.221 0.092-6.321l-0.007 0.308c-0.012-0.816-0.019-1.778-0.019-2.743 0-56.793 23.542-108.088 61.401-144.658l0.058-0.056c36.625-37.916 87.92-61.459 144.713-61.459 0.964 0 1.927 0.007 2.888 0.020l-0.145-0.002c2.53-0.111 5.498-0.174 8.48-0.174 55.559 0 105.999 21.921 143.142 57.585l-0.070-0.067c57.344 53.248 98.304 94.208 126.976 122.88 27.961 29.355 47.125 67.321 53.124 109.527l0.124 1.065c1.215 8.539 1.909 18.4 1.909 28.424 0 31.231-6.736 60.889-18.835 87.6l0.542-1.336zM339.968 284.16c28.672-28.672 57.344-28.672 90.112 4.096 106.496 106.496 188.416 184.32 241.664 241.664 4.096 0 8.192 8.192 16.384 20.48 2.517 9.436 6.753 17.657 12.391 24.709l-0.103-0.133c-6.842 9.115-13.551 17.123-20.652 24.764l0.172-0.188c-8.192 12.288-16.384 20.48-24.576 20.48-20.48 16.384-40.96 12.288-65.536-8.192l-245.76-241.664c-28.672-32.768-28.672-61.44-4.096-86.016z" />
<glyph unicode="&#xe91d;" glyph-name="vs-chat" d="M823.908-13.977c-5.886 0-17.656 0-23.54 5.886l-76.506 58.85h-211.862c-11.77 0-17.656 5.886-29.426 11.77-5.886 5.886-11.77 17.656-11.77 29.426v223.632h-41.196l-123.586-88.276c-11.77-11.77-29.426-11.77-47.080 0l-123.586 82.39h-94.16c-23.54 0-41.196 17.656-41.196 41.196v523.77c0 17.656 17.656 35.31 41.196 35.31h717.977c23.54 0 41.196-17.656 41.196-41.196v-400.184h182.436c23.54 0 41.196-17.656 41.196-41.196v-341.333c0-23.54-17.656-41.196-41.196-41.196h-58.85l-76.506-58.85c-11.77 0-17.656 0-23.54 0zM547.311 127.264h182.436c5.886 0 17.656 0 23.54-5.886l64.736-47.080 64.736 47.080c5.886 5.886 17.656 5.886 23.54 5.886h29.426v264.828h-147.126v-41.196c0-11.77-5.886-17.656-11.77-29.426s-17.656-11.77-29.426-11.77h-200.092v-182.436zM82.392 392.092h70.62c5.886 0 17.656 0 23.54-5.886l105.931-82.39 111.816 82.39c5.886 5.886 17.656 5.886 23.54 5.886h300.138v441.379h-635.585v-441.379zM576.736 550.988c-35.31 0-64.736 29.426-64.736 64.736s29.426 64.736 64.736 64.736c35.31 0 64.736-29.426 64.736-64.736 0-41.196-29.426-64.736-64.736-64.736zM576.736 627.494c-5.886 0-17.656-5.886-17.656-17.656 0-17.656 29.426-17.656 29.426 0 5.886 11.77 0 17.656-11.77 17.656zM400.185 550.988c-35.31 0-64.736 29.426-64.736 64.736s29.426 64.736 64.736 64.736 64.736-29.426 64.736-64.736c0-41.196-29.426-64.736-64.736-64.736zM400.185 627.494c-5.886 0-17.656-5.886-17.656-17.656 0-17.656 29.426-17.656 29.426 0 5.886 11.77-5.886 17.656-11.77 17.656zM223.633 550.988c-35.31 0-64.736 29.426-64.736 64.736s29.426 64.736 64.736 64.736 64.736-29.426 64.736-64.736c-5.886-41.196-35.31-64.736-64.736-64.736zM223.633 627.494c-5.886 0-17.656-5.886-17.656-17.656 0-17.656 29.426-17.656 29.426 0 0 11.77-5.886 17.656-11.77 17.656z" />
<glyph unicode="&#xe91e;" glyph-name="vs-chevron-left" d="M236.232 447.999c0 10.34 3.649 20.073 11.557 27.98l472.616 472.616c15.206 15.206 40.753 15.206 55.959 0s15.206-40.753 0-55.959l-444.636-444.636 442.811-444.636c15.206-15.206 15.206-40.753 0-55.959s-40.753-15.206-55.959 0l-470.182 472.616c-8.516 7.908-12.165 18.248-12.165 27.98z" />
<glyph unicode="&#xe91f;" glyph-name="vs-chevron-right" d="M787.845 448.305c0-10.34-3.649-20.073-11.557-27.98l-472.616-472.616c-15.206-15.206-40.753-15.206-55.959 0s-15.206 40.753 0 55.959l444.636 444.636-442.811 444.636c-15.206 15.206-15.206 40.753 0 55.959s40.753 15.206 55.959 0l470.182-472.616c8.516-7.908 12.165-18.248 12.165-27.98z" />
<glyph unicode="&#xe920;" glyph-name="vs-chip-newgames" d="M512 960c-282.147 0-512-229.853-512-512s229.853-512 512-512 512 229.853 512 512-229.853 512-512 512zM844.618 171.325l-63.848 63.848c38.917 48.646 64.456 108.238 71.753 173.302h89.995c-7.905-89.387-43.781-171.477-97.9-237.15zM80.874 408.475h89.995c7.297-65.064 33.444-124.656 71.753-173.302l-63.848-63.848c-54.119 65.672-89.995 147.762-97.9 237.15zM179.382 724.674l63.848-63.848c-38.917-48.646-64.456-108.238-71.753-173.302h-90.603c7.905 89.995 43.781 171.477 98.508 237.15zM512 183.487c-145.938 0-264.513 118.575-264.513 264.513s118.575 264.513 264.513 264.513 264.513-118.575 264.513-264.513-119.183-264.513-264.513-264.513zM724.827 716.769c-48.646 38.917-108.238 64.456-173.302 71.753v90.603c89.995-7.905 171.477-43.781 237.15-98.508l-63.848-63.848zM472.475 789.13c-65.064-7.297-124.656-33.444-173.302-71.753l-63.848 63.848c65.672 54.727 147.154 89.995 237.15 98.508v-90.603zM298.565 179.23c48.646-38.917 108.238-64.456 173.302-71.753v-89.995c-89.995 7.905-171.477 43.781-237.15 98.508l63.848 63.24zM551.525 106.869c65.064 7.297 124.656 33.444 173.302 71.753l63.848-63.848c-65.672-54.727-147.154-89.995-237.15-98.508v90.603zM852.523 487.525c-7.297 65.064-33.444 124.656-71.753 173.302l63.848 63.848c54.727-65.672 89.995-147.154 98.508-237.15h-90.603z" />
<glyph unicode="&#xe921;" glyph-name="vs-circle-min" d="M512 960c-282.654 0-512-229.966-512-512 0-282.654 229.966-512 512-512 282.654 0 512 229.966 512 512 0 282.654-229.966 512-512 512zM512 16.581c-238.024 0-431.419 193.395-431.419 431.419s193.395 431.419 431.419 431.419c238.024 0 431.419-193.395 431.419-431.419s-193.395-431.419-431.419-431.419zM824.407 488.291h-619.855c-22.315 0-40.291-17.976-40.291-40.291s17.976-40.291 40.291-40.291h619.855c22.315 0 40.291 17.976 40.291 40.291s-17.976 40.291-40.291 40.291z" />
<glyph unicode="&#xe922;" glyph-name="supertipset-history1" horiz-adv-x="967" d="M816.203 606.9c-5.329 0-10.659 2.040-14.738 6.078l-50.003 50.003c-3.914 3.914-6.078 9.202-6.078 14.738v90.764c0 11.492 9.326 20.818 20.818 20.818s20.818-9.326 20.818-20.818v-82.146l43.883-43.925c8.118-8.118 8.118-21.317 0-29.435-4.080-4.080-9.409-6.078-14.738-6.078zM251.761 9.814c-99.632 0-167.081 18.361-206.217 56.166-30.269 29.52-45.549 69.863-45.549 119.991 0 17.82 1.915 37.263 5.662 57.831l6.662 35.848h210.131l-6.87-41.552c-0.958-4.788-1.374-8.202-1.374-11.242 0-10.783 0-33.183 59.663-33.183s59.663 19.693 59.663 27.104c0 6.411-1.915 14.947-16.863 24.149-17.529 10.826-39.386 20.068-65.033 27.48-28.645 8.244-57.706 17.986-86.392 28.936-32.143 12.241-59.871 31.725-82.395 57.914-23.899 27.77-36.014 62.41-36.014 103.004 0 111.664 53.293 244.771 307.348 244.771 73.819 0 131.316-14.738 170.911-43.883 42.135-31.018 63.452-74.318 63.452-128.818 0-19.236-2.54-37.929-7.536-55.5-5.246-18.777-10.826-31.81-17.529-41.010l-14.281-21.441h-118.868c31.851-11.492 59.205-30.352 81.396-56.124 23.94-27.813 36.014-63.618 36.014-106.502 0-81.687-25.523-143.765-75.942-184.567-48.712-39.386-122.781-59.371-220.082-59.371zM56.952 226.107c-2.29-14.281-3.414-27.813-3.414-40.137 0-35.681 9.576-62.369 29.311-81.604 28.146-27.188 85.018-41.052 168.954-41.052s147.471 15.988 186.441 47.464c37.721 30.519 56.082 77.316 56.082 142.932 0 30.102-7.536 53.543-23.065 71.57-16.695 19.402-36.556 32.892-60.62 41.26-27.354 9.451-54.958 17.529-82.062 23.982-30.602 7.245-57.207 17.445-79.064 30.31-35.223 20.734-42.676 49.504-42.676 69.988 0 32.059 15.572 85.81 119.658 85.81 90.806 0 100.631-58.164 100.631-83.228 0-8.285-0.833-16.155-2.456-23.649h96.010c1.833 2.998 4.955 9.368 8.91 23.483 3.705 12.907 5.538 26.688 5.538 40.969 0 37.055-13.615 65.117-41.635 85.726-30.186 22.192-76.983 33.432-139.185 33.432-227.493 0-253.847-109.167-253.847-191.27 0-27.813 7.536-50.086 23.065-68.115 16.904-19.652 36.806-33.682 60.953-42.843 27.271-10.45 54.875-19.693 82.146-27.521 30.31-8.743 56.665-19.985 78.315-33.349 34.89-21.567 42.218-49.796 42.218-69.655 0-30.102-14.697-80.605-113.205-80.605s-112.955 53.543-113.205 86.017h-103.796zM326.454 523.171c-66.158 0-66.158-22.649-66.158-32.309 0-7.036 1.915-15.405 16.321-23.857 17.279-10.159 38.887-18.402 64.284-24.398 0.791-0.167 1.541-0.375 2.332-0.542l18.652 19.527c7.994 8.368 11.699 18.486 11.699 31.893 0 11.825 0 29.685-47.089 29.685zM769.239 490.654c-109.041 0-197.766 88.723-197.766 197.766s88.723 197.766 197.766 197.766 197.766-88.723 197.766-197.766-88.723-197.766-197.766-197.766zM769.239 840.388c-83.811 0-151.967-68.157-151.967-151.967s68.157-151.967 151.967-151.967 151.967 68.157 151.967 151.967-68.157 151.967-151.967 151.967z" />
<glyph unicode="&#xe923;" glyph-name="vs-clock" d="M549.686 922.284c-234.368 0-429.469-170.931-467.441-394.595l-17.071 21.24c-12.676 15.775-35.719 18.254-51.493 5.634-15.775-12.676-18.254-35.719-5.634-51.493l71.494-89.015c6.084-7.55 14.93-12.394 24.564-13.465 1.352-0.169 2.647-0.225 3.943-0.225 8.281 0 16.394 2.817 22.93 8.056l95.832 77.015c15.775 12.676 18.254 35.719 5.634 51.493-12.676 15.775-35.719 18.254-51.493 5.634l-25.352-20.394c34.929 185.804 198.255 326.876 394.088 326.876 221.128 0 401.073-179.889 401.073-401.018s-179.889-401.073-401.073-401.073c-107.1 0-207.833 41.691-283.552 117.465-14.31 14.31-37.465 14.31-51.775 0s-14.31-37.465 0-51.775c89.578-89.578 208.677-138.931 335.327-138.931 261.523 0 474.314 212.79 474.314 474.314s-212.79 474.258-474.314 474.258zM549.631 766.339c-20.226 0-36.62-16.394-36.62-36.62v-281.692c0-9.69 3.887-19.043 10.705-25.915l155.213-155.213c7.155-7.155 16.507-10.705 25.915-10.705s18.761 3.55 25.915 10.705c14.31 14.31 14.31 37.465 0 51.775l-144.452 144.452v266.537c0 20.226-16.394 36.62-36.62 36.62z" />
<glyph unicode="&#xe924;" glyph-name="vs-clock-closed" d="M512 960c-282.344 0-512-229.656-512-512s229.656-512 512-512 512 229.656 512 512-229.706 512-512 512zM512 15.109c-238.729 0-432.942 194.212-432.942 432.891s194.212 432.942 432.942 432.942 432.891-194.212 432.891-432.891-194.212-432.891-432.891-432.891zM551.554 464.393v287.759c0 21.858-17.697 39.554-39.554 39.554s-39.554-17.697-39.554-39.554v-304.152c0-10.478 4.161-20.554 11.581-27.974l167.592-167.592c7.72-7.72 17.847-11.581 27.974-11.581s20.253 3.86 27.974 11.581c15.441 15.441 15.441 40.457 0 55.897l-156.011 156.011z" />
<glyph unicode="&#xe925;" glyph-name="vs-close" d="M976.759-64c-12.245 0-24.49 4.453-33.396 13.915l-929.518 929.518c-18.368 18.368-18.368 48.424 0 66.792s48.424 18.368 66.792 0l929.518-929.518c18.368-18.368 18.368-48.424 0-66.792-8.906-9.462-21.151-13.915-33.396-13.915zM47.241-64c-12.245 0-24.49 4.453-33.396 13.915-18.368 18.368-18.368 48.424 0 66.792l929.518 929.518c18.368 18.368 48.424 18.368 66.792 0s18.368-48.424 0-66.792l-929.518-929.518c-8.906-9.462-21.151-13.915-33.396-13.915z" />
<glyph unicode="&#xe926;" glyph-name="vs-close-1" d="M512-64c-282.185 0-512 229.815-512 512s229.815 512 512 512 512-229.815 512-512-229.815-512-512-512zM512 879.904c-237.824 0-431.904-193.463-431.904-431.904 0-237.824 193.463-431.904 431.904-431.904 237.824 0 431.904 193.463 431.904 431.904s-194.079 431.904-431.904 431.904zM292.659 189.228c-10.474 0-20.332 3.697-28.342 11.706-15.403 15.403-15.403 41.28 0 56.684l438.065 438.065c15.403 15.403 41.28 15.403 56.684 0s15.403-41.28 0-56.684l-438.065-438.065c-8.010-8.010-17.868-11.706-28.342-11.706zM730.724 189.228c-10.474 0-20.332 3.697-28.342 11.706l-438.065 438.065c-15.403 15.403-15.403 41.28 0 56.684s41.28 15.403 56.684 0l438.065-438.065c15.403-15.403 15.403-41.28 0-56.684-7.394-8.010-17.868-11.706-28.342-11.706z" />
<glyph unicode="&#xe927;" glyph-name="vs-connections-37" d="M906.204 491.262c-40.080 39.591-87.002 69.406-137.835 88.958 45.456 39.591 74.294 98.244 74.294 163.252 0 119.262-96.778 216.529-215.551 216.529s-215.551-97.267-215.551-216.529c0-6.843 0.489-14.175 0.978-21.017-4.888 0.489-9.776 0.489-15.152 0.489-118.773 0-215.551-97.267-215.551-216.529 0-65.007 28.838-123.661 74.294-163.252-50.833-19.551-97.756-49.367-137.835-88.958-74.783-73.805-116.818-172.539-118.284-278.115-0.489-21.995 17.107-39.591 39.102-40.080 21.506-0.489 39.591 17.107 40.080 39.102 2.933 173.516 145.656 315.262 318.194 315.262 0 0 0 0 0 0s0 0 0 0c172.539 0 315.262-141.257 318.194-315.262 0.489-21.506 18.085-39.102 39.591-39.102 0 0 0.489 0 0.489 0 21.995 0.489 39.102 18.574 39.102 40.080-1.955 105.087-43.99 203.82-118.284 278.115-40.080 39.591-87.002 69.406-137.835 88.958 45.456 39.591 74.294 98.244 74.294 163.252 0 6.843-0.489 13.686-0.978 20.040 4.888 0 9.776 0.489 14.663 0.489 172.539 0 315.262-141.257 318.194-315.262 0.489-21.506 18.085-39.102 39.591-39.102 0 0 0.489 0 0.489 0 21.995 0.489 39.102 18.574 39.102 40.080-0.978 106.065-43.501 204.798-117.795 278.603zM490.742 743.961c0 75.761 61.097 137.347 136.369 137.347s136.369-61.586 136.369-137.347c0-75.761-61.097-137.347-136.369-137.347-14.175 0-28.349 1.955-41.546 6.354-20.529 36.17-50.833 65.985-87.002 85.536-5.377 14.175-7.82 29.327-7.82 45.456zM397.875 369.068c0 0-0.489 0 0 0-75.272 0-136.369 61.586-136.369 137.347s61.097 137.347 136.369 137.347c75.272 0 136.369-61.586 136.369-137.347 0-75.272-61.097-136.858-136.369-137.347 0 0 0 0 0 0z" />
<glyph unicode="&#xe928;" glyph-name="vs-crown" d="M896.378 765.532c-70.495 0-127.62-57.125-127.62-127.62 0-17.016 3.646-34.032 10.331-49.833l-59.556-72.318c-11.547-13.37-29.17-18.839-46.186-15.193-17.624 3.646-30.993 16.408-35.855 33.424-0.608 1.215-0.608 1.823-1.215 3.039l-53.479 137.951c4.254 3.039 9.116 6.077 12.762 9.723 27.955 24.309 43.755 59.556 43.755 96.019 0 70.495-57.125 127.62-127.62 127.62s-127.62-57.125-127.62-127.62c0-37.071 15.801-71.71 43.755-96.019 0.608-0.608 1.215-0.608 1.215-1.215 3.646-3.039 7.293-6.077 11.547-8.508l-53.479-137.951c-0.608-1.215-0.608-1.823-1.215-3.039-4.862-17.016-18.231-29.778-35.855-33.424s-34.64 1.823-46.186 15.193l-58.948 72.318c6.685 15.801 10.331 32.817 10.331 49.833 0 70.495-57.125 127.62-127.62 127.62s-127.62-57.125-127.62-127.62c0-37.071 15.801-71.71 43.755-96.019 0.608-0.608 1.215-0.608 1.215-1.215 14.585-12.154 31.601-21.27 49.225-25.524l77.788-367.060c3.646-18.231 20.055-31.601 38.894-31.601h602.246c0 0 0 0 0 0 18.839 0 34.64 13.37 38.894 31.601l77.18 367.060c18.839 4.862 36.463 13.977 51.048 26.739 27.955 24.309 43.755 58.948 43.755 96.019 0 70.495-57.125 127.62-127.62 127.62zM512.302 829.949c26.739 0 48.617-21.878 48.617-48.617 0-13.977-6.077-27.347-16.408-36.463-6.077-4.862-12.762-8.508-20.055-10.331-5.469-1.215-11.547-1.823-17.624-1.215-1.823 0-3.646 0.608-5.469 1.215-7.293 1.823-14.585 5.469-20.662 10.331 0 0-0.608 0.608-1.215 0.608-10.331 9.116-15.801 21.878-15.801 35.855 0 26.739 21.878 48.617 48.617 48.617zM128.226 686.529c26.739 0 48.617-21.878 48.617-48.617 0-10.939-3.646-21.27-10.331-29.778-1.823-2.431-4.254-4.862-6.685-6.685-1.215-1.215-3.039-2.431-5.469-4.254-5.469-3.646-10.939-5.469-17.016-6.685-3.039-0.608-6.077-0.608-9.116-0.608-11.547 0-23.093 4.254-31.601 12.154-0.608 0-0.608 0.608-1.215 0.608-10.331 9.116-15.801 21.878-15.801 35.855 0 26.132 21.878 48.009 48.617 48.009zM781.52 195.495h-538.436l-68.064 324.52c0 0 0 0 0.608 0s1.215 0.608 1.215 0.608c3.039 1.215 5.469 2.431 8.508 4.254 1.215 0.608 2.431 1.215 3.039 1.823 1.215 0.608 2.431 1.215 3.646 1.823l51.656-62.595c0 0 0.608-0.608 0.608-0.608 30.993-35.855 77.18-51.048 123.366-40.717 45.579 9.723 80.826 42.54 94.196 86.903l49.833 128.836 49.833-128.836c13.977-44.363 48.617-76.572 94.196-86.903 46.186-10.331 92.373 4.862 123.366 40.717 0 0 0.608 0.608 0.608 0.608l51.656 62.595c1.215-0.608 2.431-1.215 3.646-1.823s1.823-1.215 3.039-1.823c2.431-1.215 5.469-2.431 8.508-3.646 0.608 0 1.215-0.608 1.823-0.608 0 0 0 0 0.608 0l-67.456-325.128zM927.979 601.449c-8.508-7.9-20.055-12.154-32.209-12.154-3.039 0-6.077 0-9.116 0.608-6.077 1.215-11.547 3.646-17.016 6.685-1.823 1.215-3.646 2.431-5.469 4.254-0.608 0-0.608 0.608-1.215 0.608 0 0 0 0 0 0-1.823 1.823-3.646 3.646-5.469 5.469s-3.039 4.254-4.254 6.685c-4.254 7.293-6.077 15.193-6.077 23.093 0 26.739 21.878 48.617 48.617 48.617s48.617-21.878 48.617-48.617c0.608-12.762-5.469-26.132-16.408-35.247zM812.513 66.659h-97.234c-21.878 0-39.501-17.624-39.501-39.501s17.624-39.501 39.501-39.501h97.234c21.878 0 39.501 17.624 39.501 39.501s-18.231 39.501-39.501 39.501zM594.344 66.659h-382.253c-21.878 0-39.501-17.624-39.501-39.501s17.624-39.501 39.501-39.501h382.253c21.878 0 39.501 17.624 39.501 39.501s-17.624 39.501-39.501 39.501z" />
<glyph unicode="&#xe929;" glyph-name="vs-delete" d="M905.658 636.919c-21.904 3.042-41.982-11.56-45.024-33.464l-89.44-588.967h-518.389l-89.44 588.967c-3.042 21.904-23.729 36.506-45.024 33.464s-36.506-23.729-33.464-45.024l94.308-622.431c3.042-19.47 19.47-33.464 38.94-33.464h586.534c19.47 0 35.898 13.994 38.94 33.464l94.308 622.431c4.259 21.295-10.952 41.374-32.247 45.024zM918.435 796.938h-236.682v123.513c0 21.904-17.645 39.548-39.548 39.548h-260.411c-21.904 0-39.548-17.645-39.548-39.548v-123.513h-236.682c-21.904 0-39.548-17.645-39.548-39.548s17.645-39.548 39.548-39.548h812.872c21.904 0 39.548 17.645 39.548 39.548s-17.645 39.548-39.548 39.548zM421.342 880.902h181.314v-83.964h-181.314v83.964zM551.547 289.501v307.869c0 21.904-17.645 39.548-39.548 39.548s-39.548-17.645-39.548-39.548v-307.869c0-21.904 17.645-39.548 39.548-39.548s39.548 17.645 39.548 39.548zM671.41 98.452c20.078 0 37.115 15.211 39.548 35.289l48.067 459.37c2.434 21.904-13.386 41.374-35.289 43.199-21.904 2.434-41.374-13.386-43.199-35.289l-48.067-459.37c-2.434-21.904 13.386-41.374 35.289-43.199 1.217 0 2.434 0 3.651 0zM351.98 98.452c1.217 0 3.042 0 4.259 0 21.904 2.434 37.723 21.904 35.289 43.199l-48.067 459.37c-2.434 21.904-21.904 37.723-43.199 35.289-21.904-2.434-37.723-21.904-35.289-43.199l48.067-459.37c1.825-20.078 18.862-35.289 38.94-35.289z" />
<glyph unicode="&#xe92a;" glyph-name="vs-document" d="M200.704 400.896c-20.496 24.573-32.939 56.485-32.939 91.304 0 2.462 0.062 4.91 0.185 7.341l-0.014-0.341c0.201 37.689 14.125 72.088 37.024 98.492l-0.16-0.188c21.535 22.724 51.932 36.865 85.632 36.865 0.135 0 0.27 0 0.405-0.001h-0.021c0.25 0.002 0.545 0.004 0.84 0.004 33.134 0 62.532-15.999 80.888-40.694l0.191-0.269c22.897-26.131 36.865-60.586 36.865-98.304s-13.968-72.173-37.012-98.476l0.148 0.172c-20.003-25.054-50.543-40.967-84.8-40.967-0.428 0-0.855 0.002-1.281 0.007l0.065-0.001c-34.685 3.296-64.925 20.029-85.858 44.864l-0.158 0.192zM393.216 380.416c-0.556 0.073-1.198 0.114-1.85 0.114-4.056 0-7.737-1.605-10.442-4.215l0.005 0.004c-24.157-24.592-57.764-39.833-94.93-39.833-9.901 0-19.549 1.082-28.833 3.133l0.883-0.164c-26.302 7.151-48.619 21.504-65.4 40.8l-0.136 0.16h-8.192c-59.389-40.297-99.654-104.948-106.426-179.278l-0.070-0.946c-4.096-12.288 0-16.384 12.288-20.48h389.12q18.432 0 12.288 24.576c-3.131 73.264-41.038 137.056-97.533 175.631l-0.771 0.497zM905.216 441.856c-25.133-2.649-54.299-4.16-83.817-4.16-3.653 0-7.301 0.023-10.944 0.069l0.552-0.006-94.208 4.096h-188.416c-0.555 0.073-1.197 0.114-1.849 0.114-4.056 0-7.737-1.605-10.443-4.214l0.005 0.004c-8.3-4.825-13.792-13.675-13.792-23.808 0-3.209 0.551-6.289 1.563-9.152l-0.059 0.192c4.096-16.384 12.288-20.48 24.576-20.48h376.832c16.384 0 24.576 8.192 24.576 28.672s-8.192 28.672-24.576 28.672zM712.704 491.008v-4.096h184.32c8.192 0 12.288 0 16.384 4.096 6.013 5.803 9.747 13.933 9.747 22.936 0 3.514-0.569 6.896-1.62 10.057l0.065-0.225c-2.549 11.534-12.51 20.096-24.535 20.479l-0.041 0.001h-376.832c-8.192 0-12.288-4.096-20.48-12.288-4.228-4.5-6.826-10.575-6.826-17.257 0-4.165 1.009-8.094 2.796-11.556l-0.066 0.141c4.35-7.509 12.347-12.479 21.506-12.479 1.082 0 2.148 0.069 3.194 0.204l-0.124-0.013zM905.216 335.36h-376.832c-16.384 0-24.576-8.192-24.576-28.672s8.192-28.672 24.576-28.672h372.736c12.288 0 16.384 4.096 20.48 16.384 1.94 4.214 3.071 9.143 3.071 14.336s-1.131 10.122-3.161 14.554l0.090-0.218c0 8.192-8.192 12.288-16.384 12.288zM1003.52 806.4v-688.128c-0.318-3.264-1.829-6.125-4.086-8.183l-0.010-0.009v-28.672c0-8.192-4.096-12.288-8.192-20.48-6.182-9.583-16.639-15.946-28.609-16.382l-0.063-0.002h-905.216c-20.657 5.271-35.858 23.256-36.86 44.949l-0.004 0.107v716.8c0.286 18.631 11.967 34.463 28.369 40.856l0.303 0.104c0 4.096 4.096 4.096 8.192 4.096h909.312c20.657-5.272 35.857-23.257 36.86-44.949l0.004-0.107zM974.848 794.112c0 16.384-4.096 24.576-16.384 24.576h-69.632c2.779-6.712 4.393-14.506 4.393-22.678 0-2.111-0.108-4.197-0.318-6.252l0.021 0.258v-20.48c0-28.672-12.288-40.96-32.768-40.96h-90.112c-18.437 1.634-32.786 17.005-32.786 35.728 0 0.399 0.007 0.797 0.019 1.194l-0.001-0.058c-0.45 4.448-0.707 9.613-0.707 14.837 0 13.645 1.752 26.881 5.044 39.495l-0.24-1.085h-159.744c2.551-6.052 4.052-13.085 4.096-20.463v-32.785c-4.096-24.576-12.288-36.864-32.768-36.864h-94.208c-16.775 1.159-29.943 15.050-29.943 32.017 0 3.186 0.464 6.264 1.329 9.17l-0.058-0.227v49.152h-155.648v-49.152c0-24.576-12.288-36.864-32.768-36.864h-90.112c-8.192 0-16.384 0-20.48 8.192-4.344 7.034-7.272 15.384-8.172 24.332l-0.020 0.244v49.152h-53.248c-16.384 0-20.48-4.096-20.48-20.48v-692.224c0-8.192 4.096-12.288 4.096-16.384l4.096-4.096c2.701-2.605 6.382-4.21 10.438-4.21 0.652 0 1.294 0.041 1.924 0.122l-0.075-0.008h905.216z" />
<glyph unicode="&#xe92b;" glyph-name="vs-edit-content" d="M1024 771.304c0 23.701-9.116 45.579-26.132 61.987l-100.881 100.881c-15.801 15.801-35.855 24.309-56.517 25.524-1.215 0-3.039 0-4.254 0h-796.714c-21.878 0-39.501-17.624-39.501-39.501v-944.389c0-21.878 17.624-39.501 39.501-39.501h775.444c21.878 0 39.501 17.624 39.501 39.501v588.876l144.028 144.028c16.408 16.408 25.524 38.894 25.524 62.595zM457.002 279.055l-113.643 113.643 364.021 364.021 113.643-113.643-364.021-364.021zM305.681 318.557l77.788-77.788-113.643-35.855 35.855 113.643zM775.444 15.307h-696.441v865.386h640.532l-297.78-298.388h-217.562c-21.878 0-39.501-17.624-39.501-39.501s17.624-39.501 39.501-39.501h138.559l-83.257-83.257c0 0 0 0 0 0-1.215-1.215-1.823-2.431-3.039-3.646 0 0-0.608-0.608-0.608-1.215-0.608-0.608-1.215-1.823-1.823-3.039 0-0.608-0.608-0.608-0.608-1.215-0.608-1.215-1.215-1.823-1.823-3.039 0-0.608-0.608-0.608-0.608-1.215-0.608-1.215-0.608-2.431-1.215-3.039 0 0 0-0.608 0-0.608v-0.608c0 0 0 0 0 0l-3.646-10.939h-41.932c-21.878 0-39.501-17.624-39.501-39.501s17.624-39.501 39.501-39.501h17.016l-49.833-156.79c-4.254-13.977-0.608-29.17 9.723-40.109 7.293-7.293 17.624-11.547 27.955-11.547 4.254 0 7.9 0.608 12.154 1.823l247.948 78.395c0 0 0.608 0 0.608 0 1.215 0.608 2.431 0.608 3.039 1.215 0.608 0 0.608 0.608 1.215 0.608 1.215 0.608 1.823 1.215 3.039 1.215 0.608 0 0.608 0.608 1.215 0.608 1.215 0.608 1.823 1.215 3.039 1.823 0 0 0.608 0.608 0.608 0.608 1.215 1.215 2.431 1.823 3.646 3.039 0 0 0 0 0 0l290.488 290.488v-468.548zM942.566 764.62c0 0 0 0 0 0l-65.633-65.633-113.643 113.643 65.633 65.633c1.823 1.823 4.254 2.431 6.077 2.431v0c2.431 0 4.254-0.608 6.077-2.431l100.881-100.881c2.431-2.431 2.431-4.862 2.431-6.685 0.608-1.215 0.608-4.254-1.823-6.077z" />
<glyph unicode="&#xe92c;" glyph-name="vs-emoji" d="M567.296 529.408c-12.361 18.468-19.93 41.065-20.478 65.396l-0.002 0.14c-0.092 1.496-0.145 3.244-0.145 5.005 0 23.575 9.435 44.947 24.734 60.545l-0.013-0.014c11.409 12.024 27.265 19.731 44.922 20.476l0.134 0.004c18.678-0.554 35.021-10.075 44.933-24.388l0.123-0.188c12.813-18.11 20.481-40.651 20.481-64.983 0-0.194 0-0.389-0.001-0.583v0.030c0.142-1.986 0.224-4.304 0.224-6.641 0-20.426-6.204-39.403-16.83-55.15l0.223 0.35c-11.328-14.99-29.121-24.576-49.152-24.576s-37.824 9.586-49.040 24.421l-0.112 0.155zM403.456 504.832c19.726 1.324 37.070 10.539 49.074 24.483l0.078 0.093c12.45 17.045 20.067 38.314 20.479 61.342l0.001 0.098c-4.096 0-4.096 0-4.096 4.096-0.599 21.761-8.211 41.634-20.643 57.561l0.163-0.217c-9.688 14.877-26.239 24.574-45.056 24.574s-35.369-9.698-44.93-24.368l-0.126-0.206c-11.591-14.603-19.079-32.935-20.463-52.947l-0.017-0.301c-0.608-4.118-0.955-8.872-0.955-13.707 0-20.9 6.485-40.285 17.553-56.253l-0.215 0.327c10.713-14.962 28.039-24.596 47.616-24.596 0.54 0 1.079 0.007 1.615 0.022l-0.079-0.002zM497.664 275.456c-0.695-0.005-1.516-0.009-2.339-0.009-31.263 0-61.477 4.491-90.032 12.864l2.259-0.568c-69.010 16.945-129.392 46.699-181.336 86.842l1.112-0.826h-4.096c16.384-20.48 45.056-49.152 77.824-81.92 36.248-30.187 78.275-55.090 123.929-72.695l3.047-1.033c23.833-9.532 51.458-15.060 80.374-15.060 19.466 0 38.348 2.505 56.339 7.211l-1.545-0.343c43.535 5.618 82.499 21.671 115.411 45.556l-0.723-0.5c49.678 33.898 91.723 74.64 125.975 121.445l1.001 1.435c-23.719-18.724-50.661-35.162-79.484-48.169l-2.436-0.983c-65.785-32.678-143.13-52.222-224.938-53.245l-0.342-0.003zM1001.472 431.104c0-16.384-4.096-45.056-8.192-77.824-8.192-32.768-20.48-65.536-32.768-102.4-17.647-44.576-42.624-82.705-73.805-114.767l0.077 0.079c-40.212-44.079-86.014-82.062-136.529-113.124l-2.735-1.564c-32.959-20.523-71.376-36.149-112.399-44.659l-2.289-0.397c-20.691-7.35-44.563-11.812-69.413-12.285l-0.219-0.003c-10.468-1.958-22.511-3.078-34.816-3.078s-24.348 1.12-36.033 3.263l1.217-0.185c-0.435-0.002-0.949-0.003-1.464-0.003-50.882 0-99.66 9.008-144.827 25.515l2.931-0.937c-60.142 20.696-111.958 51.392-156.125 90.527l0.477-0.415c-45.171 38.105-83.292 82.747-113.358 132.781l-1.33 2.387c-28.558 48.34-48.786 105.057-57.079 165.577l-0.265 2.359v98.304c1.252 28.572 4.183 55.358 8.732 81.588l-0.54-3.764c8.171 44.617 22.407 84.454 42.031 120.964l-1.071-2.18c19.265 35.8 41.018 66.698 65.96 94.692l-0.424-0.484c30.135 33.837 63.728 63.528 100.533 88.895l1.867 1.217c41.081 27.311 88.974 48.499 140.315 60.823l3.045 0.617c22.764 6.177 49.356 10.557 76.68 12.232l1.144 0.056h73.728c16.384 0 40.96-4.096 73.728-8.192 44.84-9.731 84.54-25.289 120.818-46.133l-2.034 1.077c37.359-19.968 69.555-41.706 99.281-66.322l-0.977 0.786c34.12-29.914 63.846-63.543 88.941-100.568l1.171-1.832c27.728-41.164 50.13-88.835 64.673-139.82l0.863-3.54c6.553-24.162 10.956-52.212 12.257-81.069l0.031-0.851v-57.344zM935.936 443.392c0.058 2.575 0.090 5.608 0.090 8.649 0 115.175-47.029 219.366-122.932 294.417l-0.038 0.038c-71.72 78.192-174.359 127.030-288.405 127.030-2.288 0-4.572-0.020-6.851-0.059l0.343 0.005c-4.186 0.153-9.103 0.24-14.040 0.24-112.758 0-214.897-45.46-289.092-119.052l0.028 0.027c-77.886-74.872-127.39-178.774-131.055-294.243l-0.017-0.669c-0.028-1.828-0.044-3.985-0.044-6.145 0-117.248 46.913-223.538 122.992-301.125l-0.068 0.070c73.568-78.313 177.79-127.093 293.405-127.093 3.411 0 6.811 0.042 10.202 0.127l-0.502-0.010c1.698-0.025 3.703-0.040 5.711-0.040 114.802 0 218.62 47.026 293.243 122.865l0.054 0.055c76.738 75.169 124.935 179.22 126.971 294.532l0.005 0.381z" />
<glyph unicode="&#xe92d;" glyph-name="vs-envelope-chat" d="M386.268 79.545c1.907-2.178 3.071-5.049 3.071-8.192s-1.164-6.014-3.083-8.206l0.012 0.014c-12.051-9.986-22.782-20.718-32.445-32.367l-0.323-0.401c-15.028-11.678-28.4-23.752-40.834-36.731l-0.126-0.133c-12.033-10.006-22.762-20.735-32.444-32.367l-0.324-0.401c-16.384-8.192-24.576-4.096-28.672 4.096v8.192l8.192 8.192c53.248 45.056 86.016 77.824 110.592 98.304 4.096 4.096 8.192 4.096 16.384 0zM46.3 198.329c4.096-8.192 8.192-12.288 16.384-4.096 10.006 12.033 20.735 22.762 32.367 32.444l0.401 0.324c12.56 13.112 25.932 25.185 40.133 36.244l0.827 0.62c9.987 12.050 20.718 22.782 32.367 32.445l0.401 0.323c1.907 2.178 3.071 5.049 3.071 8.192s-1.163 6.014-3.083 8.206l0.012-0.014c-8.192 4.096-12.288 4.096-16.384 0-24.576-20.48-57.344-53.248-110.592-98.304l-8.192-8.192h12.288zM193.756 161.465c24.576 20.48 45.056 40.96 57.344 53.248 8.192 8.192 8.192 16.384 0 28.672-2.832 3.747-7.28 6.144-12.288 6.144s-9.456-2.397-12.26-6.105l-0.028-0.039c-36.864-32.768-94.208-90.112-180.224-167.936q-12.288-6.144-12.288-12.288h4.096v-8.192c8.192-16.384 16.384-20.48 28.672-8.192h4.096c16.384 16.384 36.864 32.768 57.344 53.248 23.609 19.951 44.98 40.025 65.262 61.153l0.274 0.287zM324.828 140.985c8.192 8.192 8.192 16.384 0 28.672-2.832 3.747-7.28 6.144-12.288 6.144s-9.456-2.397-12.26-6.105l-0.028-0.039c-36.864-32.768-94.208-90.112-180.224-167.936q-12.288-6.144-12.288-12.288h4.096v-8.192c8.192-16.384 16.384-20.48 28.672-8.192h4.096c16.384 16.384 36.864 32.768 57.344 53.248 23.609 19.95 44.98 40.023 65.261 61.152l0.275 0.288c24.576 20.48 45.056 40.96 57.344 53.248zM988.38 566.969c-11.043-21.403-26.24-39.219-44.655-52.962l-0.401-0.286c-69.632-69.632-172.032-176.128-311.296-311.296-65.536-65.536-110.592-114.688-143.36-143.36-4.844-7.438-13.12-12.288-22.528-12.288s-17.684 4.849-22.465 12.184l-0.063 0.103c-28.672 40.96-73.728 94.208-135.168 167.936s-106.496 126.976-135.168 163.84c-8.192 8.192-12.288 12.288-12.288 16.384-1.962 4.21-3.107 9.139-3.107 14.336s1.145 10.126 3.196 14.55l-0.089-0.214c4.096 0 4.096 0 8.192 4.096 2.066 2.267 4.928 3.779 8.14 4.092l0.052 0.004 389.12 389.12c45.056 40.96 73.728 69.632 94.208 90.112 3.598 8.513 11.164 14.723 20.315 16.36l0.165 0.024h8.192c8.192 0 16.384-8.192 24.576-20.48 15.001-14.653 28.482-30.735 40.263-48.065l0.697-1.087c7.5-7.327 14.241-15.367 20.131-24.033l0.349-0.543c8.192-8.192 16.384-20.48 20.48-24.576 7.5-7.327 14.241-15.368 20.131-24.033l0.349-0.543c8.192-8.192 16.384-20.48 20.48-24.576 17.494-24.397 34.963-45.766 53.658-65.985l-0.41 0.449c11.671-18.5 23.819-34.556 37.177-49.508l-0.313 0.356c15.594-15.326 30.32-31.35 44.206-48.097l0.85-1.055c0.317-3.264 1.829-6.126 4.086-8.183l0.010-0.009c2.267-2.067 3.778-4.928 4.092-8.14l0.004-0.052c8.192-8.192 12.288-16.384 8.192-24.576zM255.196 452.281h4.096c12.288 0 20.48 4.096 36.864 4.096 10.173 2.622 21.853 4.127 33.883 4.127 1.048 0 2.093-0.011 3.136-0.034l-0.155 0.003c28.672 4.096 69.632 8.192 118.784 12.288 34.867 6.52 75.79 10.934 117.492 12.256l1.292 0.032c12.288 0 16.384 4.096 16.384 16.384 12.288 65.536 20.48 118.784 28.672 159.744 4.096 16.384 8.192 45.056 16.384 86.016s12.288 69.632 16.384 90.112v4.096l-4.096-4.096c-4.591-4.965-10.014-9.080-16.061-12.14l-0.323-0.148c-8.192-8.192-12.288-12.288-12.288-16.384-102.4-102.4-180.224-176.128-233.472-229.376-18.155-22.377-36.916-42.436-56.984-61.109l-0.36-0.331c-21.819-22.959-44.531-44.374-68.368-64.497l-1.263-1.039zM496.86 419.513c0 8.192 0 12.288-8.192 12.288-6.712-2.779-14.507-4.392-22.678-4.392-2.111 0-4.197 0.108-6.252 0.318l0.258-0.021c-106.496-12.288-180.224-20.48-225.28-24.576 49.152-61.44 122.88-155.648 221.184-274.432 4.096 4.096 4.096 8.192 4.096 16.384 8.192 65.536 16.384 118.784 20.48 151.552zM910.556 538.297h-4.096c-69.632-4.096-122.88-4.096-155.648-4.096-20.016-2.847-43.133-4.473-66.63-4.473-6.818 0-13.603 0.137-20.354 0.408l0.969-0.031c-0.891 0.109-1.922 0.171-2.967 0.171-14.291 0-25.875-11.585-25.875-25.875 0-1.046 0.062-2.077 0.183-3.090l-0.012 0.123c-2.788-4.533-4.439-10.024-4.439-15.901 0-1.616 0.125-3.203 0.365-4.751l-0.022 0.172c-0.735-9.107-2.186-17.485-4.322-25.585l0.226 1.009c-8.192-16.384-16.384-24.576-28.672-24.576-1.795 0.063-3.905 0.099-6.023 0.099-13.829 0-27.301-1.528-40.257-4.425l1.224 0.23c-12.288 0-16.384-4.096-20.48-16.384-2.622-10.172-4.128-21.85-4.128-33.88 0-1.049 0.011-2.096 0.034-3.14l-0.003 0.156c-16.384-106.496-28.672-184.32-36.864-241.664 94.208 94.208 229.376 229.376 417.792 405.504zM922.844 583.353c-98.304 122.88-176.128 212.992-225.28 274.432-24.576-131.072-40.96-225.28-53.248-286.72 118.784 4.096 212.992 8.192 278.528 12.288z" />
<glyph unicode="&#xe92e;" glyph-name="vs-envelope-dark" d="M1024 790.841c0 0 0 0 0 0v0c0 2.128 0 3.724-0.532 5.851 0 0.532 0 0.532 0 1.064-0.532 2.128-0.532 3.724-1.064 5.319 0 0 0 0 0 0s0 0 0 0c-0.532 1.596-1.064 3.724-2.128 5.319 0 0 0 0.532-0.532 0.532-1.064 1.596-1.596 3.192-2.66 4.788 0 0.532-0.532 0.532-0.532 1.064-1.064 1.596-2.128 2.66-3.724 4.256 0 0 0 0 0 0-1.064 1.064-2.66 2.128-4.256 3.724-0.532 0-0.532 0.532-1.064 0.532-1.596 1.064-3.192 2.128-4.788 2.66 0 0-0.532 0-0.532 0.532-1.596 0.532-3.192 1.596-4.788 2.128 0 0-0.532 0-0.532 0-1.596 0.532-3.724 1.064-5.319 1.064-0.532 0-0.532 0-1.064 0-2.128 0.532-3.724 0.532-5.851 0.532h-945.272c-2.128 0-3.724 0-5.851-0.532-0.532 0-0.532 0-1.064 0-1.596-0.532-3.724-0.532-5.319-1.064 0 0-0.532 0-0.532 0-1.596-0.532-3.192-1.064-4.788-2.128 0 0-0.532 0-0.532-0.532-1.596-1.064-3.192-1.596-4.788-2.66-0.532 0-0.532-0.532-1.064-0.532-1.596-1.064-2.66-2.128-4.256-3.192 0 0 0 0 0 0-1.064-1.064-2.66-2.66-3.724-4.256 0-0.532-0.532-0.532-0.532-1.064-1.064-1.596-2.128-3.192-2.66-4.788 0 0 0-0.532-0.532-0.532-1.064-1.596-1.596-3.192-2.128-5.319 0 0 0 0 0 0s0 0 0 0c-0.532-1.596-1.064-3.724-1.064-5.319 0-0.532 0-0.532 0-1.064 0-1.596-0.532-3.724-0.532-5.319v0c0 0 0 0 0 0v-686.745c0-21.81 17.554-39.364 39.364-39.364h944.74c10.639 0 20.746 4.256 28.193 11.703s11.703 17.554 11.703 28.193v685.149zM862.82 751.476l-351.086-254.803-350.554 254.803h701.639zM78.728 143.46v569.716l409.6-297.891c6.915-4.788 14.895-7.447 23.406-7.447 7.979 0 16.49 2.66 23.406 7.447l409.6 297.891v-569.716h-866.011z" />
<glyph unicode="&#xe92f;" glyph-name="vs-envelope-light" d="M1024.002 790.84c0 0 0 0 0 0v0c0 2.128 0 3.724-0.532 5.851 0 0.532 0 0.532 0 1.064-0.532 2.128-0.532 3.724-1.064 5.319 0 0 0 0 0 0s0 0 0 0c-0.532 1.596-1.064 3.724-2.128 5.319 0 0 0 0.532-0.532 0.532-1.064 1.596-1.596 3.192-2.66 4.788 0 0.532-0.532 0.532-0.532 1.064-1.064 1.596-2.128 2.66-3.724 4.256 0 0 0 0 0 0-1.064 1.064-2.66 2.128-4.256 3.724-0.532 0-0.532 0.532-1.064 0.532-1.596 1.064-3.192 2.128-4.788 2.66 0 0-0.532 0-0.532 0.532-1.596 0.532-3.192 1.596-4.788 2.128 0 0-0.532 0-0.532 0-1.596 0.532-3.724 1.064-5.319 1.064-0.532 0-0.532 0-1.064 0-2.128 0.532-3.724 0.532-5.851 0.532h-945.272c-2.128 0-3.724 0-5.851-0.532-0.532 0-0.532 0-1.064 0-1.596-0.532-3.724-0.532-5.319-1.064 0 0-0.532 0-0.532 0-1.596-0.532-3.192-1.064-4.788-2.128 0 0-0.532 0-0.532-0.532-1.596-1.064-3.192-1.596-4.788-2.66-0.532 0-0.532-0.532-1.064-0.532-1.596-1.064-2.66-2.128-4.256-3.192 0 0 0 0 0 0-1.064-1.064-2.66-2.66-3.724-4.256 0-0.532-0.532-0.532-0.532-1.064-1.064-1.596-2.128-3.192-2.66-4.788 0 0 0-0.532-0.532-0.532-1.064-1.596-1.596-3.192-2.128-5.319 0 0 0 0 0 0s0 0 0 0c-0.532-1.596-1.064-3.724-1.064-5.319 0-0.532 0-0.532 0-1.064 0-1.596-0.532-3.724-0.532-5.319v0c0 0 0 0 0 0v-686.745c0-21.81 17.554-39.364 39.364-39.364h944.74c10.639 0 20.746 4.256 28.193 11.703s11.703 17.554 11.703 28.193v685.149zM862.822 751.476l-351.086-254.803-350.554 254.803h701.639zM78.731 143.46v569.716l409.6-297.891c6.915-4.788 14.895-7.447 23.406-7.447 7.979 0 16.49 2.66 23.406 7.447l409.6 297.891v-569.716h-866.011z" />
<glyph unicode="&#xe930;" glyph-name="vs-envelope-light-open" d="M983.945 606.601c0 0 0 0 0 0 0 0.561 0 0.561 0 0v0.561c0 1.684 0 3.367-0.561 5.051 0 0.561 0 0.561 0 1.122-0.561 1.684-0.561 3.367-1.122 5.051 0 0 0 0 0 0s0 0 0 0c-0.561 1.684-1.122 3.367-2.245 5.051 0 0 0 0.561-0.561 0.561-0.561 1.684-1.684 2.806-2.806 4.489 0 0.561-0.561 0.561-0.561 0.561-1.122 1.122-2.245 2.806-3.367 3.928 0 0 0 0 0 0-1.122 1.122-2.245 2.245-3.928 3.367 0 0-0.561 0.561-0.561 0.561-1.122 1.122-2.806 1.684-3.928 2.245l-430.981 313.696c-12.907 9.54-30.303 9.54-42.649 0l-431.542-313.696c-1.684-0.561-2.806-1.684-3.928-2.806 0 0-0.561-0.561-0.561-0.561-1.122-1.122-2.806-2.245-3.928-3.367 0 0 0 0 0 0-1.122-1.122-2.245-2.245-3.367-3.928 0-0.561-0.561-0.561-0.561-1.122-1.122-1.122-1.684-2.806-2.806-4.489 0 0 0-0.561-0.561-0.561-0.561-1.684-1.684-3.367-2.245-5.051 0 0 0 0 0 0s0 0 0 0c-0.561-1.684-1.122-3.367-1.122-5.051 0-0.561 0-0.561 0-1.122 0-1.684-0.561-3.367-0.561-5.051v0c0 0 0 0 0 0v-633.564c0-20.202 16.274-36.476 36.476-36.476h872.062c9.54 0 19.080 3.928 25.814 10.662s10.662 16.274 10.662 25.814l-0.561 634.125zM493.48 864.741l18.519 13.468 18.519-13.468c1.122-0.561 2.245-1.122 3.367-1.684l352.416-255.895-50.506-36.476-324.358-235.131-373.18 271.608 351.855 255.895c1.122 0.561 2.245 1.122 3.367 1.684zM112.444 10.075v525.258l378.23-274.975c6.173-4.489 14.029-6.734 21.325-6.734s15.152 2.245 21.325 6.734l378.23 274.975v-525.819h-799.11z" />
<glyph unicode="&#xe931;" glyph-name="vs-facebool" d="M589.824 714.24v-110.592h192.512v-163.84h-192.512v-483.328h-184.32v483.328h-167.936v163.84h167.936v94.208c-0.149 3.102-0.233 6.737-0.233 10.391 0 62.911 25.092 119.96 65.815 161.687l-0.045-0.047c39.238 42.862 95.439 69.64 157.895 69.64 0.65 0 1.3-0.003 1.948-0.009l-0.099 0.001h155.648v-167.936h-155.648c-12.033-0.438-22.49-6.802-28.588-16.244l-0.084-0.14c-7.701-10.998-12.306-24.656-12.306-39.389 0-0.552 0.006-1.103 0.019-1.653l-0.002 0.082z" />
<glyph unicode="&#xe932;" glyph-name="vs-faq" d="M512-64c-282.146 0-512 229.852-512 512s229.852 512 512 512 512-229.852 512-512-229.852-512-512-512zM512 880.34c-238.365 0-432.95-193.977-432.95-432.95s193.977-432.95 432.95-432.95c238.365 0 432.95 193.977 432.95 432.95s-193.977 432.95-432.95 432.95zM480.38 324.559l-1.825 21.89c-4.865 44.998 9.729 94.252 51.687 144.114 37.7 44.39 58.375 76.617 58.375 113.71 0 42.565-26.756 70.537-79.050 71.754-29.796 0-63.24-9.729-83.915-25.539l-20.067 52.294c27.363 20.067 74.794 33.444 119.183 33.444 95.467 0 138.64-58.983 138.64-122.223 0-56.552-31.619-97.292-71.754-144.721-36.485-43.173-49.862-79.658-47.431-122.223l0.608-21.89h-64.456zM462.138 207.809c0 31.012 20.675 52.294 49.862 52.294s49.254-21.89 49.254-52.294c0-29.188-18.85-51.687-49.862-51.687-29.188 0-49.254 22.498-49.254 51.687z" />
<glyph unicode="&#xe933;" glyph-name="vs-faq-icon" d="M512-64c-282.146 0-512 229.852-512 512s229.852 512 512 512 512-229.852 512-512-229.852-512-512-512zM512 880.34c-238.365 0-432.95-193.977-432.95-432.95s193.977-432.95 432.95-432.95c238.365 0 432.95 193.977 432.95 432.95s-193.977 432.95-432.95 432.95zM480.38 324.559l-1.825 21.89c-4.865 44.998 9.729 94.252 51.687 144.114 37.7 44.39 58.375 76.617 58.375 113.71 0 42.565-26.756 70.537-79.050 71.754-29.796 0-63.24-9.729-83.915-25.539l-20.067 52.294c27.363 20.067 74.794 33.444 119.183 33.444 95.467 0 138.64-58.983 138.64-122.223 0-56.552-31.619-97.292-71.754-144.721-36.485-43.173-49.862-79.658-47.431-122.223l0.608-21.89h-64.456zM462.138 207.809c0 31.012 20.675 52.294 49.862 52.294s49.254-21.89 49.254-52.294c0-29.188-18.85-51.687-49.862-51.687-29.188 0-49.254 22.498-49.254 51.687z" />
<glyph unicode="&#xe934;" glyph-name="vs-flame" d="M508.883-64c-100.572 0-201.143 41.412-278.051 112.404-82.823 76.908-124.236 177.48-124.236 289.884 0 106.488 41.412 207.059 118.32 278.051l29.579 29.579c5.916 5.916 17.748 17.748 29.579 23.664 88.739 82.823 136.067 136.067 76.908 230.724-11.832 11.832-5.916 35.496 5.916 47.328s29.579 17.748 47.328 5.916c82.823-47.328 189.311-124.236 159.732-266.219-5.916-47.328-23.664-82.823-41.412-106.488s-29.579-47.328-35.496-76.908c0-35.496 23.664-59.16 59.16-65.076 41.412-5.916 76.908 17.748 94.656 76.908s5.916 106.488 5.916 118.32c-5.916 11.832-5.916 29.579 0 41.412 11.832 17.748 35.496 23.664 53.244 11.832 136.067-76.908 212.975-218.892 207.059-366.791-11.832-201.143-177.48-372.707-378.623-378.623-17.748-5.916-23.664-5.916-29.579-5.916zM313.655 586.758l-29.579-29.579c-59.16-59.16-94.656-141.983-94.656-224.808 0-88.739 35.496-171.564 100.572-230.724s147.899-94.656 236.64-88.739c165.648 5.916 295.799 141.983 307.631 307.631 5.916 94.656-29.579 183.396-94.656 242.555 0-23.664-5.916-47.328-11.832-70.992-35.496-118.32-118.32-141.983-183.396-130.152-76.908 11.832-124.236 76.908-118.32 147.899 0 53.244 17.748 82.823 35.496 112.404 17.748 23.664 29.579 41.412 35.496 76.908 5.916 47.328 0 82.823-35.496 118.32 0-88.739-76.908-159.732-124.236-207.059-5.916-5.916-17.748-17.748-23.664-23.664v0z" />
<glyph unicode="&#xe935;" glyph-name="vs-friends" d="M906.204 491.261c-40.080 39.591-87.002 69.406-137.835 88.958 45.456 39.591 74.294 98.244 74.294 163.252 0 119.262-96.778 216.529-215.551 216.529s-215.551-97.267-215.551-216.529c0-6.843 0.489-14.175 0.978-21.017-4.888 0.489-9.776 0.489-15.152 0.489-118.773 0-215.551-97.267-215.551-216.529 0-65.007 28.838-123.661 74.294-163.252-50.833-19.551-97.756-49.367-137.835-88.958-74.783-73.805-116.818-172.539-118.284-278.115-0.489-21.995 17.107-39.591 39.102-40.080 21.506-0.489 39.591 17.107 40.080 39.102 2.933 173.516 145.656 315.262 318.194 315.262 0 0 0 0 0 0s0 0 0 0c172.539 0 315.262-141.257 318.194-315.262 0.489-21.506 18.085-39.102 39.591-39.102 0 0 0.489 0 0.489 0 21.995 0.489 39.102 18.574 39.102 40.080-1.955 105.087-43.99 203.82-118.284 278.115-40.080 39.591-87.002 69.406-137.835 88.958 45.456 39.591 74.294 98.244 74.294 163.252 0 6.843-0.489 13.686-0.978 20.040 4.888 0 9.776 0.489 14.663 0.489 172.539 0 315.262-141.257 318.194-315.262 0.489-21.506 18.085-39.102 39.591-39.102 0 0 0.489 0 0.489 0 21.995 0.489 39.102 18.574 39.102 40.080-0.978 106.065-43.501 204.798-117.795 278.603zM490.742 743.96c0 75.761 61.097 137.347 136.369 137.347s136.369-61.586 136.369-137.347c0-75.761-61.097-137.347-136.369-137.347-14.175 0-28.349 1.955-41.546 6.354-20.529 36.17-50.833 65.985-87.002 85.536-5.377 14.175-7.82 29.327-7.82 45.456zM397.875 369.067c0 0-0.489 0 0 0-75.272 0-136.369 61.586-136.369 137.347s61.097 137.347 136.369 137.347c75.272 0 136.369-61.586 136.369-137.347 0-75.272-61.097-136.858-136.369-137.347 0 0 0 0 0 0z" />
<glyph unicode="&#xe936;" glyph-name="vs-gear" d="M597.435-63.999h-169.653c-37.093 0-66.888 30.404-66.888 66.888v77.834l-54.727-54.727c-26.147-26.147-68.713-26.147-94.86 0l-119.791 119.791c-12.77 12.77-19.458 29.796-19.458 47.43s6.689 34.66 19.458 47.43l54.727 54.727h-78.442c-37.093 0-66.888 30.404-66.888 66.888v169.653c0 37.093 30.404 66.888 66.888 66.888h77.834l-54.727 54.727c-12.77 12.77-19.458 29.796-19.458 47.43s6.689 34.66 19.458 47.43l119.791 119.791c26.147 26.147 68.713 26.147 94.86 0l54.727-54.727v79.658c0 37.093 30.404 66.888 66.888 66.888h169.653c37.093 0 66.888-30.404 66.888-66.888v-77.834l54.727 54.727c12.77 12.77 29.796 19.458 47.43 19.458s34.66-6.689 47.43-19.458l119.791-119.791c26.147-26.147 26.147-68.713 0-94.86l-54.727-54.727h77.834c37.093 0 66.888-30.404 66.888-66.888v-170.261c0-37.093-30.404-66.888-66.888-66.888h-77.834l54.727-54.727c26.147-26.147 26.147-68.713 0-94.86l-119.791-119.791c-26.147-26.147-68.713-26.147-94.86 0l-54.727 54.727v-77.834c1.216-37.701-29.188-68.105-66.28-68.105zM439.943 15.051h145.938v93.036c0 27.363 16.418 51.686 41.957 62.024s54.727 4.865 73.577-14.594l65.672-65.672 103.373 103.373-65.672 66.28c-19.458 19.458-24.931 48.038-14.594 73.577v0.608c10.337 24.931 34.66 41.349 62.024 41.349h93.036v145.938h-93.036c-27.363 0-51.686 16.418-62.024 41.957s-4.865 54.727 14.594 73.577l65.672 65.672-103.373 103.373-65.672-65.672c-19.458-19.458-48.038-24.931-73.577-14.594h-0.608c-24.931 10.337-41.349 34.66-41.349 62.024v93.644h-145.938v-93.036c0-27.363-16.418-51.686-41.957-62.024s-54.727-4.865-73.577 14.594l-66.28 65.064-103.373-103.373 66.28-65.672c19.458-19.458 24.931-48.038 14.594-73.577s-35.268-42.565-62.632-42.565h-93.036v-145.938h93.036c27.363 0 51.686-16.418 62.024-41.957s4.865-54.727-14.594-73.577l-65.672-65.672 103.373-103.373 66.28 66.28c19.458 19.458 48.038 24.931 73.577 14.594s42.565-35.268 42.565-62.632v-93.036zM512.912 256.458c-105.805 0-191.544 85.739-191.544 191.544s85.739 191.544 191.544 191.544 191.544-85.739 191.544-191.544-86.347-191.544-191.544-191.544zM512.912 560.496c-62.024 0-112.494-50.47-112.494-112.494s50.47-112.494 112.494-112.494 112.494 50.47 112.494 112.494-50.47 112.494-112.494 112.494z" />
<glyph unicode="&#xe937;" glyph-name="vs-gift" d="M911.761 750.876h-225.468c17.8 27.689 24.722 59.334 16.317 86.528-6.922 22.25-22.745 39.061-44.995 47.961-30.161 12.361-68.728 7.911-105.317-12.361-16.811-9.394-31.645-20.767-43.511-33.622-11.372 11.372-25.217 21.756-40.545 30.161-36.589 20.272-75.156 24.722-105.317 12.361-22.25-8.9-38.072-26.206-44.995-47.961-7.911-26.206-1.978-55.873 14.339-83.067h-220.029c-61.806 0-112.24-50.434-112.24-112.24v-522.631c0-61.806 50.434-112.24 112.24-112.24h799.521c61.806 0 112.24 50.434 112.24 112.24v522.631c0 61.806-50.434 112.24-112.24 112.24zM944.888 638.637v-222.007h-399.019v255.135h365.891c18.295 0 33.128-14.833 33.128-33.128zM590.37 803.287c18.789 10.383 32.139 9.889 37.084 8.406 0-7.911-11.372-32.634-40.545-48.95-18.295-10.383-32.139-9.889-37.084-8.406 0 0 0 0.494 0 0.494 0 8.9 11.372 32.634 40.545 48.456zM433.63 759.776c-29.667 16.317-41.039 41.039-40.545 48.95 4.45 1.483 18.295 1.483 37.084-8.406 29.667-16.317 41.039-41.039 40.545-48.95-0.989-0.494-2.472-0.494-4.45-0.494h-1.978c-6.922 0-17.306 1.978-30.656 8.9zM112.239 671.765h350.563c0.494 0 0.989 0 1.483 0s0.989 0 1.483 0h0.989v-255.135h-387.647v222.007c0 18.295 14.833 33.128 33.128 33.128zM79.112 116.006v221.512h387.647v-255.135h-354.519c-18.295 0.494-33.128 15.328-33.128 33.622zM911.761 82.878h-365.891v255.135h399.019v-221.512c0-18.789-14.833-33.622-33.128-33.622z" />
<glyph unicode="&#xe938;" glyph-name="vs-graph" d="M28.613 76.999c-2.635 0-5.269 0.439-7.905 1.318-14.931 4.391-23.714 20.2-19.762 35.132 3.953 13.613 110.225 337.701 122.522 375.029l22.835 69.384 94.855-208.154 106.273 216.498 165.996-86.95 133.939 159.409 209.033 17.127 116.373 151.944c9.661 12.735 27.667 14.931 39.962 5.269 12.735-9.661 14.931-27.667 5.269-39.962l-131.743-172.144-210.349-17.127-148.43-176.097-154.578 80.803-133.939-271.83-84.315 184.88c-44.353-135.696-96.173-294.227-98.808-303.449-3.514-12.735-14.931-21.079-27.226-21.079zM203.393 491.112l-36.009-36.009c-10.101-10.101-26.349-10.101-36.45 0l-36.45 36.45c-10.101 10.101-10.101 26.349 0 36.45l36.009 36.009c10.101 10.101 26.349 10.101 36.45 0l36.45-36.45c9.661-10.101 9.661-26.349 0-36.45zM292.977 235.092l-36.009-36.009c-10.101-10.101-26.349-10.101-36.45 0l-36.45 36.45c-10.101 10.101-10.101 26.349 0 36.45l36.009 36.009c10.101 10.101 26.349 10.101 36.45 0l36.45-36.45c10.101-10.101 10.101-26.349 0-36.45zM411.108 520.973l-36.009-36.009c-10.101-10.101-26.349-10.101-36.45 0l-36.45 36.45c-10.101 10.101-10.101 26.349 0 36.45l36.009 36.009c10.101 10.101 26.349 10.101 36.45 0l36.45-36.45c10.101-10.101 10.101-26.349 0-36.45zM571.396 410.309l-36.009-36.009c-10.101-10.101-26.349-10.101-36.45 0l-36.45 36.45c-10.101 10.101-10.101 26.349 0 36.45l36.009 36.009c10.101 10.101 26.349 10.101 36.45 0l36.45-36.45c10.101-10.101 10.101-26.349 0-36.45zM727.731 601.776l-36.009-36.009c-10.101-10.101-26.349-10.101-36.45 0l-36.45 36.45c-10.101 10.101-10.101 26.349 0 36.45l36.009 36.009c10.101 10.101 26.349 10.101 36.45 0l36.45-36.45c9.661-10.101 9.661-26.349 0-36.45zM927.981 608.802l-36.009-36.009c-10.101-10.101-26.349-10.101-36.45 0l-36.45 36.45c-10.101 10.101-10.101 26.349 0 36.45l36.009 36.009c10.101 10.101 26.349 10.101 36.45 0l36.45-36.45c10.101-10.101 10.101-26.349 0-36.45z" />
</font>
</defs>
</svg>
