<svg width="27" height="27" viewBox="0 0 27 27" fill="none" xmlns="http://www.w3.org/2000/svg">
<path d="M13.4992 1.50391C10.1874 1.50391 7.18758 2.8478 5.01419 5.0181C2.84389 7.18995 1.5 10.1898 1.5 13.5031C1.5 20.1299 6.87092 25.5024 13.4992 25.5024C20.1275 25.5024 25.5 20.1299 25.5 13.5031C25.5 12.5902 25.3981 11.702 25.205 10.8478M13.4992 1.50391C19.2146 1.50391 23.997 5.4985 25.205 10.8478M13.4992 1.50391C10.1874 1.50391 7.18758 2.8478 5.01574 5.0181C5.01574 5.0181 8.04489 4.7833 9.75488 7.26409C11.4633 9.74488 16.1839 10.1944 18.5504 8.71457C20.9169 7.23629 22.494 7.9175 23.7545 9.64138C24.1129 10.1295 24.6396 10.5697 25.205 10.8478M2.97364 7.73677C2.97364 7.73677 7.45482 10.8169 5.78654 13.914C4.11827 17.0127 6.86011 18.4199 7.51661 19.4842C8.1731 20.5485 7.0949 22.7095 6.36889 23.1529M12.0611 17.0065C12.5755 15.8727 11.7089 14.8378 13.337 15.0293C14.9651 15.2208 15.1891 15.9685 16.6427 15.9299C18.0963 15.8912 19.9159 16.1925 19.2872 17.8376C18.6585 19.4811 14.6145 22.1009 12.8489 20.4435C11.0833 18.7845 12.0611 17.0081 12.0611 17.0081V17.0065Z" stroke="#249CEC" stroke-width="2" stroke-linecap="round" stroke-linejoin="round"/>
</svg>
